<?xml version="1.0" encoding="UTF-8" standalone="no"?>
<!-- Created with Inkscape (http://www.inkscape.org/) -->

<svg
   xmlns:dc="http://purl.org/dc/elements/1.1/"
   xmlns:cc="http://creativecommons.org/ns#"
   xmlns:rdf="http://www.w3.org/1999/02/22-rdf-syntax-ns#"
   xmlns:svg="http://www.w3.org/2000/svg"
   xmlns="http://www.w3.org/2000/svg"
   xmlns:sodipodi="http://sodipodi.sourceforge.net/DTD/sodipodi-0.dtd"
   xmlns:inkscape="http://www.inkscape.org/namespaces/inkscape"
   width="128"
   height="128"
   id="svg3943"
   version="1.1"
   inkscape:version="0.48.5 r10040"
   sodipodi:docname="corebird-lists-symbolic.svg"
   inkscape:export-filename="/home/baedert/Code/Vala/Corebird/assets/icons/stream.png"
   inkscape:export-xdpi="2.8800001"
   inkscape:export-ydpi="2.8800001">
  <defs
     id="defs3945" />
  <sodipodi:namedview
     id="base"
     pagecolor="#3a3b39"
     bordercolor="#666666"
     borderopacity="1.0"
     inkscape:pageopacity="1"
     inkscape:pageshadow="2"
     inkscape:zoom="2.785709"
     inkscape:cx="82.81112"
     inkscape:cy="80.221674"
     inkscape:document-units="px"
     inkscape:current-layer="layer1"
     showgrid="false"
     inkscape:window-width="960"
     inkscape:window-height="843"
     inkscape:window-x="769"
     inkscape:window-y="64"
     inkscape:window-maximized="0" />
  <metadata
     id="metadata3948">
    <rdf:RDF>
      <cc:Work
         rdf:about="">
        <dc:format>image/svg+xml</dc:format>
        <dc:type
           rdf:resource="http://purl.org/dc/dcmitype/StillImage" />
        <dc:title />
      </cc:Work>
    </rdf:RDF>
  </metadata>
  <g
     inkscape:label="Layer 1"
     inkscape:groupmode="layer"
     id="layer1"
     transform="translate(0,-924.36218)">
    <g
       id="g4426"
       style="fill:#bebebe;fill-opacity:1"
       transform="matrix(3.5867513,0,0,3.5867513,-616.86535,-1745.2826)">
      <g
         id="text4413"
         style="font-size:40px;font-style:normal;font-variant:normal;font-weight:normal;font-stretch:normal;line-height:125%;letter-spacing:0px;word-spacing:0px;fill:#bebebe;fill-opacity:1;stroke:none;font-family:FontAwesome;-inkscape-font-specification:FontAwesome"
         transform="translate(0,552.36218)">
        <path
           id="path4424"
           d="m 206.97073,219.78845 0,2.85715 c -4e-5,0.3869 -0.14141,0.72172 -0.42411,1.00446 -0.28277,0.28274 -0.61759,0.42411 -1.00446,0.42411 l -31.42858,0 c -0.3869,0 -0.72172,-0.14137 -1.00446,-0.42411 -0.28274,-0.28274 -0.42411,-0.61756 -0.42411,-1.00446 l 0,-2.85715 c 0,-0.3869 0.14137,-0.72172 0.42411,-1.00446 0.28274,-0.28273 0.61756,-0.4241 1.00446,-0.42411 l 31.42858,0 c 0.38687,1e-5 0.72169,0.14138 1.00446,0.42411 0.2827,0.28274 0.42407,0.61756 0.42411,1.00446"
           style="fill:#bebebe;fill-opacity:1"
           inkscape:connector-curvature="0" />
        <path
           id="path4422"
           d="m 206.97073,208.35988 0,2.85714 c -4e-5,0.38692 -0.14141,0.72174 -0.42411,1.00447 -0.28277,0.28275 -0.61759,0.42412 -1.00446,0.42411 l -31.42858,0 c -0.3869,1e-5 -0.72172,-0.14136 -1.00446,-0.42411 -0.28274,-0.28273 -0.42411,-0.61755 -0.42411,-1.00447 l 0,-2.85714 c 0,-0.38689 0.14137,-0.72171 0.42411,-1.00446 0.28274,-0.28272 0.61756,-0.42409 1.00446,-0.42411 l 31.42858,0 c 0.38687,2e-5 0.72169,0.14139 1.00446,0.42411 0.2827,0.28275 0.42407,0.61757 0.42411,1.00446"
           style="fill:#bebebe;fill-opacity:1"
           inkscape:connector-curvature="0" />
        <path
           id="path4418"
           d="m 206.97073,196.93131 0,2.85714 c -4e-5,0.38693 -0.14141,0.72175 -0.42411,1.00447 -0.28277,0.28276 -0.61759,0.42413 -1.00446,0.4241 l -31.42858,0 c -0.3869,3e-5 -0.72172,-0.14134 -1.00446,-0.4241 -0.28274,-0.28272 -0.42411,-0.61754 -0.42411,-1.00447 l 0,-2.85714 c 0,-0.38688 0.14137,-0.7217 0.42411,-1.00446 0.28274,-0.28271 0.61756,-0.42408 1.00446,-0.42411 l 31.42858,0 c 0.38687,3e-5 0.72169,0.1414 1.00446,0.42411 0.2827,0.28276 0.42407,0.61758 0.42411,1.00446"
           style="fill:#bebebe;fill-opacity:1"
           inkscape:connector-curvature="0" />
      </g>
    </g>
  </g>
</svg>
