<?xml version="1.0" encoding="UTF-8" standalone="no"?>
<!-- Created with Inkscape (http://www.inkscape.org/) -->

<svg
   xmlns:dc="http://purl.org/dc/elements/1.1/"
   xmlns:cc="http://creativecommons.org/ns#"
   xmlns:rdf="http://www.w3.org/1999/02/22-rdf-syntax-ns#"
   xmlns:svg="http://www.w3.org/2000/svg"
   xmlns="http://www.w3.org/2000/svg"
   xmlns:sodipodi="http://sodipodi.sourceforge.net/DTD/sodipodi-0.dtd"
   xmlns:inkscape="http://www.inkscape.org/namespaces/inkscape"
   width="128"
   height="128"
   id="svg15935"
   version="1.1"
   inkscape:version="0.48.5 r10040"
   sodipodi:docname="corebird-mentions-symbolic.svg">
  <defs
     id="defs15937" />
  <sodipodi:namedview
     id="base"
     pagecolor="#3a3b39"
     bordercolor="#666666"
     borderopacity="1.0"
     inkscape:pageopacity="1"
     inkscape:pageshadow="2"
     inkscape:zoom="1.4142136"
     inkscape:cx="33.328547"
     inkscape:cy="31.754322"
     inkscape:document-units="px"
     inkscape:current-layer="layer1"
     showgrid="false"
     inkscape:showpageshadow="false"
     inkscape:window-width="1440"
     inkscape:window-height="838"
     inkscape:window-x="0"
     inkscape:window-y="27"
     inkscape:window-maximized="1">
    <inkscape:grid
       type="xygrid"
       id="grid15955"
       empspacing="5"
       visible="true"
       enabled="true"
       snapvisiblegridlinesonly="true" />
  </sodipodi:namedview>
  <metadata
     id="metadata15940">
    <rdf:RDF>
      <cc:Work
         rdf:about="">
        <dc:format>image/svg+xml</dc:format>
        <dc:type
           rdf:resource="http://purl.org/dc/dcmitype/StillImage" />
        <dc:title />
      </cc:Work>
    </rdf:RDF>
  </metadata>
  <g
     inkscape:label="Layer 1"
     inkscape:groupmode="layer"
     id="layer1"
     transform="translate(0,-924.3622)">
    <g
       style="font-size:15.02145958px;font-style:normal;font-variant:normal;font-weight:bold;font-stretch:normal;line-height:125%;letter-spacing:0px;word-spacing:0px;fill:#bebebe;fill-opacity:1;stroke:none;font-family:Cantarell;-inkscape-font-specification:Cantarell Bold"
       id="text15951"
       transform="matrix(8.4825856,0,0,8.3503503,-10.113512,-7739.8694)">
      <path
         d="m 7.358214,1045.2754 c -6.1e-6,0.6014 0.1271285,1.0757 0.3814042,1.4229 0.2591526,0.3472 0.6087728,0.5208 1.0488617,0.5208 0.4351841,0 0.7823594,-0.1736 1.041527,-0.5208 0.2591501,-0.3521 0.3887301,-0.8264 0.3887391,-1.4229 -9e-6,-0.5917 -0.132034,-1.0587 -0.3960738,-1.401 -0.2591676,-0.3471 -0.6087878,-0.5207 -1.0488617,-0.5207 -0.4303093,0 -0.7750397,0.1736 -1.0341923,0.5207 -0.2542757,0.3423 -0.3814103,0.8093 -0.3814042,1.401 m 3.007226,2.2077 c -0.146703,0.3472 -0.3838581,0.6186 -0.7114658,0.8142 -0.3227348,0.1907 -0.7016938,0.286 -1.1368781,0.286 -0.8410517,0 -1.5256227,-0.3032 -2.0537152,-0.9095 -0.523213,-0.6112 -0.784817,-1.4058 -0.7848126,-2.3838 -4.4e-6,-0.9779 0.2640445,-1.7725 0.7921473,-2.3837 0.5280925,-0.6113 1.2102186,-0.9169 2.0463805,-0.9169 0.4351843,0 0.8141433,0.098 1.1368781,0.2934 0.3276077,0.1956 0.5647628,0.467 0.7114658,0.8142 l 0,-0.9609 1.532951,0 0,5.083 c 0.606324,-0.093 1.083079,-0.3839 1.430266,-0.8729 0.347164,-0.4938 0.520751,-1.1246 0.520764,-1.8923 -1.3e-5,-0.489 -0.07091,-0.9462 -0.212706,-1.3716 -0.141817,-0.4303 -0.356968,-0.8239 -0.645454,-1.1809 -0.464542,-0.5966 -1.046427,-1.0562 -1.745658,-1.3789 -0.69436,-0.3227 -1.4473883,-0.4841 -2.2590863,-0.4841 -0.5672237,0 -1.1099907,0.076 -1.6283027,0.2274 -0.5183242,0.1467 -0.9975239,0.3643 -1.4376007,0.6527 -0.723694,0.4793 -1.2884651,1.1003 -1.694315,1.8631 -0.400966,0.7579 -0.6014475,1.5794 -0.6014451,2.4644 -2.4e-6,0.7286 0.1295771,1.4132 0.3887389,2.0537 0.2640461,0.6357 0.6430051,1.198 1.1368781,1.687 0.4889754,0.4792 1.0488567,0.8435 1.6796456,1.0929 0.6356675,0.2543 1.3129039,0.3814 2.0317111,0.3814 0.6161063,0 1.2322201,-0.1149 1.8483441,-0.3447 0.616104,-0.2299 1.141757,-0.5404 1.576959,-0.9315 l 0.784813,1.1882 c -0.611236,0.4743 -1.278693,0.8361 -2.002372,1.0855 -0.71881,0.2543 -1.4498338,0.3814 -2.1930747,0.3814 -0.9046194,0 -1.7578883,-0.1614 -2.5598093,-0.4841 -0.8019311,-0.3178 -1.5158409,-0.7823 -2.1417316,-1.3936 -0.6258964,-0.6112 -1.1026512,-1.3178 -1.4302659,-2.1197 -0.3276176,-0.8068 -0.4914257,-1.6723 -0.4914247,-2.5965 -1e-6,-0.8899 0.166252,-1.7383 0.4987594,-2.5451 0.3325045,-0.8068 0.8068144,-1.5158 1.4229312,-2.1271 0.6161111,-0.6063 1.3324658,-1.0757 2.1490663,-1.4082 0.8214802,-0.3325 1.6723042,-0.4988 2.5524746,-0.4988 1.095306,0 2.0903787,0.2103 2.9852217,0.6308 0.894822,0.4156 1.64296,1.0171 2.244417,1.8043 0.366722,0.4792 0.642995,1 0.828821,1.5623 0.190688,0.5574 0.286039,1.1442 0.286053,1.7603 -1.4e-5,1.3252 -0.398532,2.3545 -1.195555,3.0879 -0.797049,0.7335 -1.921702,1.1002 -3.373961,1.1002 l -0.286053,0 0,-1.1295"
         style="text-align:start;line-height:125%;writing-mode:lr-tb;text-anchor:start;fill:#bebebe;font-family:Open Sans;-inkscape-font-specification:Open Sans Bold"
         id="path3126"
         inkscape:connector-curvature="0" />
    </g>
  </g>
</svg>
