<?xml version="1.0" encoding="UTF-8" standalone="no"?>
<!-- Created with Inkscape (http://www.inkscape.org/) -->

<svg
   xmlns:dc="http://purl.org/dc/elements/1.1/"
   xmlns:cc="http://creativecommons.org/ns#"
   xmlns:rdf="http://www.w3.org/1999/02/22-rdf-syntax-ns#"
   xmlns:svg="http://www.w3.org/2000/svg"
   xmlns="http://www.w3.org/2000/svg"
   xmlns:sodipodi="http://sodipodi.sourceforge.net/DTD/sodipodi-0.dtd"
   xmlns:inkscape="http://www.inkscape.org/namespaces/inkscape"
   width="1972.7627"
   height="1971.3688"
   id="svg2"
   version="1.1"
   inkscape:version="0.48.4 r9939"
   sodipodi:docname="logo.svg">
  <defs
     id="defs4" />
  <sodipodi:namedview
     id="base"
     pagecolor="#ffffff"
     bordercolor="#666666"
     borderopacity="1.0"
     inkscape:pageopacity="0.0"
     inkscape:pageshadow="2"
     inkscape:zoom="0.21431189"
     inkscape:cx="1444.5229"
     inkscape:cy="694.32729"
     inkscape:document-units="px"
     inkscape:current-layer="layer1"
     showgrid="false"
     showborder="false"
     inkscape:window-width="929"
     inkscape:window-height="810"
     inkscape:window-x="966"
     inkscape:window-y="35"
     inkscape:window-maximized="0"
     showguides="true"
     inkscape:guide-bbox="true"
     fit-margin-top="0"
     fit-margin-left="0"
     fit-margin-right="0"
     fit-margin-bottom="0" />
  <metadata
     id="metadata7">
    <rdf:RDF>
      <cc:Work
         rdf:about="">
        <dc:format>image/svg+xml</dc:format>
        <dc:type
           rdf:resource="http://purl.org/dc/dcmitype/StillImage" />
        <dc:title />
      </cc:Work>
    </rdf:RDF>
  </metadata>
  <g
     inkscape:label="Layer 1"
     inkscape:groupmode="layer"
     id="layer1"
     transform="translate(1853.0984,-259.35957)">
    <text
       xml:space="preserve"
       style="font-size:50.97743988px;font-style:normal;font-variant:normal;font-weight:normal;font-stretch:normal;line-height:125%;letter-spacing:0px;word-spacing:0px;fill:#000000;fill-opacity:1;stroke:none;font-family:Subpear;-inkscape-font-specification:Subpear"
       x="-1917.7021"
       y="-234.82451"
       id="text2990"
       sodipodi:linespacing="125%"><tspan
         sodipodi:role="line"
         id="tspan2992"
         x="-1917.7021"
         y="-234.82451">Zahnrad mit Vogel in der Mitte.</tspan></text>
    <g
       id="g3294">
      <g
         style="fill:#729fcf"
         id="g3272"
         transform="translate(110.99817,244.06659)">
        <g
           style="fill:#729fcf"
           transform="matrix(1.3020546,0.51647373,-0.51647373,1.3020546,-932.94832,331.63606)"
           id="g3274">
          <path
             inkscape:connector-curvature="0"
             style="fill:#729fcf;fill-opacity:1;stroke:#b4b4b4;stroke-width:1.20000005;stroke-miterlimit:4;stroke-opacity:1"
             d="m 157.15625,-44.78125 c -280.87625,0 -508.59375,227.68624 -508.59375,508.5625 0,280.87625 227.7175,508.59375 508.59375,508.59375 280.87626,0 508.5625,-227.7175 508.5625,-508.59375 0,-280.87626 -227.68624,-508.5625 -508.5625,-508.5625 z M 152.9375,139.1875 c 1.39644,-0.0177 2.81811,0 4.21875,0 179.28131,0 324.59375,145.31245 324.59375,324.59375 0,179.2813 -145.31244,324.625 -324.59375,324.625 -179.281308,0 -324.625,-145.3437 -324.625,-324.625 0,-177.88066 143.058571,-322.34736 320.40625,-324.59375 z"
             id="path3276" />
          <path
             style="fill:#729fcf;fill-opacity:1;stroke:none"
             d="m 67.095132,-246.53033 177.161818,0 80.52811,246.185936 -338.218037,0 z"
             id="path3278"
             inkscape:connector-curvature="0"
             sodipodi:nodetypes="ccccc" />
          <path
             sodipodi:nodetypes="ccccc"
             inkscape:connector-curvature="0"
             id="path3280"
             d="m 872.74838,377.07948 0,177.16182 -246.1859,80.52811 0,-338.21804 z"
             style="fill:#729fcf;fill-opacity:1;stroke:none" />
          <path
             style="fill:#729fcf;fill-opacity:1;stroke:none"
             d="m 241.95163,1174.4274 -177.16184,0 -80.52811,-246.18587 338.21805,0 z"
             id="path3282"
             inkscape:connector-curvature="0"
             sodipodi:nodetypes="ccccc" />
          <path
             sodipodi:nodetypes="ccccc"
             inkscape:connector-curvature="0"
             id="path3284"
             d="m -549.36203,553.46258 0,-177.16182 246.18594,-80.52811 0,338.21804 z"
             style="fill:#729fcf;fill-opacity:1;stroke:none" />
          <path
             sodipodi:nodetypes="ccccc"
             inkscape:connector-curvature="0"
             id="path3286"
             d="M -407.58217,28.455029 -282.30984,-96.817293 -51.288125,20.320479 -290.44439,259.47675 z"
             style="fill:#729fcf;fill-opacity:1;stroke:none" />
          <path
             style="fill:#729fcf;fill-opacity:1;stroke:none"
             d="M 603.05943,-100.26912 728.33176,25.003204 611.19401,256.0249 372.03774,16.868627 z"
             id="path3288"
             inkscape:connector-curvature="0"
             sodipodi:nodetypes="ccccc" />
          <path
             sodipodi:nodetypes="ccccc"
             inkscape:connector-curvature="0"
             id="path3290"
             d="M 720.8289,909.58166 595.55656,1034.854 364.53489,917.71627 603.69116,678.56 z"
             style="fill:#729fcf;fill-opacity:1;stroke:none" />
          <path
             style="fill:#729fcf;fill-opacity:1;stroke:none"
             d="M -277.80279,1030.0365 -403.07512,904.76415 -285.93734,673.74243 -46.781073,912.8987 z"
             id="path3292"
             inkscape:connector-curvature="0"
             sodipodi:nodetypes="ccccc" />
        </g>
      </g>
      <g
         transform="translate(100.99817,234.06659)"
         id="g3250"
         style="fill:#3465a4">
        <g
           id="g3252"
           transform="matrix(1.3020546,0.51647373,-0.51647373,1.3020546,-932.94832,331.63606)"
           style="fill:#3465a4">
          <path
             id="path3254"
             d="m 157.15625,-44.78125 c -280.87625,0 -508.59375,227.68624 -508.59375,508.5625 0,280.87625 227.7175,508.59375 508.59375,508.59375 280.87626,0 508.5625,-227.7175 508.5625,-508.59375 0,-280.87626 -227.68624,-508.5625 -508.5625,-508.5625 z M 152.9375,139.1875 c 1.39644,-0.0177 2.81811,0 4.21875,0 179.28131,0 324.59375,145.31245 324.59375,324.59375 0,179.2813 -145.31244,324.625 -324.59375,324.625 -179.281308,0 -324.625,-145.3437 -324.625,-324.625 0,-177.88066 143.058571,-322.34736 320.40625,-324.59375 z"
             style="fill:#3465a4;fill-opacity:1;stroke:#b4b4b4;stroke-width:1.20000005;stroke-miterlimit:4;stroke-opacity:1"
             inkscape:connector-curvature="0" />
          <path
             sodipodi:nodetypes="ccccc"
             inkscape:connector-curvature="0"
             id="path3256"
             d="m 67.095132,-246.53033 177.161818,0 80.52811,246.185936 -338.218037,0 z"
             style="fill:#3465a4;fill-opacity:1;stroke:none" />
          <path
             style="fill:#3465a4;fill-opacity:1;stroke:none"
             d="m 872.74838,377.07948 0,177.16182 -246.1859,80.52811 0,-338.21804 z"
             id="path3258"
             inkscape:connector-curvature="0"
             sodipodi:nodetypes="ccccc" />
          <path
             sodipodi:nodetypes="ccccc"
             inkscape:connector-curvature="0"
             id="path3260"
             d="m 241.95163,1174.4274 -177.16184,0 -80.52811,-246.18587 338.21805,0 z"
             style="fill:#3465a4;fill-opacity:1;stroke:none" />
          <path
             style="fill:#3465a4;fill-opacity:1;stroke:none"
             d="m -549.36203,553.46258 0,-177.16182 246.18594,-80.52811 0,338.21804 z"
             id="path3262"
             inkscape:connector-curvature="0"
             sodipodi:nodetypes="ccccc" />
          <path
             style="fill:#3465a4;fill-opacity:1;stroke:none"
             d="M -407.58217,28.455029 -282.30984,-96.817293 -51.288125,20.320479 -290.44439,259.47675 z"
             id="path3264"
             inkscape:connector-curvature="0"
             sodipodi:nodetypes="ccccc" />
          <path
             sodipodi:nodetypes="ccccc"
             inkscape:connector-curvature="0"
             id="path3266"
             d="M 603.05943,-100.26912 728.33176,25.003204 611.19401,256.0249 372.03774,16.868627 z"
             style="fill:#3465a4;fill-opacity:1;stroke:none" />
          <path
             style="fill:#3465a4;fill-opacity:1;stroke:none"
             d="M 720.8289,909.58166 595.55656,1034.854 364.53489,917.71627 603.69116,678.56 z"
             id="path3268"
             inkscape:connector-curvature="0"
             sodipodi:nodetypes="ccccc" />
          <path
             sodipodi:nodetypes="ccccc"
             inkscape:connector-curvature="0"
             id="path3270"
             d="M -277.80279,1030.0365 -403.07512,904.76415 -285.93734,673.74243 -46.781073,912.8987 z"
             style="fill:#3465a4;fill-opacity:1;stroke:none" />
        </g>
      </g>
      <g
         style="fill:#204a87"
         id="g3228"
         transform="translate(90.998169,224.06659)">
        <g
           style="fill:#204a87"
           transform="matrix(1.3020546,0.51647373,-0.51647373,1.3020546,-932.94832,331.63606)"
           id="g3230">
          <path
             inkscape:connector-curvature="0"
             style="fill:#204a87;fill-opacity:1;stroke:#b4b4b4;stroke-width:1.20000005;stroke-miterlimit:4;stroke-opacity:1"
             d="m 157.15625,-44.78125 c -280.87625,0 -508.59375,227.68624 -508.59375,508.5625 0,280.87625 227.7175,508.59375 508.59375,508.59375 280.87626,0 508.5625,-227.7175 508.5625,-508.59375 0,-280.87626 -227.68624,-508.5625 -508.5625,-508.5625 z M 152.9375,139.1875 c 1.39644,-0.0177 2.81811,0 4.21875,0 179.28131,0 324.59375,145.31245 324.59375,324.59375 0,179.2813 -145.31244,324.625 -324.59375,324.625 -179.281308,0 -324.625,-145.3437 -324.625,-324.625 0,-177.88066 143.058571,-322.34736 320.40625,-324.59375 z"
             id="path3232" />
          <path
             style="fill:#204a87;fill-opacity:1;stroke:none"
             d="m 67.095132,-246.53033 177.161818,0 80.52811,246.185936 -338.218037,0 z"
             id="path3234"
             inkscape:connector-curvature="0"
             sodipodi:nodetypes="ccccc" />
          <path
             sodipodi:nodetypes="ccccc"
             inkscape:connector-curvature="0"
             id="path3236"
             d="m 872.74838,377.07948 0,177.16182 -246.1859,80.52811 0,-338.21804 z"
             style="fill:#204a87;fill-opacity:1;stroke:none" />
          <path
             style="fill:#204a87;fill-opacity:1;stroke:none"
             d="m 241.95163,1174.4274 -177.16184,0 -80.52811,-246.18587 338.21805,0 z"
             id="path3238"
             inkscape:connector-curvature="0"
             sodipodi:nodetypes="ccccc" />
          <path
             sodipodi:nodetypes="ccccc"
             inkscape:connector-curvature="0"
             id="path3240"
             d="m -549.36203,553.46258 0,-177.16182 246.18594,-80.52811 0,338.21804 z"
             style="fill:#204a87;fill-opacity:1;stroke:none" />
          <path
             sodipodi:nodetypes="ccccc"
             inkscape:connector-curvature="0"
             id="path3242"
             d="M -407.58217,28.455029 -282.30984,-96.817293 -51.288125,20.320479 -290.44439,259.47675 z"
             style="fill:#204a87;fill-opacity:1;stroke:none" />
          <path
             style="fill:#204a87;fill-opacity:1;stroke:none"
             d="M 603.05943,-100.26912 728.33176,25.003204 611.19401,256.0249 372.03774,16.868627 z"
             id="path3244"
             inkscape:connector-curvature="0"
             sodipodi:nodetypes="ccccc" />
          <path
             sodipodi:nodetypes="ccccc"
             inkscape:connector-curvature="0"
             id="path3246"
             d="M 720.8289,909.58166 595.55656,1034.854 364.53489,917.71627 603.69116,678.56 z"
             style="fill:#204a87;fill-opacity:1;stroke:none" />
          <path
             style="fill:#204a87;fill-opacity:1;stroke:none"
             d="M -277.80279,1030.0365 -403.07512,904.76415 -285.93734,673.74243 -46.781073,912.8987 z"
             id="path3248"
             inkscape:connector-curvature="0"
             sodipodi:nodetypes="ccccc" />
        </g>
      </g>
      <g
         transform="translate(80.998169,214.06659)"
         id="g3150">
        <g
           id="g3853"
           transform="matrix(1.3020546,0.51647373,-0.51647373,1.3020546,-932.94832,331.63606)">
          <path
             id="path2985"
             d="m 157.15625,-44.78125 c -280.87625,0 -508.59375,227.68624 -508.59375,508.5625 0,280.87625 227.7175,508.59375 508.59375,508.59375 280.87626,0 508.5625,-227.7175 508.5625,-508.59375 0,-280.87626 -227.68624,-508.5625 -508.5625,-508.5625 z M 152.9375,139.1875 c 1.39644,-0.0177 2.81811,0 4.21875,0 179.28131,0 324.59375,145.31245 324.59375,324.59375 0,179.2813 -145.31244,324.625 -324.59375,324.625 -179.281308,0 -324.625,-145.3437 -324.625,-324.625 0,-177.88066 143.058571,-322.34736 320.40625,-324.59375 z"
             style="fill:#999999;fill-opacity:1;stroke:#b4b4b4;stroke-width:1.20000005;stroke-miterlimit:4;stroke-opacity:1"
             inkscape:connector-curvature="0" />
          <path
             sodipodi:nodetypes="ccccc"
             inkscape:connector-curvature="0"
             id="rect2987"
             d="m 67.095132,-246.53033 177.161818,0 80.52811,246.185936 -338.218037,0 z"
             style="fill:#999999;fill-opacity:1;stroke:none" />
          <path
             style="fill:#999999;fill-opacity:1;stroke:none"
             d="m 872.74838,377.07948 0,177.16182 -246.1859,80.52811 0,-338.21804 z"
             id="path3041"
             inkscape:connector-curvature="0"
             sodipodi:nodetypes="ccccc" />
          <path
             sodipodi:nodetypes="ccccc"
             inkscape:connector-curvature="0"
             id="path3815"
             d="m 241.95163,1174.4274 -177.16184,0 -80.52811,-246.18587 338.21805,0 z"
             style="fill:#999999;fill-opacity:1;stroke:none" />
          <path
             style="fill:#999999;fill-opacity:1;stroke:none"
             d="m -549.36203,553.46258 0,-177.16182 246.18594,-80.52811 0,338.21804 z"
             id="path3817"
             inkscape:connector-curvature="0"
             sodipodi:nodetypes="ccccc" />
          <path
             style="fill:#999999;fill-opacity:1;stroke:none"
             d="M -407.58217,28.455029 -282.30984,-96.817293 -51.288125,20.320479 -290.44439,259.47675 z"
             id="path3830"
             inkscape:connector-curvature="0"
             sodipodi:nodetypes="ccccc" />
          <path
             sodipodi:nodetypes="ccccc"
             inkscape:connector-curvature="0"
             id="path3832"
             d="M 603.05943,-100.26912 728.33176,25.003204 611.19401,256.0249 372.03774,16.868627 z"
             style="fill:#999999;fill-opacity:1;stroke:none" />
          <path
             style="fill:#999999;fill-opacity:1;stroke:none"
             d="M 720.8289,909.58166 595.55656,1034.854 364.53489,917.71627 603.69116,678.56 z"
             id="path3834"
             inkscape:connector-curvature="0"
             sodipodi:nodetypes="ccccc" />
          <path
             sodipodi:nodetypes="ccccc"
             inkscape:connector-curvature="0"
             id="path3836"
             d="M -277.80279,1030.0365 -403.07512,904.76415 -285.93734,673.74243 -46.781073,912.8987 z"
             style="fill:#999999;fill-opacity:1;stroke:none" />
        </g>
      </g>
    </g>
  </g>
</svg>
