<?xml version="1.0" encoding="UTF-8" standalone="no"?>
<!-- Created with Inkscape (http://www.inkscape.org/) -->

<svg
   xmlns:dc="http://purl.org/dc/elements/1.1/"
   xmlns:cc="http://creativecommons.org/ns#"
   xmlns:rdf="http://www.w3.org/1999/02/22-rdf-syntax-ns#"
   xmlns:svg="http://www.w3.org/2000/svg"
   xmlns="http://www.w3.org/2000/svg"
   xmlns:sodipodi="http://sodipodi.sourceforge.net/DTD/sodipodi-0.dtd"
   xmlns:inkscape="http://www.inkscape.org/namespaces/inkscape"
   width="640"
   height="640"
   id="svg2"
   version="1.1"
   inkscape:version="0.48.4 r9939"
   sodipodi:docname="corebird.svg"
   inkscape:export-filename="/home/baedert/Code/Vala/Corebird/assets/corebird.png"
   inkscape:export-xdpi="18"
   inkscape:export-ydpi="18">
  <defs
     id="defs4" />
  <sodipodi:namedview
     id="base"
     pagecolor="#ffffff"
     bordercolor="#666666"
     borderopacity="1.0"
     inkscape:pageopacity="0.0"
     inkscape:pageshadow="2"
     inkscape:zoom="2.3270898"
     inkscape:cx="309.33687"
     inkscape:cy="311.21693"
     inkscape:document-units="px"
     inkscape:current-layer="layer1"
     showgrid="false"
     inkscape:window-width="1348"
     inkscape:window-height="954"
     inkscape:window-x="493"
     inkscape:window-y="88"
     inkscape:window-maximized="0"
     fit-margin-top="15"
     fit-margin-left="15"
     fit-margin-right="15"
     fit-margin-bottom="15" />
  <metadata
     id="metadata7">
    <rdf:RDF>
      <cc:Work
         rdf:about="">
        <dc:format>image/svg+xml</dc:format>
        <dc:type
           rdf:resource="http://purl.org/dc/dcmitype/StillImage" />
        <dc:title></dc:title>
      </cc:Work>
    </rdf:RDF>
  </metadata>
  <g
     inkscape:label="Layer 1"
     inkscape:groupmode="layer"
     id="layer1"
     transform="translate(-67.5625,-213.40625)">
    <g
       id="g3813"
       transform="translate(28.984375,6.485525)">
      <path
         inkscape:connector-curvature="0"
         id="path4178"
         d="m 371.2289,237.15625 c -20.84555,0 -38.92258,8.08121 -47.9375,19.875 -8.15505,-3.00587 -17.44975,-4.71875 -27.3125,-4.71875 -25.52565,0 -47.21887,11.40738 -55.25,27.3125 -8.85165,-10.31796 -23.84167,-17.09375 -40.84375,-17.09375 -27.20332,0 -49.28125,17.35863 -49.28125,38.78125 0,1.91044 0.19247,3.78851 0.53125,5.625 -11.57792,10.02668 -18.8125,24.16612 -18.8125,39.84375 0,30.40511 27.15149,55.03125 60.625,55.03125 9.26797,0 18.05143,-1.87192 25.90625,-5.25 30.38764,12.59734 72.95264,20.40625 120.0625,20.40625 56.90613,0 107.1496,-11.42284 137.34375,-28.875 10.65481,10.24531 26.61947,16.75 44.46875,16.75 32.07878,0 58.09375,-21.02678 58.09375,-46.96875 0,-20.37099 -16.04904,-37.70978 -38.46875,-44.21875 0.0367,-0.74627 0.0625,-1.49521 0.0625,-2.25 0,-26.49986 -22.82646,-47.96875 -51,-47.96875 -10.72976,0 -20.69087,3.11526 -28.90625,8.4375 -7.96788,-5.16199 -19.89408,-8.4375 -33.21875,-8.4375 -1.4361,0 -2.84966,0.0506 -4.25,0.125 -6.61549,-15.2611 -27.29849,-26.40625 -51.8125,-26.40625 z"
         style="fill:#ffffff;fill-opacity:1;stroke:#000000;stroke-width:15;stroke-miterlimit:4;stroke-opacity:1;stroke-dasharray:none" />
      <path
         inkscape:connector-curvature="0"
         id="path2985"
         d="M 111.71875,358.0625 C 97.790832,390.52478 90.0625,426.28152 90.0625,463.84375 c 0,148.30052 120.19948,268.5 268.5,268.5 148.30052,0 268.53125,-120.19948 268.53125,-268.5 0,-37.56223 -7.72833,-73.31897 -21.65625,-105.78125 l -493.71875,0 z"
         style="fill:#ffffff;fill-opacity:1;stroke:#000000;stroke-width:15;stroke-miterlimit:4;stroke-opacity:1;stroke-dasharray:none" />
      <path
         sodipodi:nodetypes="cccc"
         inkscape:connector-curvature="0"
         id="rect2987"
         d="m 256.36855,560.20439 188.57318,0 -94.28659,256.48081 z"
         style="fill:#ffffff;fill-opacity:1;stroke:#000000;stroke-width:15;stroke-miterlimit:4;stroke-opacity:1;stroke-dasharray:none" />
      <g
         transform="translate(6.0781326,0)"
         id="g4143">
        <rect
           style="fill:#ffffff;fill-opacity:1;stroke:#000000;stroke-width:15;stroke-miterlimit:4;stroke-opacity:1;stroke-dasharray:none"
           id="rect3028"
           width="129.09659"
           height="30.932322"
           x="146.88026"
           y="447.61032" />
        <rect
           y="447.61032"
           x="429.02313"
           height="30.932322"
           width="129.09659"
           id="rect3032"
           style="fill:#ffffff;fill-opacity:1;stroke:#000000;stroke-width:15;stroke-miterlimit:4;stroke-opacity:1;stroke-dasharray:none" />
      </g>
    </g>
  </g>
</svg>
