<?xml version="1.0" encoding="UTF-8" standalone="no"?>
<!-- Created with Inkscape (http://www.inkscape.org/) -->

<svg
   xmlns:dc="http://purl.org/dc/elements/1.1/"
   xmlns:cc="http://creativecommons.org/ns#"
   xmlns:rdf="http://www.w3.org/1999/02/22-rdf-syntax-ns#"
   xmlns:svg="http://www.w3.org/2000/svg"
   xmlns="http://www.w3.org/2000/svg"
   xmlns:sodipodi="http://sodipodi.sourceforge.net/DTD/sodipodi-0.dtd"
   xmlns:inkscape="http://www.inkscape.org/namespaces/inkscape"
   width="48px"
   height="48px"
   id="svg2985"
   version="1.1"
   inkscape:version="0.48.4 r9939"
   sodipodi:docname="corebird_alternative.svg">
  <defs
     id="defs2987">
    <linearGradient
       id="linearGradient3823">
      <stop
         style="stop-color:#3465a4;stop-opacity:1;"
         offset="0"
         id="stop3825" />
      <stop
         style="stop-color:#729fcf;stop-opacity:1;"
         offset="1"
         id="stop3827" />
    </linearGradient>
    <linearGradient
       id="linearGradient3815">
      <stop
         style="stop-color:#729fcf;stop-opacity:1;"
         offset="0"
         id="stop3817" />
      <stop
         style="stop-color:#729fcf;stop-opacity:0;"
         offset="1"
         id="stop3819" />
    </linearGradient>
    <linearGradient
       id="linearGradient3779">
      <stop
         style="stop-color:#fcaf3e;stop-opacity:1;"
         offset="0"
         id="stop3781" />
      <stop
         id="stop3791"
         offset="0.92655367"
         style="stop-color:#fcaf3e;stop-opacity:1;" />
      <stop
         style="stop-color:#000000;stop-opacity:0.82278478;"
         offset="1"
         id="stop3783" />
    </linearGradient>
  </defs>
  <sodipodi:namedview
     id="base"
     pagecolor="#ffffff"
     bordercolor="#666666"
     borderopacity="1.0"
     inkscape:pageopacity="0.0"
     inkscape:pageshadow="2"
     inkscape:zoom="11.313708"
     inkscape:cx="15.692576"
     inkscape:cy="22.655338"
     inkscape:current-layer="layer1"
     showgrid="true"
     inkscape:grid-bbox="true"
     inkscape:document-units="px"
     inkscape:snap-bbox="true"
     inkscape:bbox-paths="true"
     inkscape:bbox-nodes="true"
     inkscape:snap-bbox-edge-midpoints="true"
     inkscape:snap-bbox-midpoints="true"
     inkscape:object-paths="true"
     inkscape:snap-intersection-paths="true"
     inkscape:object-nodes="true"
     inkscape:snap-smooth-nodes="true"
     inkscape:snap-midpoints="true"
     inkscape:snap-object-midpoints="true"
     inkscape:snap-center="true"
     inkscape:snap-global="true"
     inkscape:window-width="1600"
     inkscape:window-height="859"
     inkscape:window-x="-2"
     inkscape:window-y="18"
     inkscape:window-maximized="1"
     inkscape:snap-page="true"
     showguides="true"
     inkscape:guide-bbox="true"
     inkscape:snap-nodes="true"
     inkscape:snap-grids="false"
     inkscape:snap-to-guides="true">
    <inkscape:grid
       type="xygrid"
       id="grid2993"
       empspacing="24"
       visible="true"
       enabled="true"
       snapvisiblegridlinesonly="true"
       spacingx="1px"
       spacingy="1px"
       dotted="true" />
  </sodipodi:namedview>
  <metadata
     id="metadata2990">
    <rdf:RDF>
      <cc:Work
         rdf:about="">
        <dc:format>image/svg+xml</dc:format>
        <dc:type
           rdf:resource="http://purl.org/dc/dcmitype/StillImage" />
        <dc:title />
      </cc:Work>
    </rdf:RDF>
  </metadata>
  <g
     id="layer1"
     inkscape:label="Layer 1"
     inkscape:groupmode="layer">
    <path
       style="fill:#729fcf;fill-opacity:1;stroke:none"
       d="M 28,34 C 28,41.731986 21.731986,48 14,48 10.169976,48 0,48 0,48 0,48 0,37.901962 0,34 0,26.268014 6.2680135,20 14,20 c 7.731986,0 14,6.268014 14,14 z"
       id="path3791"
       inkscape:connector-curvature="0"
       sodipodi:nodetypes="sscsss" />
    <path
       sodipodi:type="arc"
       style="fill:#3465a4;fill-opacity:1;stroke:none;opacity:0"
       id="path3862"
       sodipodi:cx="21"
       sodipodi:cy="41"
       sodipodi:rx="7"
       sodipodi:ry="7"
       d="m 28,41 a 7,7 0 1 1 -14,0 7,7 0 1 1 14,0 z" />
    <path
       d="m 28,41 a 7,7 0 1 1 -14,0 7,7 0 1 1 14,0 z"
       sodipodi:ry="7"
       sodipodi:rx="7"
       sodipodi:cy="41"
       sodipodi:cx="21"
       id="path3866"
       style="fill:#3465a4;fill-opacity:1;stroke:none;opacity:0"
       sodipodi:type="arc"
       transform="translate(0,-14)" />
    <path
       transform="translate(-14,0)"
       sodipodi:type="arc"
       style="fill:#3465a4;fill-opacity:1;stroke:none;opacity:0"
       id="path3868"
       sodipodi:cx="21"
       sodipodi:cy="41"
       sodipodi:rx="7"
       sodipodi:ry="7"
       d="m 28,41 a 7,7 0 1 1 -14,0 7,7 0 1 1 14,0 z" />
    <path
       d="m 28,41 a 7,7 0 1 1 -14,0 7,7 0 1 1 14,0 z"
       sodipodi:ry="7"
       sodipodi:rx="7"
       sodipodi:cy="41"
       sodipodi:cx="21"
       id="path3874"
       style="fill:#3465a4;fill-opacity:1;stroke:none;opacity:0"
       sodipodi:type="arc"
       transform="translate(-7,-7)" />
    <path
       d="m 16.050252,34 a 2.0502524,2.0502524 0 1 1 -4.100504,0 2.0502524,2.0502524 0 1 1 4.100504,0 z"
       sodipodi:ry="2.0502524"
       sodipodi:rx="2.0502524"
       sodipodi:cy="34"
       sodipodi:cx="14"
       id="path3886"
       style="opacity:0;fill:#3465a4;fill-opacity:1;stroke:none"
       sodipodi:type="arc"
       transform="translate(9.0502524,-9.0502524)" />
    <path
       d="m 16.050252,34 a 2.0502524,2.0502524 0 1 1 -4.100504,0 2.0502524,2.0502524 0 1 1 4.100504,0 z"
       sodipodi:ry="2.0502524"
       sodipodi:rx="2.0502524"
       sodipodi:cy="34"
       sodipodi:cx="14"
       id="path3012"
       style="fill:#2e3436;fill-opacity:1;stroke:none"
       sodipodi:type="arc"
       transform="translate(-2.0502524,-7)" />
    <path
       transform="translate(-14,0)"
       style="fill:#204a87;fill-opacity:1;stroke:none"
       d="m 28,41 c 0,3.865993 -3.134007,7 -7,7 -1.839782,0 -7,0 -7,0 0,0 0,-4.973789 0,-7 0,-3.865993 3.134007,-7 7,-7 3.865993,0 7,3.134007 7,7 z"
       id="path3782"
       inkscape:connector-curvature="0"
       sodipodi:nodetypes="sscsss" />
    <path
       transform="matrix(1.9509793,0,0,1.9509793,-4.2634578,-41.383549)"
       style="fill:#fce94f;fill-opacity:1;stroke:none"
       d="m 16.050252,34 c 0,1.132323 -0.917929,2.050252 -2.050252,2.050252 -1.132323,0 -2.050252,-0.917929 -2.050252,-2.050252 0,-1.132323 0.917929,-2.050252 2.050252,-2.050252 0.634908,0 2.024495,0.02576 2.024495,0.02576 0,0 0.02576,1.527083 0.02576,2.024495 z"
       id="path3788"
       inkscape:connector-curvature="0"
       sodipodi:nodetypes="sssscs" />
    <path
       style="fill:#eeeeec;stroke:none"
       d="m 14,48 c 0,0 0,-3.06129 0,-7 0,-3.93871 3.09853,-7 7,-7 3.90147,0 7,0 7,0 -0.177386,8.572767 -7,14 -14,14 z"
       id="path3797"
       inkscape:connector-curvature="0"
       sodipodi:nodetypes="czzcc" />
    <path
       transform="translate(-7.5,-28)"
       style="fill:#eeeeec;fill-opacity:1;stroke:none;stroke-opacity:1"
       d="m 48,41.5 c 0,3.589851 -2.910149,6.5 -6.5,6.5 -1.574478,0 -6.497184,-0.0056 -6.497184,-0.0056 0,0 -0.0028,-4.478996 -0.0028,-6.494369 0,-3.589851 2.910149,-6.5 6.5,-6.5 3.589851,0 6.5,2.910149 6.5,6.5 z"
       id="path3803"
       inkscape:connector-curvature="0"
       sodipodi:nodetypes="sscsss" />
    <path
       transform="translate(4,-18)"
       sodipodi:type="arc"
       style="opacity:0;fill:#3465a4;fill-opacity:1;stroke:none"
       id="path3805"
       sodipodi:cx="21"
       sodipodi:cy="41"
       sodipodi:rx="7"
       sodipodi:ry="7"
       d="m 28,41 a 7,7 0 1 1 -14,0 7,7 0 1 1 14,0 z" />
  </g>
</svg>
