<?xml version="1.0" encoding="UTF-8" standalone="no"?>
<!-- Created with Inkscape (http://www.inkscape.org/) -->

<svg
   xmlns:dc="http://purl.org/dc/elements/1.1/"
   xmlns:cc="http://creativecommons.org/ns#"
   xmlns:rdf="http://www.w3.org/1999/02/22-rdf-syntax-ns#"
   xmlns:svg="http://www.w3.org/2000/svg"
   xmlns="http://www.w3.org/2000/svg"
   xmlns:xlink="http://www.w3.org/1999/xlink"
   xmlns:sodipodi="http://sodipodi.sourceforge.net/DTD/sodipodi-0.dtd"
   xmlns:inkscape="http://www.inkscape.org/namespaces/inkscape"
   width="48px"
   height="48px"
   id="svg2993"
   version="1.1"
   inkscape:version="0.48.4 r9939"
   sodipodi:docname="corebird.svg"
   inkscape:export-filename="/home/karl/corebird_icon/corebird_x_large.png"
   inkscape:export-xdpi="480"
   inkscape:export-ydpi="480">
  <defs
     id="defs2995">
    <linearGradient
       id="linearGradient3882">
      <stop
         style="stop-color:#babdb6;stop-opacity:1;"
         offset="0"
         id="stop3884" />
      <stop
         style="stop-color:#eeeeec;stop-opacity:1;"
         offset="1"
         id="stop3886" />
    </linearGradient>
    <linearGradient
       id="linearGradient3872">
      <stop
         id="stop3880"
         offset="0"
         style="stop-color:#e0e2dd;stop-opacity:1;" />
      <stop
         style="stop-color:#eeeeec;stop-opacity:1;"
         offset="1"
         id="stop3876" />
    </linearGradient>
    <inkscape:path-effect
       effect="skeletal"
       id="path-effect3861"
       is_visible="true"
       pattern="M 0,5 C 0,2.24 2.24,0 5,0 7.76,0 10,2.24 10,5 10,7.76 7.76,10 5,10 2.24,10 0,7.76 0,5 z"
       copytype="single_stretched"
       prop_scale="1"
       scale_y_rel="false"
       spacing="0"
       normal_offset="0"
       tang_offset="0"
       prop_units="false"
       vertical_pattern="false"
       fuse_tolerance="0" />
    <inkscape:path-effect
       effect="skeletal"
       id="path-effect3857"
       is_visible="true"
       pattern="M 0,5 C 0,2.24 2.24,0 5,0 7.76,0 10,2.24 10,5 10,7.76 7.76,10 5,10 2.24,10 0,7.76 0,5 z"
       copytype="single_stretched"
       prop_scale="1"
       scale_y_rel="false"
       spacing="0"
       normal_offset="0"
       tang_offset="0"
       prop_units="false"
       vertical_pattern="false"
       fuse_tolerance="0" />
    <inkscape:path-effect
       effect="skeletal"
       id="path-effect3853"
       is_visible="true"
       pattern="M 0,5 C 0,2.24 2.24,0 5,0 7.76,0 10,2.24 10,5 10,7.76 7.76,10 5,10 2.24,10 0,7.76 0,5 z"
       copytype="single_stretched"
       prop_scale="1"
       scale_y_rel="false"
       spacing="0"
       normal_offset="0"
       tang_offset="0"
       prop_units="false"
       vertical_pattern="false"
       fuse_tolerance="0" />
    <inkscape:path-effect
       effect="skeletal"
       id="path-effect3849"
       is_visible="true"
       pattern="M 0,5 C 0,2.24 2.24,0 5,0 7.76,0 10,2.24 10,5 10,7.76 7.76,10 5,10 2.24,10 0,7.76 0,5 z"
       copytype="single_stretched"
       prop_scale="1"
       scale_y_rel="false"
       spacing="0"
       normal_offset="0"
       tang_offset="0"
       prop_units="false"
       vertical_pattern="false"
       fuse_tolerance="0" />
    <inkscape:path-effect
       effect="skeletal"
       id="path-effect3845"
       is_visible="true"
       pattern="M 0,5 C 0,2.24 2.24,0 5,0 7.76,0 10,2.24 10,5 10,7.76 7.76,10 5,10 2.24,10 0,7.76 0,5 z"
       copytype="single_stretched"
       prop_scale="1"
       scale_y_rel="false"
       spacing="0"
       normal_offset="0"
       tang_offset="0"
       prop_units="false"
       vertical_pattern="false"
       fuse_tolerance="0" />
    <inkscape:path-effect
       effect="skeletal"
       id="path-effect3841"
       is_visible="true"
       pattern="M 0,5 C 0,2.24 2.24,0 5,0 7.76,0 10,2.24 10,5 10,7.76 7.76,10 5,10 2.24,10 0,7.76 0,5 z"
       copytype="single_stretched"
       prop_scale="1"
       scale_y_rel="false"
       spacing="0"
       normal_offset="0"
       tang_offset="0"
       prop_units="false"
       vertical_pattern="false"
       fuse_tolerance="0" />
    <linearGradient
       id="linearGradient4114">
      <stop
         style="stop-color:#edd400;stop-opacity:1;"
         offset="0"
         id="stop4116" />
      <stop
         style="stop-color:#fce94f;stop-opacity:1;"
         offset="1"
         id="stop4118" />
    </linearGradient>
    <linearGradient
       id="linearGradient3939">
      <stop
         style="stop-color:#ef2929;stop-opacity:1;"
         offset="0"
         id="stop3941" />
      <stop
         style="stop-color:#cc0000;stop-opacity:1;"
         offset="1"
         id="stop3943" />
    </linearGradient>
    <linearGradient
       inkscape:collect="always"
       id="linearGradient3820">
      <stop
         style="stop-color:#eeeeec;stop-opacity:1;"
         offset="0"
         id="stop3822" />
      <stop
         style="stop-color:#eeeeec;stop-opacity:0;"
         offset="1"
         id="stop3824" />
    </linearGradient>
    <linearGradient
       id="linearGradient3903">
      <stop
         style="stop-color:#eeeeec;stop-opacity:1;"
         offset="0"
         id="stop3905" />
      <stop
         style="stop-color:#ffffff;stop-opacity:0;"
         offset="1"
         id="stop3907" />
    </linearGradient>
    <linearGradient
       id="linearGradient3891">
      <stop
         style="stop-color:#2e3436;stop-opacity:1;"
         offset="0"
         id="stop3893" />
      <stop
         style="stop-color:#eeeeec;stop-opacity:1;"
         offset="1"
         id="stop3895" />
    </linearGradient>
    <linearGradient
       id="linearGradient3883">
      <stop
         style="stop-color:#2e3436;stop-opacity:1;"
         offset="0"
         id="stop3885" />
      <stop
         style="stop-color:#2e3436;stop-opacity:0;"
         offset="1"
         id="stop3887" />
    </linearGradient>
    <linearGradient
       id="linearGradient3801">
      <stop
         style="stop-color:#f57900;stop-opacity:1;"
         offset="0"
         id="stop3803" />
      <stop
         style="stop-color:#fcaf3e;stop-opacity:1;"
         offset="1"
         id="stop3805" />
    </linearGradient>
    <linearGradient
       id="linearGradient3784">
      <stop
         style="stop-color:#3465a4;stop-opacity:1;"
         offset="0"
         id="stop3786" />
      <stop
         style="stop-color:#729fcf;stop-opacity:1;"
         offset="1"
         id="stop3788" />
    </linearGradient>
    <linearGradient
       inkscape:collect="always"
       xlink:href="#linearGradient3784"
       id="linearGradient3790"
       x1="2.5152447"
       y1="44.203506"
       x2="2.5152447"
       y2="17.140245"
       gradientUnits="userSpaceOnUse"
       gradientTransform="translate(0.49999989,-3.2046016)" />
    <linearGradient
       inkscape:collect="always"
       xlink:href="#linearGradient3801"
       id="linearGradient3808"
       gradientUnits="userSpaceOnUse"
       gradientTransform="matrix(0.680266,0,0,0.680266,7.6736159,16.611386)"
       x1="24"
       y1="39.079735"
       x2="23.870068"
       y2="31.378603" />
    <radialGradient
       inkscape:collect="always"
       xlink:href="#linearGradient3820"
       id="radialGradient3828"
       cx="23.092535"
       cy="31.611088"
       fx="23.092535"
       fy="31.611088"
       r="3.8260677"
       gradientTransform="matrix(1.1357593,-1.0980123,0.91946455,0.95107352,-31.292836,32.150952)"
       gradientUnits="userSpaceOnUse"
       spreadMethod="reflect" />
    <linearGradient
       inkscape:collect="always"
       xlink:href="#linearGradient4114"
       id="linearGradient3024"
       gradientUnits="userSpaceOnUse"
       gradientTransform="matrix(1.0580861,0,0,0.57877517,-1.3790713,12.848684)"
       x1="24"
       y1="39.079735"
       x2="24"
       y2="28.00037" />
    <filter
       inkscape:collect="always"
       id="filter3842"
       x="-0.11535844"
       width="1.2307169"
       y="-0.17119856"
       height="1.3423971">
      <feGaussianBlur
         inkscape:collect="always"
         stdDeviation="0.57064672"
         id="feGaussianBlur3844" />
    </filter>
    <linearGradient
       inkscape:collect="always"
       xlink:href="#linearGradient3939"
       id="linearGradient4031"
       gradientUnits="userSpaceOnUse"
       x1="25.064787"
       y1="7.3588114"
       x2="25.064787"
       y2="16.55802" />
    <linearGradient
       inkscape:collect="always"
       xlink:href="#linearGradient3939"
       id="linearGradient4033"
       gradientUnits="userSpaceOnUse"
       x1="18.939787"
       y1="9.9213114"
       x2="18.939787"
       y2="19.171347" />
    <linearGradient
       inkscape:collect="always"
       xlink:href="#linearGradient3939"
       id="linearGradient4035"
       gradientUnits="userSpaceOnUse"
       x1="11.439787"
       y1="9.9213114"
       x2="11.439787"
       y2="19.186241" />
    <linearGradient
       inkscape:collect="always"
       xlink:href="#linearGradient3939"
       id="linearGradient4043"
       gradientUnits="userSpaceOnUse"
       x1="7.3147864"
       y1="5.6713114"
       x2="7.3147864"
       y2="14.694808" />
    <linearGradient
       inkscape:collect="always"
       xlink:href="#linearGradient4114"
       id="linearGradient4128"
       x1="24.014996"
       y1="35.467068"
       x2="24.014996"
       y2="27.484993"
       gradientUnits="userSpaceOnUse" />
  </defs>
  <sodipodi:namedview
     id="base"
     pagecolor="#ffffff"
     bordercolor="#666666"
     borderopacity="1.0"
     inkscape:pageopacity="0.0"
     inkscape:pageshadow="2"
     inkscape:zoom="16"
     inkscape:cx="19.011736"
     inkscape:cy="13.682872"
     inkscape:current-layer="layer1"
     showgrid="true"
     inkscape:grid-bbox="true"
     inkscape:document-units="px"
     inkscape:snap-bbox="true"
     inkscape:bbox-paths="true"
     inkscape:bbox-nodes="true"
     inkscape:snap-bbox-edge-midpoints="true"
     inkscape:snap-bbox-midpoints="true"
     inkscape:snap-page="true"
     inkscape:snap-global="false"
     showguides="true"
     inkscape:guide-bbox="true"
     inkscape:object-paths="true"
     inkscape:snap-intersection-paths="true"
     inkscape:object-nodes="true"
     inkscape:snap-smooth-nodes="true"
     inkscape:snap-midpoints="true"
     inkscape:window-width="1491"
     inkscape:window-height="762"
     inkscape:window-x="88"
     inkscape:window-y="66"
     inkscape:window-maximized="0"
     inkscape:snap-object-midpoints="true"
     inkscape:snap-center="true" />
  <metadata
     id="metadata2998">
    <rdf:RDF>
      <cc:Work
         rdf:about="">
        <dc:format>image/svg+xml</dc:format>
        <dc:type
           rdf:resource="http://purl.org/dc/dcmitype/StillImage" />
        <dc:title />
      </cc:Work>
    </rdf:RDF>
  </metadata>
  <g
     id="layer1"
     inkscape:label="Layer 1"
     inkscape:groupmode="layer">
    <g
       id="g3904"
       style="stroke:#a40000;stroke-opacity:1;stroke-width:2;stroke-miterlimit:4;stroke-dasharray:none">
      <path
         sodipodi:type="arc"
         style="fill:url(#linearGradient4031);fill-opacity:1;stroke:#a40000;stroke-opacity:1;stroke-width:2;stroke-miterlimit:4;stroke-dasharray:none"
         id="path3906"
         sodipodi:cx="15.114408"
         sodipodi:cy="15.296311"
         sodipodi:rx="7.4246211"
         sodipodi:ry="6.0987959"
         d="m 22.539029,15.296311 c 0,3.368272 -3.324116,6.098796 -7.424621,6.098796 -4.100505,0 -7.4246216,-2.730524 -7.4246216,-6.098796 0,-3.368272 3.3241166,-6.0987955 7.4246216,-6.0987955 4.100505,0 7.424621,2.7305235 7.424621,6.0987955 z"
         transform="translate(-0.0392136,-0.3106602)" />
      <path
         d="m 22.539029,15.296311 a 7.4246211,6.0987959 0 1 1 -14.8492426,0 7.4246211,6.0987959 0 1 1 14.8492426,0 z"
         sodipodi:ry="6.0987959"
         sodipodi:rx="7.4246211"
         sodipodi:cy="15.296311"
         sodipodi:cx="15.114408"
         id="path3908"
         style="fill:url(#linearGradient4033);fill-opacity:1;stroke:#a40000;stroke-opacity:1;stroke-width:2;stroke-miterlimit:4;stroke-dasharray:none"
         sodipodi:type="arc"
         transform="translate(5.8620119,-3.197735)" />
      <path
         transform="translate(14.161633,-3.322735)"
         sodipodi:type="arc"
         style="fill:url(#linearGradient4035);fill-opacity:1;stroke:#a40000;stroke-opacity:1;stroke-width:2;stroke-miterlimit:4;stroke-dasharray:none"
         id="path3910"
         sodipodi:cx="15.114408"
         sodipodi:cy="15.296311"
         sodipodi:rx="7.4246211"
         sodipodi:ry="6.0987959"
         d="m 22.539029,15.296311 c 0,3.368272 -3.324116,6.098796 -7.424621,6.098796 -4.100505,0 -7.4246216,-2.730524 -7.4246216,-6.098796 0,-3.368272 3.3241166,-6.0987955 7.4246216,-6.0987955 4.100505,0 7.424621,2.7305235 7.424621,6.0987955 z" />
      <path
         d="m 22.539029,15.296311 c 0,3.368272 -3.324116,6.098796 -7.424621,6.098796 -4.100505,0 -7.4246216,-2.730524 -7.4246216,-6.098796 0,-3.368272 3.3241166,-6.0987955 7.4246216,-6.0987955 4.100505,0 7.424621,2.7305235 7.424621,6.0987955 z"
         sodipodi:ry="6.0987959"
         sodipodi:rx="7.4246211"
         sodipodi:cy="15.296311"
         sodipodi:cx="15.114408"
         id="path3912"
         style="fill:url(#linearGradient4043);fill-opacity:1;stroke:#a40000;stroke-opacity:1;stroke-width:2;stroke-miterlimit:4;stroke-dasharray:none"
         sodipodi:type="arc"
         transform="translate(17.744981,1.5347834)" />
    </g>
    <g
       id="g4045">
      <path
         transform="translate(-0.0392136,-0.3106602)"
         d="m 22.539029,15.296311 c 0,3.368272 -3.324116,6.098796 -7.424621,6.098796 -4.100505,0 -7.4246216,-2.730524 -7.4246216,-6.098796 0,-3.368272 3.3241166,-6.0987955 7.4246216,-6.0987955 4.100505,0 7.424621,2.7305235 7.424621,6.0987955 z"
         sodipodi:ry="6.0987959"
         sodipodi:rx="7.4246211"
         sodipodi:cy="15.296311"
         sodipodi:cx="15.114408"
         id="path3796"
         style="fill:url(#linearGradient4031);fill-opacity:1;stroke:none"
         sodipodi:type="arc" />
      <path
         transform="translate(5.8620119,-3.197735)"
         sodipodi:type="arc"
         style="fill:url(#linearGradient4033);fill-opacity:1;stroke:none"
         id="path3798"
         sodipodi:cx="15.114408"
         sodipodi:cy="15.296311"
         sodipodi:rx="7.4246211"
         sodipodi:ry="6.0987959"
         d="m 22.539029,15.296311 a 7.4246211,6.0987959 0 1 1 -14.8492426,0 7.4246211,6.0987959 0 1 1 14.8492426,0 z" />
      <path
         d="m 22.539029,15.296311 c 0,3.368272 -3.324116,6.098796 -7.424621,6.098796 -4.100505,0 -7.4246216,-2.730524 -7.4246216,-6.098796 0,-3.368272 3.3241166,-6.0987955 7.4246216,-6.0987955 4.100505,0 7.424621,2.7305235 7.424621,6.0987955 z"
         sodipodi:ry="6.0987959"
         sodipodi:rx="7.4246211"
         sodipodi:cy="15.296311"
         sodipodi:cx="15.114408"
         id="path3800"
         style="fill:url(#linearGradient4035);fill-opacity:1;stroke:none"
         sodipodi:type="arc"
         transform="translate(14.161633,-3.322735)" />
      <path
         transform="translate(17.744981,1.5347834)"
         sodipodi:type="arc"
         style="fill:url(#linearGradient4043);fill-opacity:1;stroke:none"
         id="path3802"
         sodipodi:cx="15.114408"
         sodipodi:cy="15.296311"
         sodipodi:rx="7.4246211"
         sodipodi:ry="6.0987959"
         d="m 22.539029,15.296311 c 0,3.368272 -3.324116,6.098796 -7.424621,6.098796 -4.100505,0 -7.4246216,-2.730524 -7.4246216,-6.098796 0,-3.368272 3.3241166,-6.0987955 7.4246216,-6.0987955 4.100505,0 7.424621,2.7305235 7.424621,6.0987955 z" />
    </g>
    <path
       style="fill:url(#linearGradient3790);fill-opacity:1;stroke:#204a87;stroke-width:1.15701044;stroke-linecap:square;stroke-linejoin:round;stroke-miterlimit:4;stroke-opacity:1;stroke-dasharray:none"
       d="m 5.3749998,14.514153 c -1.1332699,2.290842 -1.7812499,4.829348 -1.7812499,7.5 0,10.173911 9.1277691,18.40625 20.4062501,18.40625 11.278481,0 20.40625,-8.232339 20.40625,-18.40625 0,-2.670652 -0.64798,-5.209158 -1.78125,-7.5 l -37.25,0 z"
       id="path3006"
       inkscape:connector-curvature="0" />
    <path
       d="m 24.014995,28.280644 0,7.981915 c 0,0 -4.232344,-1.15755 -5.743895,-4.795565 -1.511552,-3.638016 5.743895,-3.18635 5.743895,-3.18635 z m 0,-1.56e-4 0,7.982073 c 0,0 4.332241,-1.145562 5.743895,-4.795565 1.378969,-3.565495 -5.743895,-3.18651 -5.743895,-3.186508 z"
       style="fill:#000000;fill-opacity:1;stroke:none;opacity:0.77739725999999998;filter:url(#filter3842)"
       id="path3824"
       inkscape:connector-curvature="0"
       sodipodi:nodetypes="ccscccsc" />
    <path
       d="m 24.014995,27.485149 0,7.981915 c 0,0 -4.232344,-1.15755 -5.743895,-4.795565 -1.511552,-3.638016 5.743895,-3.18635 5.743895,-3.18635 z m 0,-1.56e-4 0,7.982073 c 0,0 4.332241,-1.145562 5.743895,-4.795565 1.378969,-3.565495 -5.743895,-3.18651 -5.743895,-3.186508 z"
       style="fill:url(#linearGradient3024);fill-opacity:1;stroke:#c4a000;stroke-linejoin:round"
       id="path3026"
       inkscape:connector-curvature="0"
       sodipodi:nodetypes="ccscccsc" />
    <path
       sodipodi:nodetypes="ccscccsc"
       inkscape:connector-curvature="0"
       id="path3037"
       style="fill:url(#linearGradient4128);fill-opacity:1;stroke:none"
       d="m 24.014995,27.485149 0,7.981915 c 0,0 -4.232344,-1.15755 -5.743895,-4.795565 -1.511552,-3.638016 5.743895,-3.18635 5.743895,-3.18635 z m 0,-1.56e-4 0,7.982073 c 0,0 4.332241,-1.145562 5.743895,-4.795565 1.378969,-3.565495 -5.743895,-3.18651 -5.743895,-3.186508 z" />
    <path
       inkscape:connector-curvature="0"
       id="path3049"
       d="m 31.985174,18.858828 c -0.85178,0.443881 -0.162118,1.864051 -0.0645,2.160044 0.361312,1.095539 1.891886,2.387087 4.163522,2.060795 2.271636,-0.326292 3.344125,-1.005847 3.07426,-3.018623 -0.0538,-0.40127 -0.05673,-0.385498 -0.403472,-1.431318 -0.346736,-1.04582 -5.918031,-0.214779 -6.769811,0.229102 z"
       style="fill:#eeeeec;fill-opacity:1;stroke:#eeeeec;stroke-width:0.98292607;stroke-opacity:1"
       sodipodi:nodetypes="zssszz" />
    <path
       transform="matrix(0.26776442,0,0,0.33060709,32.436901,24.897003)"
       d="m 16.125,-11.875 a 7.5625,6.125 0 1 1 -15.125,0 7.5625,6.125 0 1 1 15.125,0 z"
       sodipodi:ry="6.125"
       sodipodi:rx="7.5625"
       sodipodi:cy="-11.875"
       sodipodi:cx="8.5625"
       id="path4069"
       style="fill:#2e3436;fill-opacity:1;stroke:none"
       sodipodi:type="arc" />
    <g
       id="g3831">
      <path
         inkscape:connector-curvature="0"
         id="path3896"
         d="m 16.701701,18.854055 c 0.952335,0.496283 0.181257,2.084108 0.07212,2.415043 -0.403966,1.224871 -2.115228,2.668889 -4.655037,2.304078 -2.5398091,-0.364812 -3.7389083,-1.12459 -3.4371848,-3.37498 0.060157,-0.448641 0.063429,-0.431007 0.4511032,-1.600289 0.3876684,-1.169282 6.6166706,-0.240134 7.5690056,0.256148 z"
         style="fill:#eeeeec;fill-opacity:1;stroke:#eeeeec;stroke-width:1.09896313999999995;stroke-opacity:1"
         sodipodi:nodetypes="zssszz" />
      <path
         transform="matrix(-0.25869889,0,0,0.33060709,15.652439,24.888466)"
         d="m 16.125,-11.875 a 7.5625,6.125 0 1 1 -15.125,0 7.5625,6.125 0 1 1 15.125,0 z"
         sodipodi:ry="6.125"
         sodipodi:rx="7.5625"
         sodipodi:cy="-11.875"
         sodipodi:cx="8.5625"
         id="path3898"
         style="fill:#2e3436;fill-opacity:1;stroke:none"
         sodipodi:type="arc" />
    </g>
    <g
       id="g3048"
       transform="matrix(-1,0,0,1,48.215055,-0.02777625)"
       style="opacity:1">
      <path
         sodipodi:nodetypes="zssszz"
         style="fill:#eeeeec;fill-opacity:1;stroke:#eeeeec;stroke-width:1.09896313999999995;stroke-opacity:1"
         d="m 16.701701,18.854055 c 0.952335,0.496283 0.181257,2.084108 0.07212,2.415043 -0.403966,1.224871 -2.115228,2.668889 -4.655037,2.304078 -2.5398091,-0.364812 -3.7389083,-1.12459 -3.4371848,-3.37498 0.060157,-0.448641 0.063429,-0.431007 0.4511032,-1.600289 0.3876684,-1.169282 6.6166706,-0.240134 7.5690056,0.256148 z"
         id="path3050"
         inkscape:connector-curvature="0" />
      <path
         sodipodi:type="arc"
         style="fill:#2e3436;fill-opacity:1;stroke:none"
         id="path3052"
         sodipodi:cx="8.5625"
         sodipodi:cy="-11.875"
         sodipodi:rx="7.5625"
         sodipodi:ry="6.125"
         d="m 16.125,-11.875 c 0,3.3827441 -3.385847,6.125 -7.5625,6.125 C 4.3858466,-5.75 1,-8.4922559 1,-11.875 1,-15.257744 4.3858466,-18 8.5625,-18 c 4.176653,0 7.5625,2.742256 7.5625,6.125 z"
         transform="matrix(-0.25869889,0,0,0.33060709,15.652439,24.888466)" />
    </g>
  </g>
</svg>
