<?xml version="1.0" encoding="UTF-8" standalone="no"?>
<!-- Created with Inkscape (http://www.inkscape.org/) -->

<svg
   xmlns:dc="http://purl.org/dc/elements/1.1/"
   xmlns:cc="http://creativecommons.org/ns#"
   xmlns:rdf="http://www.w3.org/1999/02/22-rdf-syntax-ns#"
   xmlns:svg="http://www.w3.org/2000/svg"
   xmlns="http://www.w3.org/2000/svg"
   xmlns:xlink="http://www.w3.org/1999/xlink"
   xmlns:sodipodi="http://sodipodi.sourceforge.net/DTD/sodipodi-0.dtd"
   xmlns:inkscape="http://www.inkscape.org/namespaces/inkscape"
   version="1.0"
   width="96"
   height="96"
   id="svg2408"
   inkscape:version="0.48.4 r9939"
   sodipodi:docname="corebird_minimal_draft.svg"
   inkscape:export-filename="/home/baedert/corebird_test.png"
   inkscape:export-xdpi="120"
   inkscape:export-ydpi="120">
  <sodipodi:namedview
     pagecolor="#ffffff"
     bordercolor="#666666"
     borderopacity="1"
     objecttolerance="10"
     gridtolerance="10"
     guidetolerance="10"
     inkscape:pageopacity="0"
     inkscape:pageshadow="2"
     inkscape:window-width="1312"
     inkscape:window-height="956"
     id="namedview3169"
     showgrid="false"
     inkscape:zoom="8.7349537"
     inkscape:cx="49.360614"
     inkscape:cy="44.17553"
     inkscape:window-x="589"
     inkscape:window-y="24"
     inkscape:window-maximized="0"
     inkscape:current-layer="svg2408" />
  <defs
     id="defs2410">
    <linearGradient
       id="linearGradient4251">
      <stop
         style="stop-color:#ffffff;stop-opacity:0.47345132;"
         offset="0"
         id="stop4253" />
      <stop
         style="stop-color:#ffffff;stop-opacity:0;"
         offset="1"
         id="stop4255" />
    </linearGradient>
    <linearGradient
       id="linearGradient3771">
      <stop
         id="stop3773"
         style="stop-color:#000000;stop-opacity:1"
         offset="0" />
      <stop
         id="stop3775"
         style="stop-color:#000000;stop-opacity:0"
         offset="1" />
    </linearGradient>
    <linearGradient
       id="linearGradient3697">
      <stop
         id="stop3699"
         style="stop-color:#e6e6e6;stop-opacity:1"
         offset="0" />
      <stop
         id="stop3701"
         style="stop-color:#f5f5f5;stop-opacity:1"
         offset="1" />
    </linearGradient>
    <linearGradient
       id="linearGradient3614">
      <stop
         id="stop3616"
         style="stop-color:#6da014;stop-opacity:1"
         offset="0" />
      <stop
         id="stop3618"
         style="stop-color:#b4e844;stop-opacity:1"
         offset="1" />
    </linearGradient>
    <linearGradient
       x1="45.447727"
       y1="92.539597"
       x2="45.447727"
       y2="7.0165396"
       id="ButtonShadow"
       gradientUnits="userSpaceOnUse"
       gradientTransform="scale(1.0058652,0.994169)">
      <stop
         id="stop3750"
         style="stop-color:#000000;stop-opacity:1"
         offset="0" />
      <stop
         id="stop3752"
         style="stop-color:#000000;stop-opacity:0.58823532"
         offset="1" />
    </linearGradient>
    <linearGradient
       id="linearGradient3737">
      <stop
         id="stop3739"
         style="stop-color:#ffffff;stop-opacity:1"
         offset="0" />
      <stop
         id="stop3741"
         style="stop-color:#ffffff;stop-opacity:0"
         offset="1" />
    </linearGradient>
    <filter
       color-interpolation-filters="sRGB"
       id="filter3174">
      <feGaussianBlur
         id="feGaussianBlur3176"
         stdDeviation="1.71" />
    </filter>
    <linearGradient
       x1="36.357143"
       y1="6"
       x2="36.357143"
       y2="63.893143"
       id="linearGradient3188"
       xlink:href="#linearGradient3737"
       gradientUnits="userSpaceOnUse" />
    <filter
       x="-0.192"
       y="-0.192"
       width="1.3839999"
       height="1.3839999"
       color-interpolation-filters="sRGB"
       id="filter3794">
      <feGaussianBlur
         id="feGaussianBlur3796"
         stdDeviation="5.28" />
    </filter>
    <linearGradient
       x1="48"
       y1="20.220806"
       x2="48"
       y2="138.66119"
       id="linearGradient3613"
       xlink:href="#linearGradient3737"
       gradientUnits="userSpaceOnUse" />
    <radialGradient
       cx="48"
       cy="90.171875"
       r="42"
       fx="48"
       fy="90.171875"
       id="radialGradient3619"
       xlink:href="#linearGradient3737"
       gradientUnits="userSpaceOnUse"
       gradientTransform="matrix(1.1573129,0,0,0.99590774,-7.5510206,0.19713193)" />
    <clipPath
       id="clipPath3613">
      <rect
         width="84"
         height="84"
         rx="6"
         ry="6"
         x="6"
         y="6"
         id="rect3615"
         style="fill:#ffffff;fill-opacity:1;fill-rule:nonzero;stroke:none" />
    </clipPath>
    <linearGradient
       x1="48"
       y1="90"
       x2="48"
       y2="5.9877172"
       id="linearGradient3617"
       xlink:href="#linearGradient3614"
       gradientUnits="userSpaceOnUse" />
    <clipPath
       id="clipPath3644">
      <path
         d="m 12,96 c -3.324,0 -6,2.676 -6,6 l 0,72 c 0,3.324 2.676,6 6,6 l 72,0 c 3.324,0 6,-2.676 6,-6 l 0,-72 c 0,-3.324 -2.676,-6 -6,-6 l -72,0 z m 36,11 c 18.225397,0 33,12.08831 33,27 0,14.91169 -14.774603,27 -33,27 -2.713933,0 -5.351493,-0.27575 -7.875,-0.78125 -3.392649,3.54119 -9.783335,8.23332 -19.40625,7.1875 7.429736,-2.10018 8.999125,-8.24125 9.34375,-10.75 C 20.99976,151.84346 15,143.49844 15,134 15,119.08831 29.774603,107 48,107 z"
         inkscape:connector-curvature="0"
         id="path3646"
         style="fill:url(#linearGradient3648);fill-opacity:1;fill-rule:nonzero;stroke:none" />
    </clipPath>
    <linearGradient
       x1="48"
       y1="90"
       x2="48"
       y2="5.9877172"
       id="linearGradient3648"
       xlink:href="#linearGradient3614"
       gradientUnits="userSpaceOnUse"
       gradientTransform="translate(0,90)" />
    <filter
       x="-0.17257486"
       y="-0.18809278"
       width="1.3451498"
       height="1.3761857"
       color-interpolation-filters="sRGB"
       id="filter3678">
      <feGaussianBlur
         id="feGaussianBlur3680"
         stdDeviation="4.745809" />
    </filter>
    <linearGradient
       x1="15"
       y1="47.277454"
       x2="127.28258"
       y2="47.277454"
       id="linearGradient3777"
       xlink:href="#linearGradient3771"
       gradientUnits="userSpaceOnUse" />
    <linearGradient
       x1="50.630707"
       y1="61.373192"
       x2="50.630707"
       y2="26.422728"
       id="linearGradient3699"
       xlink:href="#linearGradient3697"
       gradientUnits="userSpaceOnUse" />
    <linearGradient
       x1="45.447727"
       y1="92.539597"
       x2="45.447727"
       y2="7.0165396"
       id="ButtonShadow-0"
       gradientUnits="userSpaceOnUse"
       gradientTransform="matrix(1.0058652,0,0,0.994169,100,0)">
      <stop
         id="stop3750-8"
         style="stop-color:#000000;stop-opacity:1"
         offset="0" />
      <stop
         id="stop3752-5"
         style="stop-color:#000000;stop-opacity:0.58823532"
         offset="1" />
    </linearGradient>
    <linearGradient
       x1="32.251034"
       y1="6.1317081"
       x2="32.251034"
       y2="90.238609"
       id="linearGradient3780"
       xlink:href="#ButtonShadow-0"
       gradientUnits="userSpaceOnUse"
       gradientTransform="matrix(1.0238095,0,0,1.0119048,-1.1428571,-98.071429)" />
    <linearGradient
       x1="32.251034"
       y1="6.1317081"
       x2="32.251034"
       y2="90.238609"
       id="linearGradient3772"
       xlink:href="#ButtonShadow-0"
       gradientUnits="userSpaceOnUse"
       gradientTransform="matrix(1.0238095,0,0,1.0119048,-1.1428571,-98.071429)" />
    <linearGradient
       x1="32.251034"
       y1="6.1317081"
       x2="32.251034"
       y2="90.238609"
       id="linearGradient3725"
       xlink:href="#ButtonShadow-0"
       gradientUnits="userSpaceOnUse"
       gradientTransform="matrix(1.0238095,0,0,1.0119048,-1.1428571,-98.071429)" />
    <linearGradient
       x1="32.251034"
       y1="6.1317081"
       x2="32.251034"
       y2="90.238609"
       id="linearGradient3721"
       xlink:href="#ButtonShadow-0"
       gradientUnits="userSpaceOnUse"
       gradientTransform="translate(0,-97)" />
    <linearGradient
       x1="32.251034"
       y1="6.1317081"
       x2="32.251034"
       y2="90.238609"
       id="linearGradient2918"
       xlink:href="#ButtonShadow-0"
       gradientUnits="userSpaceOnUse"
       gradientTransform="matrix(1.0238095,0,0,1.0119048,-1.1428571,-98.071429)" />
    <linearGradient
       inkscape:collect="always"
       xlink:href="#linearGradient3771"
       id="linearGradient3262"
       gradientUnits="userSpaceOnUse"
       x1="15"
       y1="47.277454"
       x2="127.28258"
       y2="47.277454" />
    <linearGradient
       inkscape:collect="always"
       xlink:href="#linearGradient3697"
       id="linearGradient3268"
       gradientUnits="userSpaceOnUse"
       x1="50.630707"
       y1="61.373192"
       x2="50.630707"
       y2="26.422728" />
    <radialGradient
       inkscape:collect="always"
       xlink:href="#linearGradient3737"
       id="radialGradient3275"
       gradientUnits="userSpaceOnUse"
       gradientTransform="matrix(1.1573129,0,0,0.99590774,-7.5510206,0.19713193)"
       cx="48"
       cy="90.171875"
       fx="48"
       fy="90.171875"
       r="42" />
    <linearGradient
       inkscape:collect="always"
       xlink:href="#linearGradient3737"
       id="linearGradient3278"
       gradientUnits="userSpaceOnUse"
       x1="36.357143"
       y1="6"
       x2="36.357143"
       y2="63.893143" />
    <linearGradient
       inkscape:collect="always"
       xlink:href="#linearGradient3614"
       id="linearGradient3281"
       gradientUnits="userSpaceOnUse"
       x1="48"
       y1="90"
       x2="48"
       y2="5.9877172" />
    <linearGradient
       inkscape:collect="always"
       xlink:href="#ButtonShadow-0"
       id="linearGradient3284"
       gradientUnits="userSpaceOnUse"
       gradientTransform="translate(0,-97)"
       x1="32.251034"
       y1="6.1317081"
       x2="32.251034"
       y2="90.238609" />
    <linearGradient
       inkscape:collect="always"
       xlink:href="#ButtonShadow-0"
       id="linearGradient3287"
       gradientUnits="userSpaceOnUse"
       gradientTransform="matrix(1.0238095,0,0,1.0119048,-1.1428571,-98.071429)"
       x1="32.251034"
       y1="6.1317081"
       x2="32.251034"
       y2="90.238609" />
    <linearGradient
       inkscape:collect="always"
       xlink:href="#ButtonShadow-0"
       id="linearGradient3290"
       gradientUnits="userSpaceOnUse"
       gradientTransform="matrix(1.0238095,0,0,-1.0119048,-1.1428571,98.071429)"
       x1="32.251034"
       y1="6.1317081"
       x2="32.251034"
       y2="90.238609" />
    <linearGradient
       inkscape:collect="always"
       xlink:href="#ButtonShadow-0"
       id="linearGradient3293"
       gradientUnits="userSpaceOnUse"
       gradientTransform="matrix(1.0238095,0,0,-1.0119048,-1.1428571,98.071429)"
       x1="32.251034"
       y1="6.1317081"
       x2="32.251034"
       y2="90.238609" />
    <linearGradient
       inkscape:collect="always"
       xlink:href="#ButtonShadow-0"
       id="linearGradient3296"
       gradientUnits="userSpaceOnUse"
       gradientTransform="matrix(1.0238095,0,0,-1.0119048,-1.1428571,98.071429)"
       x1="32.251034"
       y1="6.1317081"
       x2="32.251034"
       y2="90.238609" />
    <linearGradient
       inkscape:collect="always"
       xlink:href="#ButtonShadow-0"
       id="linearGradient3357"
       gradientUnits="userSpaceOnUse"
       gradientTransform="matrix(1.0238095,0,0,-1.0119048,-1.1428571,98.071429)"
       x1="32.251034"
       y1="6.1317081"
       x2="32.251034"
       y2="90.238609" />
    <linearGradient
       inkscape:collect="always"
       xlink:href="#ButtonShadow-0"
       id="linearGradient3359"
       gradientUnits="userSpaceOnUse"
       gradientTransform="matrix(1.0238095,0,0,-1.0119048,-1.1428571,98.071429)"
       x1="32.251034"
       y1="6.1317081"
       x2="32.251034"
       y2="90.238609" />
    <linearGradient
       inkscape:collect="always"
       xlink:href="#ButtonShadow-0"
       id="linearGradient3361"
       gradientUnits="userSpaceOnUse"
       gradientTransform="matrix(1.0238095,0,0,-1.0119048,-1.1428571,98.071429)"
       x1="32.251034"
       y1="6.1317081"
       x2="32.251034"
       y2="90.238609" />
    <linearGradient
       inkscape:collect="always"
       xlink:href="#ButtonShadow-0"
       id="linearGradient3363"
       gradientUnits="userSpaceOnUse"
       gradientTransform="matrix(1.0238095,0,0,1.0119048,-1.1428571,-98.071429)"
       x1="32.251034"
       y1="6.1317081"
       x2="32.251034"
       y2="90.238609" />
    <linearGradient
       inkscape:collect="always"
       xlink:href="#ButtonShadow-0"
       id="linearGradient3365"
       gradientUnits="userSpaceOnUse"
       gradientTransform="translate(0,-97)"
       x1="32.251034"
       y1="6.1317081"
       x2="32.251034"
       y2="90.238609" />
    <linearGradient
       inkscape:collect="always"
       xlink:href="#linearGradient3614"
       id="linearGradient3367"
       gradientUnits="userSpaceOnUse"
       x1="48"
       y1="90"
       x2="48"
       y2="5.9877172" />
    <linearGradient
       inkscape:collect="always"
       xlink:href="#linearGradient3737"
       id="linearGradient3369"
       gradientUnits="userSpaceOnUse"
       x1="36.357143"
       y1="6"
       x2="36.357143"
       y2="63.893143" />
    <radialGradient
       inkscape:collect="always"
       xlink:href="#linearGradient3737"
       id="radialGradient3371"
       gradientUnits="userSpaceOnUse"
       gradientTransform="matrix(1.1573129,0,0,0.99590774,-7.5510206,0.19713193)"
       cx="48"
       cy="90.171875"
       fx="48"
       fy="90.171875"
       r="42" />
    <linearGradient
       inkscape:collect="always"
       xlink:href="#linearGradient3771"
       id="linearGradient3373"
       gradientUnits="userSpaceOnUse"
       x1="15"
       y1="47.277454"
       x2="127.28258"
       y2="47.277454" />
    <linearGradient
       inkscape:collect="always"
       xlink:href="#linearGradient3697"
       id="linearGradient3375"
       gradientUnits="userSpaceOnUse"
       x1="50.630707"
       y1="61.373192"
       x2="50.630707"
       y2="26.422728" />
    <linearGradient
       inkscape:collect="always"
       xlink:href="#linearGradient3697"
       id="linearGradient3381"
       gradientUnits="userSpaceOnUse"
       x1="50.630707"
       y1="61.373192"
       x2="50.630707"
       y2="26.422728"
       gradientTransform="translate(6.4312725,-108.22913)" />
    <linearGradient
       inkscape:collect="always"
       xlink:href="#linearGradient3771"
       id="linearGradient3391"
       gradientUnits="userSpaceOnUse"
       x1="15"
       y1="47.277454"
       x2="127.28258"
       y2="47.277454"
       gradientTransform="translate(128.4417,-58.800207)" />
    <radialGradient
       inkscape:collect="always"
       xlink:href="#linearGradient3737"
       id="radialGradient3395"
       gradientUnits="userSpaceOnUse"
       gradientTransform="matrix(1.1573129,0,0,0.99590774,-1.1197481,-108.032)"
       cx="48"
       cy="90.171875"
       fx="48"
       fy="90.171875"
       r="42" />
    <linearGradient
       inkscape:collect="always"
       xlink:href="#linearGradient3737"
       id="linearGradient3398"
       gradientUnits="userSpaceOnUse"
       x1="36.357143"
       y1="6"
       x2="36.357143"
       y2="63.893143"
       gradientTransform="translate(6.4312725,-108.22913)" />
    <linearGradient
       inkscape:collect="always"
       xlink:href="#linearGradient3614"
       id="linearGradient3401"
       gradientUnits="userSpaceOnUse"
       x1="48"
       y1="90"
       x2="48"
       y2="5.9877172"
       gradientTransform="translate(6.4312725,-108.22913)" />
    <linearGradient
       inkscape:collect="always"
       xlink:href="#ButtonShadow-0"
       id="linearGradient3404"
       gradientUnits="userSpaceOnUse"
       gradientTransform="translate(6.4312725,11.22913)"
       x1="32.251034"
       y1="6.1317081"
       x2="32.251034"
       y2="90.238609" />
    <linearGradient
       inkscape:collect="always"
       xlink:href="#ButtonShadow-0"
       id="linearGradient3407"
       gradientUnits="userSpaceOnUse"
       gradientTransform="matrix(1.0238095,0,0,1.0119048,5.2884154,10.157701)"
       x1="32.251034"
       y1="6.1317081"
       x2="32.251034"
       y2="90.238609" />
    <linearGradient
       inkscape:collect="always"
       xlink:href="#ButtonShadow-0"
       id="linearGradient3410"
       gradientUnits="userSpaceOnUse"
       gradientTransform="matrix(1.0238095,0,0,-1.0119048,5.2884154,-10.157701)"
       x1="32.251034"
       y1="6.1317081"
       x2="32.251034"
       y2="90.238609" />
    <linearGradient
       inkscape:collect="always"
       xlink:href="#ButtonShadow-0"
       id="linearGradient3413"
       gradientUnits="userSpaceOnUse"
       gradientTransform="matrix(1.0238095,0,0,-1.0119048,5.2884154,-10.157701)"
       x1="32.251034"
       y1="6.1317081"
       x2="32.251034"
       y2="90.238609" />
    <linearGradient
       inkscape:collect="always"
       xlink:href="#ButtonShadow-0"
       id="linearGradient3416"
       gradientUnits="userSpaceOnUse"
       gradientTransform="matrix(1.0238095,0,0,-1.0119048,5.2884154,-10.157701)"
       x1="32.251034"
       y1="6.1317081"
       x2="32.251034"
       y2="90.238609" />
    <linearGradient
       inkscape:collect="always"
       xlink:href="#linearGradient3614"
       id="linearGradient3438"
       gradientUnits="userSpaceOnUse"
       x1="48"
       y1="90"
       x2="48"
       y2="5.9877172"
       gradientTransform="translate(101.06285,39.873889)" />
    <filter
       inkscape:collect="always"
       id="filter4232">
      <feGaussianBlur
         inkscape:collect="always"
         stdDeviation="0.17040005"
         id="feGaussianBlur4234" />
    </filter>
    <linearGradient
       inkscape:collect="always"
       xlink:href="#linearGradient3614"
       id="linearGradient4240"
       gradientUnits="userSpaceOnUse"
       gradientTransform="translate(101.06285,39.873889)"
       x1="48"
       y1="90"
       x2="48"
       y2="5.9877172" />
    <linearGradient
       inkscape:collect="always"
       xlink:href="#linearGradient3614"
       id="linearGradient4243"
       gradientUnits="userSpaceOnUse"
       gradientTransform="translate(101.06285,39.873889)"
       x1="48"
       y1="90"
       x2="48"
       y2="5.9877172" />
    <linearGradient
       inkscape:collect="always"
       xlink:href="#linearGradient3614"
       id="linearGradient4246"
       gradientUnits="userSpaceOnUse"
       gradientTransform="translate(101.06285,39.873889)"
       x1="48"
       y1="90"
       x2="48"
       y2="5.9877172" />
    <radialGradient
       inkscape:collect="always"
       xlink:href="#linearGradient4251"
       id="radialGradient4259"
       cx="156.69193"
       cy="81.32972"
       fx="156.69193"
       fy="81.32972"
       r="42"
       gradientTransform="matrix(0.92522663,0.02842156,-0.02870172,0.93434689,-96.478739,-32.259852)"
       gradientUnits="userSpaceOnUse" />
    <radialGradient
       inkscape:collect="always"
       xlink:href="#linearGradient4251"
       id="radialGradient3113"
       gradientUnits="userSpaceOnUse"
       gradientTransform="matrix(0.92522663,0.02842156,-0.02870172,0.93434689,-96.478739,-32.259852)"
       cx="156.69193"
       cy="81.32972"
       fx="156.69193"
       fy="81.32972"
       r="42" />
    <radialGradient
       inkscape:collect="always"
       xlink:href="#linearGradient3737"
       id="radialGradient3124"
       gradientUnits="userSpaceOnUse"
       gradientTransform="matrix(1.1573129,0,0,0.99590774,-7.5510206,0.19713193)"
       cx="48"
       cy="90.171875"
       fx="48"
       fy="90.171875"
       r="42" />
    <linearGradient
       inkscape:collect="always"
       xlink:href="#linearGradient3737"
       id="linearGradient3127"
       gradientUnits="userSpaceOnUse"
       x1="36.357143"
       y1="6"
       x2="36.357143"
       y2="63.893143" />
    <linearGradient
       inkscape:collect="always"
       xlink:href="#linearGradient3614"
       id="linearGradient3130"
       gradientUnits="userSpaceOnUse"
       x1="48"
       y1="90"
       x2="48"
       y2="5.9877172" />
    <linearGradient
       inkscape:collect="always"
       xlink:href="#ButtonShadow-0"
       id="linearGradient3133"
       gradientUnits="userSpaceOnUse"
       gradientTransform="translate(0,-97)"
       x1="32.251034"
       y1="6.1317081"
       x2="32.251034"
       y2="90.238609" />
    <linearGradient
       inkscape:collect="always"
       xlink:href="#ButtonShadow-0"
       id="linearGradient3136"
       gradientUnits="userSpaceOnUse"
       gradientTransform="matrix(1.0238095,0,0,1.0119048,-1.1428571,-98.071429)"
       x1="32.251034"
       y1="6.1317081"
       x2="32.251034"
       y2="90.238609" />
    <linearGradient
       inkscape:collect="always"
       xlink:href="#ButtonShadow-0"
       id="linearGradient3139"
       gradientUnits="userSpaceOnUse"
       gradientTransform="matrix(1.0238095,0,0,-1.0119048,-1.1428571,98.071429)"
       x1="32.251034"
       y1="6.1317081"
       x2="32.251034"
       y2="90.238609" />
    <linearGradient
       inkscape:collect="always"
       xlink:href="#ButtonShadow-0"
       id="linearGradient3142"
       gradientUnits="userSpaceOnUse"
       gradientTransform="matrix(1.0238095,0,0,-1.0119048,-1.1428571,98.071429)"
       x1="32.251034"
       y1="6.1317081"
       x2="32.251034"
       y2="90.238609" />
    <linearGradient
       inkscape:collect="always"
       xlink:href="#ButtonShadow-0"
       id="linearGradient3145"
       gradientUnits="userSpaceOnUse"
       gradientTransform="matrix(1.0238095,0,0,-1.0119048,-1.1428571,98.071429)"
       x1="32.251034"
       y1="6.1317081"
       x2="32.251034"
       y2="90.238609" />
  </defs>
  <metadata
     id="metadata2413">
    <rdf:RDF>
      <cc:Work
         rdf:about="">
        <dc:format>image/svg+xml</dc:format>
        <dc:type
           rdf:resource="http://purl.org/dc/dcmitype/StillImage" />
        <dc:title></dc:title>
      </cc:Work>
    </rdf:RDF>
  </metadata>
  <rect
     style="fill:#000000;fill-opacity:1;fill-rule:nonzero;stroke:none"
     id="rect4263"
     width="116.31416"
     height="107.49413"
     x="234.76918"
     y="-49.085423"
     rx="6"
     ry="6" />
  <g
     id="layer2"
     style="display:none">
    <rect
       width="86"
       height="85"
       rx="6"
       ry="6"
       x="5"
       y="7"
       id="rect3745"
       style="opacity:0.9;fill:url(#ButtonShadow);fill-opacity:1;fill-rule:nonzero;stroke:none;filter:url(#filter3174)" />
  </g>
  <path
     style="opacity:0.4;fill:#d40000;fill-opacity:1;stroke:none;display:inline"
     id="path3625"
     inkscape:connector-curvature="0"
     d="m -52,17 c -18.225397,0 -33,12.088312 -33,27 0,9.498438 5.99976,17.843462 15.0625,22.65625 -0.344625,2.508754 -1.914014,8.649817 -9.34375,10.75 9.622915,1.045823 16.013601,-3.646306 19.40625,-7.1875 C -57.351493,70.724251 -54.713933,71 -52,71 -33.774603,71 -19,58.911688 -19,44 -19,29.088312 -33.774603,17 -52,17 z" />
  <g
     id="layer5"
     style="display:none">
    <rect
       width="66"
       height="66"
       rx="12"
       ry="12"
       x="15"
       y="15"
       clip-path="url(#clipPath3613)"
       id="rect3171"
       style="opacity:0.1;fill:url(#linearGradient3613);fill-opacity:1;fill-rule:nonzero;stroke:#ffffff;stroke-width:0.5;stroke-linecap:round;stroke-linejoin:miter;stroke-miterlimit:4;stroke-opacity:1;stroke-dasharray:none;stroke-dashoffset:0;filter:url(#filter3794)" />
  </g>
  <path
     d="m 18.431272,-13.19788 c -5.51109,0 -10.0312495,-4.52016 -10.0312495,-10.03125 l 0,-71 c 0,-5.51109 4.5201595,-10.03125 10.0312495,-10.03125 l 72.000001,0 c 5.51109,0 10.031247,4.52016 10.031247,10.03125 l 0,71 c 0,5.51109 -4.520157,10.03125 -10.031247,10.03125 l -72.000001,0 z"
     id="path3298"
     style="opacity:0.07999998;fill:url(#linearGradient3416);fill-opacity:1;fill-rule:nonzero;stroke:none;display:inline"
     inkscape:connector-curvature="0" />
  <path
     d="m 18.431272,-14.19788 c -4.971632,0 -9.0312495,-4.059617 -9.0312495,-9.03125 l 0,-71 c 0,-4.971633 4.0596175,-9.03125 9.0312495,-9.03125 l 72.000001,0 c 4.971633,0 9.03125,4.059617 9.03125,9.03125 l 0,71 c 0,4.971633 -4.059617,9.03125 -9.03125,9.03125 l -72.000001,0 z"
     id="path3300"
     style="opacity:0.1;fill:url(#linearGradient3413);fill-opacity:1;fill-rule:nonzero;stroke:none;display:inline"
     inkscape:connector-curvature="0" />
  <path
     d="m 18.431272,-15.22913 c -4.409133,0 -7.999999,-3.590867 -7.999999,-8 l 0,-71 c 0,-4.409133 3.590866,-8 7.999999,-8 l 72.000001,0 c 4.409133,0 8,3.590867 8,8 l 0,71 c 0,4.409133 -3.590867,8 -8,8 l -72.000001,0 z"
     id="path3302"
     style="opacity:0.2;fill:url(#linearGradient3410);fill-opacity:1;fill-rule:nonzero;stroke:none;display:inline"
     inkscape:connector-curvature="0" />
  <rect
     width="86"
     height="85"
     rx="7"
     ry="7"
     x="11.431273"
     y="16.22913"
     transform="scale(1,-1)"
     id="rect3304"
     style="opacity:0.3;fill:url(#linearGradient3407);fill-opacity:1;fill-rule:nonzero;stroke:none;display:inline" />
  <rect
     width="84"
     height="84"
     rx="6"
     ry="6"
     x="12.431273"
     y="17.22913"
     transform="scale(1,-1)"
     id="rect3306"
     style="opacity:0.45;fill:url(#linearGradient3404);fill-opacity:1;fill-rule:nonzero;stroke:none;display:inline" />
  <rect
     width="84"
     height="84"
     rx="6"
     ry="6"
     x="12.431273"
     y="-102.22913"
     id="rect3308"
     style="fill:url(#linearGradient3401);fill-opacity:1;fill-rule:nonzero;stroke:none" />
  <path
     d="m 18.431272,-102.22913 c -3.323999,0 -5.999999,2.676 -5.999999,6 l 0,2 0,68 0,2 c 0,0.334721 0.04135,0.6507 0.09375,0.96875 0.0487,0.295596 0.09704,0.596915 0.1875,0.875 0.0099,0.03038 0.02089,0.0636 0.03125,0.09375 0.09887,0.287771 0.23488,0.547452 0.375,0.8125 0.144591,0.273507 0.315616,0.535615 0.5,0.78125 0.184383,0.245635 0.373776,0.473472 0.59375,0.6875 0.439947,0.428056 0.94291,0.814526 1.5,1.09375 0.278545,0.139612 0.573473,0.246947 0.874999,0.34375 -0.256201,-0.100222 -0.48671,-0.236272 -0.718749,-0.375 -0.0074,-0.0044 -0.02387,0.0045 -0.03125,0 -0.03193,-0.0193 -0.06229,-0.04251 -0.09375,-0.0625 -0.120395,-0.0767 -0.231023,-0.163513 -0.34375,-0.25 -0.106173,-0.0808 -0.213281,-0.161112 -0.3125,-0.25 -0.17793,-0.161433 -0.34746,-0.345388 -0.5,-0.53125 -0.107579,-0.130255 -0.218394,-0.265285 -0.3125,-0.40625 -0.02509,-0.03838 -0.03845,-0.08587 -0.0625,-0.125 -0.06476,-0.103032 -0.130228,-0.204517 -0.1875,-0.3125 -0.101009,-0.194706 -0.205675,-0.415701 -0.28125,-0.625 -0.008,-0.02181 -0.02359,-0.04055 -0.03125,-0.0625 -0.03183,-0.09195 -0.0358,-0.186831 -0.0625,-0.28125 -0.03033,-0.106618 -0.07039,-0.203031 -0.09375,-0.3125 -0.07288,-0.341512 -0.125,-0.698205 -0.125,-1.0625 l 0,-2 0,-68 0,-2 c 0,-2.781848 2.218151,-5 4.999999,-5 l 2,0 68.000001,0 2,0 c 2.781848,0 5,2.218152 5,5 l 0,2 0,68 0,2 c 0,0.364295 -0.05212,0.720988 -0.125,1.0625 -0.04415,0.206893 -0.08838,0.397658 -0.15625,0.59375 -0.0077,0.02195 -0.0233,0.04069 -0.03125,0.0625 -0.06274,0.173739 -0.138384,0.367449 -0.21875,0.53125 -0.04158,0.0828 -0.07904,0.169954 -0.125,0.25 -0.0546,0.09721 -0.126774,0.18835 -0.1875,0.28125 -0.09411,0.140965 -0.204921,0.275995 -0.3125,0.40625 -0.143174,0.17445 -0.303141,0.346998 -0.46875,0.5 -0.01117,0.0102 -0.01998,0.02115 -0.03125,0.03125 -0.138386,0.125556 -0.285091,0.234436 -0.4375,0.34375 -0.102571,0.07315 -0.204318,0.153364 -0.3125,0.21875 -0.0074,0.0045 -0.02384,-0.0044 -0.03125,0 -0.232039,0.138728 -0.462548,0.274778 -0.71875,0.375 0.301526,-0.0968 0.596455,-0.204138 0.875,-0.34375 0.55709,-0.279224 1.060053,-0.665694 1.5,-1.09375 0.219973,-0.214028 0.409366,-0.441865 0.59375,-0.6875 0.184383,-0.245635 0.355408,-0.507743 0.5,-0.78125 0.14012,-0.265048 0.276135,-0.524729 0.375,-0.8125 0.01041,-0.03078 0.02133,-0.06274 0.03125,-0.09375 0.09046,-0.278085 0.1388,-0.579404 0.1875,-0.875 0.0524,-0.31805 0.09375,-0.634029 0.09375,-0.96875 l 0,-2 0,-68 0,-2 c 0,-3.324 -2.676,-6 -6,-6 l -72.000001,0 z"
     inkscape:connector-curvature="0"
     id="path3310"
     style="opacity:0.5;fill:url(#linearGradient3398);fill-opacity:1;fill-rule:nonzero;stroke:none" />
  <path
     d="m 18.431272,-18.22913 c -3.323999,0 -5.999999,-2.676 -5.999999,-6 l 0,-2 0,-68 0,-2 c 0,-0.334721 0.04135,-0.6507 0.09375,-0.96875 0.0487,-0.295596 0.09704,-0.596915 0.1875,-0.875 0.0099,-0.03038 0.02089,-0.0636 0.03125,-0.09375 0.09887,-0.287771 0.23488,-0.547452 0.375,-0.8125 0.144591,-0.273507 0.315616,-0.535615 0.5,-0.78125 0.184383,-0.24563 0.373776,-0.47347 0.59375,-0.6875 0.439947,-0.42806 0.94291,-0.81453 1.5,-1.09375 0.278545,-0.13961 0.573473,-0.24695 0.874999,-0.34375 -0.256201,0.10022 -0.48671,0.23627 -0.718749,0.375 -0.0074,0.004 -0.02387,-0.005 -0.03125,0 -0.03193,0.0193 -0.06229,0.0425 -0.09375,0.0625 -0.120395,0.0767 -0.231023,0.16351 -0.34375,0.25 -0.106173,0.0808 -0.213281,0.16111 -0.3125,0.25 -0.17793,0.16143 -0.34746,0.34539 -0.5,0.53125 -0.107579,0.13026 -0.218394,0.26529 -0.3125,0.40625 -0.02509,0.03838 -0.03845,0.08587 -0.0625,0.125 -0.06476,0.103032 -0.130228,0.204517 -0.1875,0.3125 -0.101009,0.194706 -0.205675,0.415701 -0.28125,0.625 -0.008,0.02181 -0.02359,0.04055 -0.03125,0.0625 -0.03183,0.09195 -0.0358,0.186831 -0.0625,0.28125 -0.03033,0.106618 -0.07039,0.203031 -0.09375,0.3125 -0.07288,0.341512 -0.125,0.698205 -0.125,1.0625 l 0,2 0,68 0,2 c 0,2.781848 2.218151,5 4.999999,5 l 2,0 68.000001,0 2,0 c 2.781848,0 5,-2.218152 5,-5 l 0,-2 0,-68 0,-2 c 0,-0.364295 -0.05212,-0.720988 -0.125,-1.0625 -0.04415,-0.206893 -0.08838,-0.397658 -0.15625,-0.59375 -0.0077,-0.02195 -0.0233,-0.04069 -0.03125,-0.0625 -0.06274,-0.173739 -0.138384,-0.367449 -0.21875,-0.53125 -0.04158,-0.0828 -0.07904,-0.169954 -0.125,-0.25 -0.0546,-0.09721 -0.126774,-0.18835 -0.1875,-0.28125 -0.09411,-0.14096 -0.204921,-0.27599 -0.3125,-0.40625 -0.143174,-0.17445 -0.303141,-0.347 -0.46875,-0.5 -0.01117,-0.0102 -0.01998,-0.0212 -0.03125,-0.0312 -0.138386,-0.12556 -0.285091,-0.23444 -0.4375,-0.34375 -0.102571,-0.0731 -0.204318,-0.15336 -0.3125,-0.21875 -0.0074,-0.005 -0.02384,0.004 -0.03125,0 -0.232039,-0.13873 -0.462548,-0.27478 -0.71875,-0.375 0.301526,0.0968 0.596455,0.20414 0.875,0.34375 0.55709,0.27922 1.060053,0.66569 1.5,1.09375 0.219973,0.21403 0.409366,0.44187 0.59375,0.6875 0.184383,0.245635 0.355408,0.507743 0.5,0.78125 0.14012,0.265048 0.276135,0.524729 0.375,0.8125 0.01041,0.03078 0.02133,0.06274 0.03125,0.09375 0.09046,0.278085 0.1388,0.579404 0.1875,0.875 0.0524,0.31805 0.09375,0.634029 0.09375,0.96875 l 0,2 0,68 0,2 c 0,3.324 -2.676,6 -6,6 l -72.000001,0 z"
     inkscape:connector-curvature="0"
     id="path3312"
     style="opacity:0.2;fill:url(#radialGradient3395);fill-opacity:1;fill-rule:nonzero;stroke:none" />
  <path
     d="m 48,107 c -18.225397,0 -33,12.08831 -33,27 0,9.49844 5.99976,17.84346 15.0625,22.65625 -0.344625,2.50875 -1.914014,8.64982 -9.34375,10.75 9.622915,1.04582 16.013601,-3.64631 19.40625,-7.1875 C 42.648507,160.72425 45.286067,161 48,161 66.225397,161 81,148.91169 81,134 81,119.08831 66.225397,107 48,107 z"
     inkscape:connector-curvature="0"
     transform="translate(6.4312725,-198.22913)"
     clip-path="url(#clipPath3644)"
     id="path3314"
     style="opacity:0.2;fill:#ffffff;fill-opacity:1;stroke:none;display:inline;filter:url(#filter3678)" />
  <path
     d="m 176.4417,-41.800207 c -18.2254,0 -33,12.088312 -33,27 0,9.4984377 5.99976,17.8434617 15.0625,22.6562497 -0.34463,2.5087543 -1.91402,8.6498173 -9.34375,10.7500003 9.62291,1.045823 16.0136,-3.646306 19.40625,-7.1875 2.52351,0.505501 5.16107,0.78125 7.875,0.78125 18.2254,0 33,-12.08831228 33,-27 0,-14.911688 -14.7746,-27 -33,-27 z"
     inkscape:connector-curvature="0"
     id="path3316"
     style="opacity:0.2;fill:url(#linearGradient3391);fill-opacity:1;stroke:none;display:inline" />
  <path
     d="m 17.756259,-48.939078 c -0.0053,0.200069 0,0.392631 0,0.59375 0,9.441618 5.934255,17.73658 14.90625,22.5625 0.06714,-0.329302 0.120551,-0.646372 0.15625,-0.90625 -8.933715,-4.744269 -14.894683,-12.91964 -15.0625,-22.25 z m 66.000001,0.09375 c -0.330358,14.677737 -14.981604,26.5 -33.000001,26.5 -2.713932,0 -5.351493,-0.275749 -7.875,-0.78125 -3.113855,3.250193 -8.747725,7.449531 -17.09375,7.3125 -0.700607,0.332399 -1.466906,0.635974 -2.3125,0.875 9.622915,1.045823 16.013601,-3.646306 19.40625,-7.1875 2.523507,0.505501 5.161068,0.78125 7.875,0.78125 18.225398,0 33.000001,-12.088312 33.000001,-27 0,-0.169364 0.0038,-0.331378 0,-0.5 z"
     inkscape:connector-curvature="0"
     id="path3318"
     style="opacity:0.25;fill:#ffffff;fill-opacity:1;stroke:none;display:inline" />
  <path
     d="m 205.29055,-110.3392 c -18.2254,0 -33,12.088315 -33,27.000003 0,9.498438 5.99976,17.843462 15.0625,22.65625 -0.34463,2.508754 -1.91401,8.649817 -9.34375,10.75 9.62291,1.045823 16.0136,-3.646306 19.40625,-7.1875 2.52351,0.505501 5.16107,0.78125 7.875,0.78125 18.2254,0 33,-12.088312 33,-27 0,-14.911688 -14.7746,-27.000003 -33,-27.000003 z m 0,2.9375 c 16.92032,0 30.0625,11.100371 30.0625,24.062503 0,12.962132 -13.14218,24.0625 -30.0625,24.0625 -2.51401,0 -4.94341,-0.281692 -7.28125,-0.75 a 2.9517629,2.9517629 0 0 0 -2.71875,0.875 c -1.62088,1.691849 -4.0041,3.567605 -7.125,4.875 1.34153,-2.353896 1.93471,-4.614792 2.125,-6 a 2.9517629,2.9517629 0 0 0 -1.5625,-3 c -8.29113,-4.403022 -13.5,-11.80694 -13.5,-20.0625 0,-12.962132 13.14218,-24.062503 30.0625,-24.062503 z"
     inkscape:connector-curvature="0"
     id="path3320"
     style="opacity:0.05;fill:#000000;fill-opacity:1;stroke:none;display:inline" />
  <path
     d="m 141.89658,-64.034035 c -18.2254,0 -33,12.088312 -33,27 0,9.498438 5.99976,17.843462 15.0625,22.65625 -0.34463,2.508754 -1.91402,8.649817 -9.34375,10.75 9.62291,1.045823 16.0136,-3.646306 19.40625,-7.1875 2.5235,0.505501 5.16107,0.78125 7.875,0.78125 18.2254,0 33,-12.088312 33,-27 0,-14.911688 -14.7746,-27 -33,-27 z m 0,1.875 c 17.39322,0 31.125,11.456439 31.125,25.125 0,13.668561 -13.73178,25.125 -31.125,25.125 -2.58646,0 -5.09489,-0.268215 -7.5,-0.75 a 1.8821808,1.8821808 0 0 0 -1.71875,0.53125 c -2.22976,2.327391 -5.86212,5.104965 -10.90625,6.21875 0.60301,-0.636706 1.31987,-1.240512 1.75,-1.90625 1.57314,-2.434865 2.11594,-4.881651 2.3125,-6.3125 a 1.8821808,1.8821808 0 0 0 -1,-1.90625 c -8.57073,-4.551502 -14.0625,-12.294079 -14.0625,-21 0,-13.668561 13.73178,-25.125 31.125,-25.125 z"
     inkscape:connector-curvature="0"
     id="path3322"
     style="opacity:0.07999998;fill:#000000;fill-opacity:1;stroke:none;display:inline" />
  <path
     d="m 136.20031,-124.8555 c -18.2254,0 -33,12.08831 -33,27.000002 0,9.498438 5.99976,17.843462 15.0625,22.65625 -0.34463,2.508754 -1.91402,8.649817 -9.34375,10.75 9.62291,1.045823 16.0136,-3.646306 19.40625,-7.1875 2.5235,0.505501 5.16107,0.78125 7.875,0.78125 18.2254,0 33,-12.088312 33,-27 0,-14.911692 -14.7746,-27.000002 -33,-27.000002 z m 0,1.0625 c 17.7572,0 31.9375,11.72522 31.9375,25.937502 0,14.212283 -14.1803,25.9375 -31.9375,25.9375 -2.64221,0 -5.19936,-0.257842 -7.65625,-0.75 a 1.0589482,1.0589482 0 0 0 -0.96875,0.3125 c -2.64376,2.759512 -7.24886,6.049087 -13.78125,6.71875 1.4426,-1.037266 2.5503,-2.240676 3.34375,-3.46875 1.48173,-2.293379 2.00155,-4.583837 2.1875,-5.9375 a 1.0589482,1.0589482 0 0 0 -0.5625,-1.09375 c -8.78592,-4.665784 -14.5,-12.666196 -14.5,-21.71875 0,-14.212282 14.1803,-25.937502 31.9375,-25.937502 z"
     inkscape:connector-curvature="0"
     id="path3324"
     style="opacity:0.15;fill:#000000;fill-opacity:1;stroke:none;display:inline" />
  <path
     d="m 51.432527,-83.534131 c -1.148369,0.175617 -1.633463,1.303386 -1.776717,2.335818 -0.584844,2.367227 -1.169689,4.734455 -1.754533,7.101682 -2.383702,0.02098 -4.781011,-0.04188 -7.15625,0.03125 -1.182815,0.214906 -1.739885,1.465459 -1.5625,2.576104 0.04144,1.669205 -0.08311,3.365346 0.0625,5.017646 0.251022,1.193859 1.558543,1.633737 2.656496,1.46875 1.218668,0 2.437336,0 3.656004,0 -0.239583,0.9375 -0.479166,1.875 -0.71875,2.8125 -2.32985,0.0423 -4.6871,-0.08425 -7,0.0625 -1.193858,0.251022 -1.633736,1.558543 -1.46875,2.656496 0.04249,1.652654 -0.08462,3.332829 0.0625,4.968504 0.251022,1.193859 1.558543,1.633737 2.656497,1.46875 1.187417,0 2.374835,0 3.562253,0 -0.588247,2.470387 -1.301519,4.928271 -1.8125,7.40625 -0.06943,1.301788 1.285116,2.180678 2.495711,1.96875 1.842959,-0.05369 3.707719,0.112817 5.535539,-0.09375 1.47237,-0.52632 1.3666,-2.291824 1.789529,-3.541681 0.476408,-1.91319 0.952815,-3.826379 1.429221,-5.739569 0.833334,0 1.666667,0 2.5,0 -0.588247,2.470387 -1.301519,4.928271 -1.8125,7.40625 -0.06943,1.301788 1.285116,2.180678 2.495711,1.96875 1.821961,-0.05534 3.666294,0.11524 5.473039,-0.09375 1.47237,-0.52632 1.3666,-2.291824 1.789529,-3.541681 0.476408,-1.91319 0.952815,-3.826379 1.429221,-5.739569 2.362792,-0.02146 4.739452,0.04254 7.093751,-0.03125 1.182816,-0.214906 1.739885,-1.465459 1.5625,-2.576104 -0.04252,-1.689862 0.08466,-3.407264 -0.0625,-5.080146 -0.251023,-1.193859 -1.558543,-1.633737 -2.656496,-1.46875 -1.229085,0 -2.458169,0 -3.687254,0 0.239583,-0.9375 0.479166,-1.875 0.71875,-2.8125 2.34035,-0.04178 4.707816,0.08353 7.03125,-0.0625 1.193859,-0.251022 1.633737,-1.558543 1.46875,-2.656496 -0.04138,-1.632 0.08304,-3.290907 -0.0625,-4.906004 -0.251023,-1.193859 -1.558543,-1.633737 -2.656496,-1.46875 -1.177002,0 -2.354004,0 -3.531005,0 0.599133,-2.491216 1.323085,-4.969594 1.84375,-7.46875 0.06943,-1.301788 -1.285116,-2.180678 -2.495711,-1.96875 -1.821961,0.05534 -3.666293,-0.11524 -5.473039,0.09375 -1.471362,0.526572 -1.367662,2.291558 -1.793543,3.540678 -0.485485,1.934357 -0.970971,3.868715 -1.456457,5.803072 -0.833333,0 -1.666667,0 -2.5,0 0.599133,-2.491216 1.323085,-4.969594 1.84375,-7.46875 0.06943,-1.301788 -1.285116,-2.180678 -2.495711,-1.96875 -1.741013,0 -3.482027,0 -5.223039,0 z m 3.5625,18.53125 c 0.822917,0 1.645834,0 2.46875,0 -0.239583,0.9375 -0.479166,1.875 -0.71875,2.8125 -0.822916,0 -1.645833,0 -2.46875,0 0.239584,-0.9375 0.479167,-1.875 0.71875,-2.8125 z"
     inkscape:connector-curvature="0"
     id="path3326"
     style="font-size:50.15510178px;font-style:normal;font-variant:normal;font-weight:bold;font-stretch:normal;text-align:start;line-height:125%;writing-mode:lr-tb;text-anchor:start;opacity:0.05;fill:#000000;fill-opacity:1;stroke:none;font-family:Sans;-inkscape-font-specification:Abandoned Bitplane Bold" />
  <path
     d="m 50.181272,-82.22913 a 1.00149,1.00149 0 0 0 -0.875,0.75 l -2.15625,8.6875 -7.5,0 a 1.00149,1.00149 0 0 0 -1,1 l 0,5.21875 a 1.00149,1.00149 0 0 0 1,1 l 5.625,0 -1.1875,4.6875 -7.25,0 a 1.00149,1.00149 0 0 0 -1,1 l 0,5.28125 a 1.00149,1.00149 0 0 0 1,1 l 5.53125,0 -2.03125,8.125 a 1.00149,1.00149 0 0 0 0.96875,1.25 l 5.46875,0 a 1.00149,1.00149 0 0 0 0.96875,-0.75 l 2.15625,-8.625 4.40625,0 -2.03125,8.125 a 1.00149,1.00149 0 0 0 0.96875,1.25 l 5.40625,0 a 1.00149,1.00149 0 0 0 0.96875,-0.75 l 2.15625,-8.625 7.437501,0 a 1.00149,1.00149 0 0 0 1,-1 l 0,-5.28125 a 1.00149,1.00149 0 0 0 -1,-1 l -5.656251,0 1.187501,-4.6875 7.28125,0 a 1.00149,1.00149 0 0 0 1,-1 l 0,-5.21875 a 1.00149,1.00149 0 0 0 -1,-1 l -5.5,0 2.0625,-8.1875 a 1.00149,1.00149 0 0 0 -0.96875,-1.25 l -5.406251,0 a 1.00149,1.00149 0 0 0 -0.96875,0.75 l -2.1875,8.6875 -4.40625,0 2.0625,-8.1875 a 1.00149,1.00149 0 0 0 -0.96875,-1.25 l -5.46875,0 a 1.00149,1.00149 0 0 0 -0.09375,0 z m 2.625,16.65625 4.40625,0 -1.21875,4.6875 -4.40625,0 1.21875,-4.6875 z"
     id="path3328"
     style="font-size:50.15510178px;font-style:normal;font-variant:normal;font-weight:bold;font-stretch:normal;text-align:start;line-height:125%;writing-mode:lr-tb;text-anchor:start;opacity:0.12000002;fill:#000000;fill-opacity:1;stroke:none;font-family:Sans;-inkscape-font-specification:Abandoned Bitplane Bold"
     inkscape:connector-curvature="0" />
  <path
     d="m 55.729231,-81.22913 -2.351021,9.428572 6.465306,0 2.375511,-9.428572 5.412246,0 -2.375511,9.428572 6.783674,0 0,5.216326 -8.081633,0 -1.689796,6.710204 6.955102,0 0,5.265306 -8.228572,0 -2.351021,9.379592 -5.412244,0 2.35102,-9.379592 -6.465306,0 -2.35102,9.379592 -5.461225,0 2.35102,-9.379592 -6.832653,0 0,-5.265306 8.032653,0 1.714286,-6.710204 -6.930612,0 0,-5.216326 8.277551,0 2.35102,-9.428572 5.461225,0 m 2.767347,14.644898 -6.465306,0 -1.714286,6.710204 6.465306,0 1.714286,-6.710204"
     inkscape:connector-curvature="0"
     id="path3330"
     style="font-size:50.15510178px;font-style:normal;font-variant:normal;font-weight:bold;font-stretch:normal;text-align:start;line-height:125%;writing-mode:lr-tb;text-anchor:start;opacity:0.3;fill:#000000;fill-opacity:1;stroke:none;font-family:Sans;-inkscape-font-specification:Abandoned Bitplane Bold" />
  <path
     d="m 55.729231,-82.22913 -2.351021,9.428572 6.465306,0 2.375511,-9.428572 5.412246,0 -2.375511,9.428572 6.783674,0 0,5.216326 -8.081633,0 -1.689796,6.710204 6.955102,0 0,5.265306 -8.228572,0 -2.351021,9.379592 -5.412244,0 2.35102,-9.379592 -6.465306,0 -2.35102,9.379592 -5.461225,0 2.35102,-9.379592 -6.832653,0 0,-5.265306 8.032653,0 1.714286,-6.710204 -6.930612,0 0,-5.216326 8.277551,0 2.35102,-9.428572 5.461225,0 m 2.767347,14.644898 -6.465306,0 -1.714286,6.710204 6.465306,0 1.714286,-6.710204"
     inkscape:connector-curvature="0"
     id="path3332"
     style="font-size:50.15510178px;font-style:normal;font-variant:normal;font-weight:bold;font-stretch:normal;text-align:start;line-height:125%;writing-mode:lr-tb;text-anchor:start;fill:url(#linearGradient3381);fill-opacity:1;stroke:none;font-family:Sans;-inkscape-font-specification:Abandoned Bitplane Bold" />
  <path
     d="m 50.275022,-82.22913 -2.34375,9.4375 -8.28125,0 0,1 8.28125,0 2.34375,-9.4375 5.21875,0 0.25,-1 -5.46875,0 z m 11.9375,0 -2.375,9.4375 -6.21875,0 -0.25,1 6.46875,0 2.375,-9.4375 5.156251,0 0.25,-1 -5.406251,0 z m 3.281251,9.4375 -0.25,1 6.78125,0 0,-1 -6.53125,0 z m -19.187501,6.21875 -1.4375,5.6875 -8.03125,0 0,1 8.03125,0 1.6875,-6.6875 -0.25,0 z m 11.9375,0 -1.46875,5.6875 -6.21875,0 -0.25,1 6.46875,0 1.71875,-6.6875 -0.25,0 z m 4.28125,5.6875 -0.25,1 6.937501,0 0,-1 -6.687501,0 z m -19.125,6.28125 -2.09375,8.375 0.25,0 2.09375,-8.375 -0.25,0 z m 11.9375,0 -2.09375,8.375 0.25,0 2.09375,-8.375 -0.25,0 z"
     inkscape:connector-curvature="0"
     id="path3334"
     style="font-size:50.15510178px;font-style:normal;font-variant:normal;font-weight:bold;font-stretch:normal;text-align:start;line-height:125%;writing-mode:lr-tb;text-anchor:start;fill:#ffffff;fill-opacity:1;stroke:none;font-family:Sans;-inkscape-font-specification:Abandoned Bitplane Bold" />
  <path
     inkscape:connector-curvature="0"
     style="opacity:0.07999998;fill:url(#linearGradient3145);fill-opacity:1;fill-rule:nonzero;stroke:none;display:inline"
     id="path3786"
     d="M 12,95.03125 C 6.4889097,95.03125 1.96875,90.51109 1.96875,85 l 0,-71 C 1.96875,8.4889098 6.4889098,3.96875 12,3.96875 l 72,0 c 5.51109,0 10.03125,4.5201597 10.03125,10.03125 l 0,71 c 0,5.51109 -4.52016,10.03125 -10.03125,10.03125 l -72,0 z" />
  <path
     inkscape:connector-curvature="0"
     style="opacity:0.1;fill:url(#linearGradient3142);fill-opacity:1;fill-rule:nonzero;stroke:none;display:inline"
     id="path3778"
     d="M 12,94.03125 C 7.028367,94.03125 2.96875,89.971633 2.96875,85 l 0,-71 C 2.96875,9.0283671 7.0283671,4.96875 12,4.96875 l 72,0 c 4.971633,0 9.03125,4.059617 9.03125,9.03125 l 0,71 c 0,4.971633 -4.059617,9.03125 -9.03125,9.03125 l -72,0 z" />
  <path
     inkscape:connector-curvature="0"
     style="opacity:0.2;fill:url(#linearGradient3139);fill-opacity:1;fill-rule:nonzero;stroke:none;display:inline"
     id="path3770"
     d="M 12,93 C 7.5908667,93 4,89.409133 4,85 L 4,14 C 4,9.5908667 7.5908667,6 12,6 l 72,0 c 4.409133,0 8,3.5908667 8,8 l 0,71 c 0,4.409133 -3.590867,8 -8,8 l -72,0 z" />
  <rect
     style="opacity:0.3;fill:url(#linearGradient3136);fill-opacity:1;fill-rule:nonzero;stroke:none;display:inline"
     id="rect3723"
     transform="scale(1,-1)"
     y="-92"
     x="5"
     ry="7"
     rx="7"
     height="85"
     width="86" />
  <rect
     style="opacity:0.45;fill:url(#linearGradient3133);fill-opacity:1;fill-rule:nonzero;stroke:none;display:inline"
     id="rect3716"
     transform="scale(1,-1)"
     y="-91"
     x="6"
     ry="6"
     rx="6"
     height="84"
     width="84" />
  <rect
     style="fill:url(#linearGradient3130);fill-opacity:1;fill-rule:nonzero;stroke:none"
     id="rect2419"
     y="6"
     x="6"
     ry="6"
     rx="6"
     height="84"
     width="84" />
  <path
     style="fill:url(#radialGradient3113);fill-opacity:1;fill-rule:nonzero;stroke:none"
     d="m 12,5.9999985 c -3.324,0 -6,2.676 -6,6.0000005 l 0,72.000004 c 0,3.324 2.676,5.999999 6,5.999999 l 72,0 c 3.324,0 6,-2.675999 6,-5.999999 L 90,11.999999 C 90,8.6759985 87.324,5.9999985 84,5.9999985 l -72,0 z m 27.46875,7.9375005 c 2.8443,6.6e-5 5.8451,0.46841 9.0625,1.40625 3.21731,0.937972 6.69925,2.376189 10.40625,4.28125 l 0,15.125 -3.9375,0 c -0.86268,-5.510148 -2.60761,-9.578893 -5.21875,-12.1875 -2.58792,-2.608493 -6.22013,-3.906188 -10.90625,-3.90625 -5.57211,6.2e-5 -9.78863,2.48618 -12.65625,7.46875 -2.86765,4.953369 -4.31251,12.26344 -4.3125,21.90625 -10e-6,9.613563 1.44485,16.89239 4.3125,21.875004 2.86762,4.95333 7.08414,7.43751 12.65625,7.4375 3.89344,10e-6 7.07579,-1.15329 9.59375,-3.46875 2.51789,-2.34476 4.34963,-5.83783 5.46875,-10.468754 l 6.4375,0 c -1.53879,6.125714 -4.14428,10.772084 -7.78125,13.937504 -3.61373,3.13613 -8.17,4.71874 -13.71875,4.71875 -3.40389,-1e-5 -6.58575,-0.75327 -9.5,-2.21875 -2.91428,-1.46548 -5.48854,-3.62572 -7.75,-6.46875 -2.61119,-3.282661 -4.56147,-6.994285 -5.84375,-11.156254 -1.25897,-4.19125 -1.87501,-8.911749 -1.875,-14.1875 -10e-6,-10.199691 2.34509,-18.444507 7.03125,-24.6875 4.68613,-6.272186 10.86086,-9.406184 18.53125,-9.40625 z m 4.40625,15.40625 c 0.86379,9.04e-4 1.7165,0.420775 2.375,1.25 1.31701,1.658448 1.31921,4.344312 0,6 -1.31921,1.655662 -3.46423,1.6272 -4.78125,-0.03125 -0.74834,-0.942339 -1.08534,-2.243974 -0.9375,-3.5625 l 3.3125,0.59375 -2.375,-3.03125 c 0.65961,-0.827843 1.54246,-1.219552 2.40625,-1.21875 z m 15.03125,9.90625 23.1875,20.09375 -28.15625,-0.875 4.96875,-19.21875 z"
     id="rect3436"
     inkscape:connector-curvature="0" />
  <path
     style="opacity:0.5;fill:url(#linearGradient3127);fill-opacity:1;fill-rule:nonzero;stroke:none"
     id="rect3728"
     inkscape:connector-curvature="0"
     d="M 12,6 C 8.676,6 6,8.676 6,12 l 0,2 0,68 0,2 c 0,0.334721 0.04135,0.6507 0.09375,0.96875 0.0487,0.295596 0.09704,0.596915 0.1875,0.875 0.00988,0.03038 0.020892,0.0636 0.03125,0.09375 0.098865,0.287771 0.2348802,0.547452 0.375,0.8125 0.1445918,0.273507 0.3156161,0.535615 0.5,0.78125 0.1843839,0.245635 0.3737765,0.473472 0.59375,0.6875 0.439947,0.428056 0.94291,0.814526 1.5,1.09375 0.278545,0.139612 0.5734731,0.246947 0.875,0.34375 -0.2562018,-0.100222 -0.4867109,-0.236272 -0.71875,-0.375 -0.00741,-0.0044 -0.023866,0.0045 -0.03125,0 -0.031933,-0.0193 -0.062293,-0.04251 -0.09375,-0.0625 -0.120395,-0.0767 -0.2310226,-0.163513 -0.34375,-0.25 -0.1061728,-0.0808 -0.2132809,-0.161112 -0.3125,-0.25 C 8.4783201,88.557317 8.3087904,88.373362 8.15625,88.1875 8.0486711,88.057245 7.9378561,87.922215 7.84375,87.78125 7.818661,87.74287 7.805304,87.69538 7.78125,87.65625 7.716487,87.553218 7.6510225,87.451733 7.59375,87.34375 7.4927417,87.149044 7.3880752,86.928049 7.3125,86.71875 7.30454,86.69694 7.288911,86.6782 7.28125,86.65625 7.2494249,86.5643 7.2454455,86.469419 7.21875,86.375 7.1884177,86.268382 7.1483606,86.171969 7.125,86.0625 7.0521214,85.720988 7,85.364295 7,85 L 7,83 7,15 7,13 C 7,10.218152 9.2181517,8 12,8 l 2,0 68,0 2,0 c 2.781848,0 5,2.218152 5,5 l 0,2 0,68 0,2 c 0,0.364295 -0.05212,0.720988 -0.125,1.0625 -0.04415,0.206893 -0.08838,0.397658 -0.15625,0.59375 -0.0077,0.02195 -0.0233,0.04069 -0.03125,0.0625 -0.06274,0.173739 -0.138383,0.367449 -0.21875,0.53125 -0.04158,0.0828 -0.07904,0.169954 -0.125,0.25 -0.0546,0.09721 -0.126774,0.18835 -0.1875,0.28125 -0.09411,0.140965 -0.204921,0.275995 -0.3125,0.40625 -0.143174,0.17445 -0.303141,0.346998 -0.46875,0.5 -0.01117,0.0102 -0.01998,0.02115 -0.03125,0.03125 -0.138386,0.125556 -0.285091,0.234436 -0.4375,0.34375 -0.102571,0.07315 -0.204318,0.153364 -0.3125,0.21875 -0.0074,0.0045 -0.02384,-0.0044 -0.03125,0 -0.232039,0.138728 -0.462548,0.274778 -0.71875,0.375 0.301527,-0.0968 0.596455,-0.204138 0.875,-0.34375 0.55709,-0.279224 1.060053,-0.665694 1.5,-1.09375 0.219973,-0.214028 0.409366,-0.441865 0.59375,-0.6875 0.184384,-0.245635 0.355408,-0.507743 0.5,-0.78125 0.14012,-0.265048 0.276135,-0.524729 0.375,-0.8125 0.01041,-0.03078 0.02133,-0.06274 0.03125,-0.09375 0.09046,-0.278085 0.1388,-0.579404 0.1875,-0.875 C 89.95865,84.6507 90,84.334721 90,84 l 0,-2 0,-68 0,-2 C 90,8.676 87.324,6 84,6 L 12,6 z" />
  <path
     style="opacity:0.2;fill:url(#radialGradient3124);fill-opacity:1;fill-rule:nonzero;stroke:none"
     id="path3615"
     inkscape:connector-curvature="0"
     d="M 12,90 C 8.676,90 6,87.324 6,84 L 6,82 6,14 6,12 c 0,-0.334721 0.04135,-0.6507 0.09375,-0.96875 0.0487,-0.295596 0.09704,-0.596915 0.1875,-0.875 C 6.29113,10.12587 6.302142,10.09265 6.3125,10.0625 6.411365,9.774729 6.5473802,9.515048 6.6875,9.25 6.8320918,8.976493 7.0031161,8.714385 7.1875,8.46875 7.3718839,8.223115 7.5612765,7.995278 7.78125,7.78125 8.221197,7.353194 8.72416,6.966724 9.28125,6.6875 9.559795,6.547888 9.8547231,6.440553 10.15625,6.34375 9.9000482,6.443972 9.6695391,6.580022 9.4375,6.71875 c -0.00741,0.0044 -0.023866,-0.0045 -0.03125,0 -0.031933,0.0193 -0.062293,0.04251 -0.09375,0.0625 -0.120395,0.0767 -0.2310226,0.163513 -0.34375,0.25 -0.1061728,0.0808 -0.2132809,0.161112 -0.3125,0.25 C 8.4783201,7.442683 8.3087904,7.626638 8.15625,7.8125 8.0486711,7.942755 7.9378561,8.077785 7.84375,8.21875 7.818661,8.25713 7.805304,8.30462 7.78125,8.34375 7.716487,8.446782 7.6510225,8.548267 7.59375,8.65625 7.4927417,8.850956 7.3880752,9.071951 7.3125,9.28125 7.30454,9.30306 7.288911,9.3218 7.28125,9.34375 7.2494249,9.4357 7.2454455,9.530581 7.21875,9.625 7.1884177,9.731618 7.1483606,9.828031 7.125,9.9375 7.0521214,10.279012 7,10.635705 7,11 l 0,2 0,68 0,2 c 0,2.781848 2.2181517,5 5,5 l 2,0 68,0 2,0 c 2.781848,0 5,-2.218152 5,-5 l 0,-2 0,-68 0,-2 C 89,10.635705 88.94788,10.279012 88.875,9.9375 88.83085,9.730607 88.78662,9.539842 88.71875,9.34375 88.71105,9.3218 88.69545,9.30306 88.6875,9.28125 88.62476,9.107511 88.549117,8.913801 88.46875,8.75 88.42717,8.6672 88.38971,8.580046 88.34375,8.5 88.28915,8.40279 88.216976,8.31165 88.15625,8.21875 88.06214,8.077785 87.951329,7.942755 87.84375,7.8125 87.700576,7.63805 87.540609,7.465502 87.375,7.3125 87.36383,7.3023 87.35502,7.29135 87.34375,7.28125 87.205364,7.155694 87.058659,7.046814 86.90625,6.9375 86.803679,6.86435 86.701932,6.784136 86.59375,6.71875 c -0.0074,-0.0045 -0.02384,0.0044 -0.03125,0 -0.232039,-0.138728 -0.462548,-0.274778 -0.71875,-0.375 0.301527,0.0968 0.596455,0.204138 0.875,0.34375 0.55709,0.279224 1.060053,0.665694 1.5,1.09375 0.219973,0.214028 0.409366,0.441865 0.59375,0.6875 0.184384,0.245635 0.355408,0.507743 0.5,0.78125 0.14012,0.265048 0.276135,0.524729 0.375,0.8125 0.01041,0.03078 0.02133,0.06274 0.03125,0.09375 0.09046,0.278085 0.1388,0.579404 0.1875,0.875 C 89.95865,11.3493 90,11.665279 90,12 l 0,2 0,68 0,2 c 0,3.324 -2.676,6 -6,6 l -72,0 z" />
  <g
     id="g3424"
     style="fill:#d3d7cf;filter:url(#filter4232)"
     transform="translate(-96.93826,-1.1259147)">
    <path
       inkscape:connector-curvature="0"
       style="font-size:448.4765625px;font-style:normal;font-variant:normal;font-weight:normal;font-stretch:normal;line-height:125%;letter-spacing:0px;word-spacing:0px;fill:#d3d7cf;fill-opacity:1;stroke:none;font-family:DejaVu Serif;-inkscape-font-specification:DejaVu Serif"
       d="m 136.42465,15.417496 c -7.67038,6.6e-5 -13.84391,3.13874 -18.53004,9.410926 -4.68615,6.242993 -7.03176,14.463209 -7.03174,24.6629 -2e-5,5.275751 0.62746,10.006701 1.88644,14.197951 1.28227,4.161974 3.23278,7.884969 5.84398,11.167629 2.26146,2.843034 4.84607,4.996693 7.76035,6.462169 2.91425,1.46548 6.07323,2.202155 9.47713,2.202158 5.54874,-3e-6 10.13033,-1.569337 13.74407,-4.705464 3.63697,-3.165427 6.22656,-7.815002 7.76535,-13.940716 l -6.43287,0 c -1.11912,4.630925 -2.9418,8.120191 -5.4597,10.46495 -2.51795,2.31546 -5.72342,3.475771 -9.61685,3.475766 -5.57212,5e-6 -9.7885,-2.475031 -12.65613,-7.428357 -2.86765,-4.982612 -4.30189,-12.282522 -4.30188,-21.896086 -1e-5,-9.64281 1.43423,-16.942718 4.30188,-21.896087 2.86763,-4.98257 7.08401,-7.472213 12.65613,-7.472275 4.68611,6.2e-5 8.32649,1.306452 10.91441,3.914945 2.61114,2.608607 4.3475,6.66759 5.21017,12.177737 l 3.95254,0 0,-15.126494 c -3.707,-1.905061 -7.17308,-3.328316 -10.39039,-4.266288 -3.2174,-0.93784 -6.24855,-1.405298 -9.09285,-1.405364 z"
       id="path3418" />
    <path
       inkscape:connector-curvature="0"
       style="font-size:448.4765625px;font-style:normal;font-variant:normal;font-weight:normal;font-stretch:normal;line-height:125%;letter-spacing:0px;word-spacing:0px;fill:#d3d7cf;fill-opacity:1;stroke:none;font-family:DejaVu Serif;-inkscape-font-specification:DejaVu Serif"
       d="m 140.83133,30.807498 c -0.86379,-8.02e-4 -1.72589,0.408124 -2.3855,1.235967 l 2.38052,3.005223 -3.33871,-0.589751 c -0.14784,1.318526 0.20487,2.64636 0.9532,3.588699 1.31702,1.65845 3.4518,1.661963 4.771,0.0063 1.31921,-1.655688 1.32201,-4.345722 0.005,-6.00417 -0.65849,-0.829224 -1.52169,-1.241339 -2.38549,-1.242243 z"
       id="path3420" />
    <path
       inkscape:connector-curvature="0"
       style="font-size:448.4765625px;font-style:normal;font-variant:normal;font-weight:normal;font-stretch:normal;line-height:125%;letter-spacing:0px;word-spacing:0px;fill:#d3d7cf;fill-opacity:1;stroke:none;font-family:DejaVu Serif;-inkscape-font-specification:DejaVu Serif"
       d="m 155.87296,40.732887 -4.96064,19.210836 28.16686,0.878353 -23.20622,-20.089189 z"
       id="path3422" />
  </g>
  <path
     inkscape:connector-curvature="0"
     style="font-size:448.4765625px;font-style:normal;font-variant:normal;font-weight:normal;font-stretch:normal;line-height:125%;letter-spacing:0px;word-spacing:0px;fill:#555753;fill-opacity:1;stroke:none;font-family:DejaVu Serif;-inkscape-font-specification:DejaVu Serif"
     d="m 39.453625,13.948134 c -7.670382,6.6e-5 -13.843906,3.138739 -18.530038,9.410925 -4.686153,6.242994 -7.031755,14.463209 -7.031744,24.6629 -1.1e-5,5.275751 0.627468,10.006701 1.886441,14.197951 1.282276,4.161974 3.232782,7.884969 5.843981,11.16763 2.26146,2.843034 4.846077,4.996692 7.760357,6.462169 2.91425,1.46548 6.073224,2.202155 9.477123,2.202158 5.548741,-4e-6 10.130334,-1.569338 13.74407,-4.705465 3.636969,-3.165426 6.226566,-7.815001 7.765357,-13.940715 l -6.432873,0 c -1.119123,4.630925 -2.941805,8.120191 -5.459701,10.46495 -2.517955,2.31546 -5.723419,3.47577 -9.616853,3.475765 -5.572115,5e-6 -9.7885,-2.475031 -12.656124,-7.428357 -2.867653,-4.982612 -4.301893,-12.282522 -4.301883,-21.896086 -1e-5,-9.64281 1.43423,-16.942718 4.301883,-21.896087 2.867624,-4.98257 7.084009,-7.472213 12.656124,-7.472275 4.686113,6.2e-5 8.326497,1.306452 10.914412,3.914945 2.611139,2.608607 4.347496,6.66759 5.210174,12.177737 l 3.952539,0 0,-15.126494 c -3.706998,-1.905061 -7.17308,-3.328316 -10.390392,-4.266288 -3.2174,-0.93784 -6.248551,-1.405298 -9.092852,-1.405364 z"
     id="path3069" />
  <path
     inkscape:connector-curvature="0"
     style="font-size:448.4765625px;font-style:normal;font-variant:normal;font-weight:normal;font-stretch:normal;line-height:125%;letter-spacing:0px;word-spacing:0px;fill:#555753;fill-opacity:1;stroke:none;font-family:DejaVu Serif;-inkscape-font-specification:DejaVu Serif"
     d="m 43.860306,29.338135 c -0.863789,-8.02e-4 -1.725887,0.408124 -2.385496,1.235967 l 2.380517,3.005223 -3.338712,-0.589751 c -0.14784,1.318526 0.20487,2.64636 0.953205,3.588699 1.317015,1.65845 3.451793,1.661963 4.771001,0.0063 1.31921,-1.655688 1.322004,-4.345722 0.0049,-6.00417 -0.658497,-0.829224 -1.521697,-1.241339 -2.385496,-1.242243 z"
     id="path3067" />
  <path
     inkscape:connector-curvature="0"
     style="font-size:448.4765625px;font-style:normal;font-variant:normal;font-weight:normal;font-stretch:normal;line-height:125%;letter-spacing:0px;word-spacing:0px;fill:#2e3436;fill-opacity:1;stroke:none;font-family:DejaVu Serif;-inkscape-font-specification:DejaVu Serif"
     d="m 58.967466,39.353471 -4.96064,19.210836 28.16686,0.878353 -23.20622,-20.089189 z"
     id="text3097" />
</svg>
