<?xml version="1.0" encoding="UTF-8" standalone="no"?>
<!-- Created with Inkscape (http://www.inkscape.org/) -->

<svg
   xmlns:dc="http://purl.org/dc/elements/1.1/"
   xmlns:cc="http://creativecommons.org/ns#"
   xmlns:rdf="http://www.w3.org/1999/02/22-rdf-syntax-ns#"
   xmlns:svg="http://www.w3.org/2000/svg"
   xmlns="http://www.w3.org/2000/svg"
   xmlns:sodipodi="http://sodipodi.sourceforge.net/DTD/sodipodi-0.dtd"
   xmlns:inkscape="http://www.inkscape.org/namespaces/inkscape"
   width="640"
   height="640"
   id="svg2"
   version="1.1"
   inkscape:version="0.48.4 r9939"
   sodipodi:docname="corebird.svg"
   inkscape:export-filename="/home/baedert/Code/HTML/corebird.baedert.org/corebird.png"
   inkscape:export-xdpi="21.09375"
   inkscape:export-ydpi="21.09375">
  <defs
     id="defs4">
    <linearGradient
       id="linearGradient3827">
      <stop
         style="stop-color:#ffdcff;stop-opacity:1;"
         offset="0"
         id="stop3829" />
      <stop
         style="stop-color:#ff98ff;stop-opacity:1;"
         offset="1"
         id="stop3831" />
    </linearGradient>
  </defs>
  <sodipodi:namedview
     id="base"
     pagecolor="#ffffff"
     bordercolor="#666666"
     borderopacity="1.0"
     inkscape:pageopacity="0.0"
     inkscape:pageshadow="2"
     inkscape:zoom="0.74132261"
     inkscape:cx="514.65061"
     inkscape:cy="258.71403"
     inkscape:document-units="px"
     inkscape:current-layer="layer1"
     showgrid="false"
     inkscape:window-width="1347"
     inkscape:window-height="954"
     inkscape:window-x="544"
     inkscape:window-y="95"
     inkscape:window-maximized="0"
     fit-margin-top="15"
     fit-margin-left="15"
     fit-margin-right="15"
     fit-margin-bottom="15"
     showguides="true"
     inkscape:guide-bbox="true" />
  <metadata
     id="metadata7">
    <rdf:RDF>
      <cc:Work
         rdf:about="">
        <dc:format>image/svg+xml</dc:format>
        <dc:type
           rdf:resource="http://purl.org/dc/dcmitype/StillImage" />
        <dc:title></dc:title>
      </cc:Work>
    </rdf:RDF>
  </metadata>
  <g
     inkscape:label="Layer 1"
     inkscape:groupmode="layer"
     id="layer1"
     transform="translate(-67.5625,-213.40625)">
    <g
       id="g3784"
       transform="matrix(1.1386248,0,0,1.1386248,-331.76006,-89.148339)">
      <path
         inkscape:connector-curvature="0"
         id="path4178"
         d="m 644.39756,281.79557 c -20.84555,0 -38.92257,8.08121 -47.9375,19.875 -8.15505,-3.00586 -17.44974,-4.71875 -27.3125,-4.71875 -25.52564,0 -47.21886,11.40738 -55.25,27.3125 -8.85165,-10.31795 -23.84166,-17.09375 -40.84375,-17.09375 -27.20331,0 -49.28125,17.35863 -49.28125,38.78125 0,1.91044 0.19247,3.78851 0.53125,5.625 -11.57792,10.02668 -18.8125,24.16612 -18.8125,39.84375 0,30.40511 27.15149,55.03125 60.625,55.03125 9.26797,0 18.05144,-1.87192 25.90625,-5.25 30.38764,12.59734 72.95265,20.40625 120.0625,20.40625 56.90614,0 107.14961,-11.42284 137.34375,-28.875 10.65482,10.24532 26.61947,16.75 44.46876,16.75 32.07878,0 58.09375,-21.02677 58.09375,-46.96875 0,-20.37099 -16.04904,-37.70978 -38.46875,-44.21875 0.0367,-0.74626 0.0625,-1.49521 0.0625,-2.25 0,-26.49986 -22.82646,-47.96875 -51,-47.96875 -10.72976,0 -20.69087,3.11526 -28.90625,8.4375 -7.96788,-5.16199 -19.89408,-8.4375 -33.21875,-8.4375 -1.4361,0 -2.84966,0.0506 -4.25,0.125 -6.61549,-15.2611 -27.29849,-26.40625 -51.8125,-26.40625 z"
         style="fill:#cccccf;fill-opacity:1;stroke:#888888;stroke-width:15;stroke-miterlimit:4;stroke-opacity:1;stroke-dasharray:none" />
      <path
         inkscape:connector-curvature="0"
         id="path2985"
         d="m 384.88741,402.70182 c -13.92791,32.46229 -21.65624,68.21902 -21.65624,105.78125 0,148.30053 120.19947,268.50001 268.49999,268.50001 148.30052,0 268.53125,-120.19948 268.53125,-268.50001 0,-37.56223 -7.72833,-73.31896 -21.65625,-105.78125 l -493.71875,0 z"
         style="fill:#ffffff;fill-opacity:1;stroke:#000000;stroke-width:15;stroke-miterlimit:4;stroke-opacity:1;stroke-dasharray:none" />
      <path
         sodipodi:nodetypes="cccc"
         inkscape:connector-curvature="0"
         id="rect2987"
         d="m 528.82193,604.12843 190.00375,0 -95.00187,208.31145 z"
         style="fill:#ffffff;fill-opacity:1;stroke:#000000;stroke-width:13.56942749;stroke-miterlimit:4;stroke-opacity:1;stroke-dasharray:none" />
      <rect
         y="492.24963"
         x="426.12708"
         height="30.932322"
         width="129.09659"
         id="rect3028"
         style="fill:#ffffff;fill-opacity:1;stroke:#000000;stroke-width:15;stroke-miterlimit:4;stroke-opacity:1;stroke-dasharray:none" />
      <rect
         style="fill:#ffffff;fill-opacity:1;stroke:#000000;stroke-width:15;stroke-miterlimit:4;stroke-opacity:1;stroke-dasharray:none"
         id="rect3032"
         width="129.09659"
         height="30.932322"
         x="708.2699"
         y="492.24963" />
    </g>
  </g>
</svg>
