<?xml version="1.0" encoding="UTF-8" standalone="no"?>
<!-- Created with Inkscape (http://www.inkscape.org/) -->

<svg
   xmlns:dc="http://purl.org/dc/elements/1.1/"
   xmlns:cc="http://creativecommons.org/ns#"
   xmlns:rdf="http://www.w3.org/1999/02/22-rdf-syntax-ns#"
   xmlns:svg="http://www.w3.org/2000/svg"
   xmlns="http://www.w3.org/2000/svg"
   xmlns:sodipodi="http://sodipodi.sourceforge.net/DTD/sodipodi-0.dtd"
   xmlns:inkscape="http://www.inkscape.org/namespaces/inkscape"
   width="500"
   height="500"
   id="svg2"
   version="1.1"
   inkscape:version="0.48.4 r9939"
   sodipodi:docname="more-normal.svg"
   inkscape:export-filename="/home/baedert/Code/Vala/Corebird/assets/more-normal.png"
   inkscape:export-xdpi="2.8800001"
   inkscape:export-ydpi="2.8800001">
  <defs
     id="defs4" />
  <sodipodi:namedview
     id="base"
     pagecolor="#ffffff"
     bordercolor="#666666"
     borderopacity="1.0"
     inkscape:pageopacity="0.0"
     inkscape:pageshadow="2"
     inkscape:zoom="0.962223"
     inkscape:cx="248.77663"
     inkscape:cy="212.9413"
     inkscape:document-units="px"
     inkscape:current-layer="layer1"
     showgrid="false"
     inkscape:window-width="1220"
     inkscape:window-height="814"
     inkscape:window-x="356"
     inkscape:window-y="24"
     inkscape:window-maximized="0" />
  <metadata
     id="metadata7">
    <rdf:RDF>
      <cc:Work
         rdf:about="">
        <dc:format>image/svg+xml</dc:format>
        <dc:type
           rdf:resource="http://purl.org/dc/dcmitype/StillImage" />
        <dc:title></dc:title>
      </cc:Work>
    </rdf:RDF>
  </metadata>
  <g
     inkscape:label="Layer 1"
     inkscape:groupmode="layer"
     id="layer1"
     transform="translate(0,-552.36218)">
    <g
       id="g3020"
       transform="translate(20.057946,0)">
      <path
         transform="matrix(1.2181818,0,0,1.2181818,116.00134,396.07497)"
         d="m 150.69271,442.8407 c 0,31.56821 -25.59109,57.1593 -57.159301,57.1593 -31.568213,0 -57.159305,-25.59109 -57.159305,-57.1593 0,-31.56821 25.591092,-57.15931 57.159305,-57.15931 31.568211,0 57.159301,25.5911 57.159301,57.15931 z"
         sodipodi:ry="57.159306"
         sodipodi:rx="57.159306"
         sodipodi:cy="442.8407"
         sodipodi:cx="93.533409"
         id="path2995"
         style="fill:#babdb6;fill-opacity:1;fill-rule:nonzero;stroke:none"
         sodipodi:type="arc" />
      <path
         sodipodi:type="arc"
         style="fill:#babdb6;fill-opacity:1;fill-rule:nonzero;stroke:none"
         id="path2997"
         sodipodi:cx="93.533409"
         sodipodi:cy="442.8407"
         sodipodi:rx="57.159306"
         sodipodi:ry="57.159306"
         d="m 150.69271,442.8407 c 0,31.56821 -25.59109,57.1593 -57.159301,57.1593 -31.568213,0 -57.159305,-25.59109 -57.159305,-57.1593 0,-31.56821 25.591092,-57.15931 57.159305,-57.15931 31.568211,0 57.159301,25.5911 57.159301,57.15931 z"
         transform="matrix(1.2181818,0,0,1.2181818,276.31299,396.07497)" />
      <path
         transform="matrix(1.2181818,0,0,1.2181818,-44.310275,396.07497)"
         d="m 150.69271,442.8407 c 0,31.56821 -25.59109,57.1593 -57.159301,57.1593 -31.568213,0 -57.159305,-25.59109 -57.159305,-57.1593 0,-31.56821 25.591092,-57.15931 57.159305,-57.15931 31.568211,0 57.159301,25.5911 57.159301,57.15931 z"
         sodipodi:ry="57.159306"
         sodipodi:rx="57.159306"
         sodipodi:cy="442.8407"
         sodipodi:cx="93.533409"
         id="path2999"
         style="fill:#babdb6;fill-opacity:1;fill-rule:nonzero;stroke:none"
         sodipodi:type="arc" />
    </g>
  </g>
</svg>
