<?xml version="1.0" encoding="UTF-8" standalone="no"?>
<!-- Created with Inkscape (http://www.inkscape.org/) -->

<svg
   xmlns:dc="http://purl.org/dc/elements/1.1/"
   xmlns:cc="http://creativecommons.org/ns#"
   xmlns:rdf="http://www.w3.org/1999/02/22-rdf-syntax-ns#"
   xmlns:svg="http://www.w3.org/2000/svg"
   xmlns="http://www.w3.org/2000/svg"
   xmlns:sodipodi="http://sodipodi.sourceforge.net/DTD/sodipodi-0.dtd"
   xmlns:inkscape="http://www.inkscape.org/namespaces/inkscape"
   width="500"
   height="500"
   id="svg3025"
   version="1.1"
   inkscape:version="0.48.4 r9939"
   sodipodi:docname="New document 3">
  <defs
     id="defs3027" />
  <sodipodi:namedview
     id="base"
     pagecolor="#ffffff"
     bordercolor="#666666"
     borderopacity="1.0"
     inkscape:pageopacity="0.0"
     inkscape:pageshadow="2"
     inkscape:zoom="1.2222656"
     inkscape:cx="272.02861"
     inkscape:cy="133.21746"
     inkscape:document-units="px"
     inkscape:current-layer="layer1"
     showgrid="false"
     inkscape:window-width="1355"
     inkscape:window-height="622"
     inkscape:window-x="486"
     inkscape:window-y="208"
     inkscape:window-maximized="0" />
  <metadata
     id="metadata3030">
    <rdf:RDF>
      <cc:Work
         rdf:about="">
        <dc:format>image/svg+xml</dc:format>
        <dc:type
           rdf:resource="http://purl.org/dc/dcmitype/StillImage" />
        <dc:title></dc:title>
      </cc:Work>
    </rdf:RDF>
  </metadata>
  <g
     inkscape:label="Layer 1"
     inkscape:groupmode="layer"
     id="layer1"
     transform="translate(0,-552.36218)">
    <g
       id="g3090">
      <path
         style="fill:#2e3436;fill-opacity:1;fill-rule:nonzero;stroke:none"
         d="m 319.63046,935.53576 c 0,38.45582 -31.1746,69.63044 -69.63042,69.63044 -38.45583,0 -69.63043,-31.17462 -69.63043,-69.63044 0,-38.45582 31.1746,-69.63043 69.63043,-69.63043 38.45582,0 69.63042,31.17461 69.63042,69.63043 z"
         id="path2995"
         inkscape:connector-curvature="0" />
      <path
         style="fill:#2e3436;fill-opacity:1;fill-rule:nonzero;stroke:none"
         d="m 479.94211,935.53576 c 0,38.45582 -31.1746,69.63044 -69.63042,69.63044 -38.45583,0 -69.63043,-31.17462 -69.63043,-69.63044 0,-38.45582 31.1746,-69.63043 69.63043,-69.63043 38.45582,0 69.63042,31.17461 69.63042,69.63043 z"
         id="path2997"
         inkscape:connector-curvature="0" />
      <path
         inkscape:connector-curvature="0"
         id="path3066"
         d="m 319.63046,935.53576 c 0,38.45582 -31.1746,69.63044 -69.63042,69.63044 -38.45583,0 -69.63043,-31.17462 -69.63043,-69.63044 0,-38.45582 31.1746,-69.63043 69.63043,-69.63043 38.45582,0 69.63042,31.17461 69.63042,69.63043 z"
         style="fill:#5c3566;fill-opacity:1;fill-rule:nonzero;stroke:none" />
      <path
         inkscape:connector-curvature="0"
         id="path3068"
         d="m 479.94211,935.53576 c 0,38.45582 -31.1746,69.63044 -69.63042,69.63044 -38.45583,0 -69.63043,-31.17462 -69.63043,-69.63044 0,-38.45582 31.1746,-69.63043 69.63043,-69.63043 38.45582,0 69.63042,31.17461 69.63042,69.63043 z"
         style="fill:#5c3566;fill-opacity:1;fill-rule:nonzero;stroke:none" />
      <g
         id="g3086">
        <path
           inkscape:connector-curvature="0"
           id="path2999"
           d="m 159.31885,935.53576 c 0,38.45582 -31.1746,69.63044 -69.630424,69.63044 -38.455823,0 -69.630426,-31.17462 -69.630426,-69.63044 0,-38.45582 31.174603,-69.63043 69.630426,-69.63043 38.455824,0 69.630424,31.17461 69.630424,69.63043 z"
           style="fill:#2e3436;fill-opacity:1;fill-rule:nonzero;stroke:none" />
        <path
           style="fill:#babdb6;fill-opacity:1;fill-rule:nonzero;stroke:none"
           d="m 152.77363,935.53576 c 0,34.84099 -28.24421,63.08522 -63.085204,63.08522 -34.840997,0 -63.085204,-28.24423 -63.085204,-63.08522 0,-34.84099 28.244207,-63.08521 63.085204,-63.08521 34.840994,0 63.085204,28.24422 63.085204,63.08521 z"
           id="path3070"
           inkscape:connector-curvature="0" />
      </g>
      <g
         transform="translate(-105.54171,3.2726111)"
         id="g3076">
        <path
           style="fill:#2e3436;fill-opacity:1;fill-rule:nonzero;stroke:none"
           d="m 585.57644,933.0813 c 0,38.45582 -31.1746,69.6304 -69.63042,69.6304 -38.45583,0 -69.63043,-31.17458 -69.63043,-69.6304 0,-38.45582 31.1746,-69.63043 69.63043,-69.63043 38.45582,0 69.63042,31.17461 69.63042,69.63043 z"
           id="path3072"
           inkscape:connector-curvature="0" />
        <path
           inkscape:connector-curvature="0"
           id="path3074"
           d="m 579.03122,933.0813 c 0,34.84099 -28.24421,63.08522 -63.0852,63.08522 -34.841,0 -63.08521,-28.24423 -63.08521,-63.08522 0,-34.84099 28.24421,-63.08521 63.08521,-63.08521 34.84099,0 63.0852,28.24422 63.0852,63.08521 z"
           style="fill:#babdb6;fill-opacity:1;fill-rule:nonzero;stroke:none" />
      </g>
      <g
         id="g3080"
         transform="translate(-266.7178,3.2726111)">
        <path
           inkscape:connector-curvature="0"
           id="path3082"
           d="m 585.57644,933.0813 c 0,38.45582 -31.1746,69.6304 -69.63042,69.6304 -38.45583,0 -69.63043,-31.17458 -69.63043,-69.6304 0,-38.45582 31.1746,-69.63043 69.63043,-69.63043 38.45582,0 69.63042,31.17461 69.63042,69.63043 z"
           style="fill:#2e3436;fill-opacity:1;fill-rule:nonzero;stroke:none" />
        <path
           style="fill:#babdb6;fill-opacity:1;fill-rule:nonzero;stroke:none"
           d="m 579.03122,933.0813 c 0,34.84099 -28.24421,63.08522 -63.0852,63.08522 -34.841,0 -63.08521,-28.24423 -63.08521,-63.08522 0,-34.84099 28.24421,-63.08521 63.08521,-63.08521 34.84099,0 63.0852,28.24422 63.0852,63.08521 z"
           id="path3084"
           inkscape:connector-curvature="0" />
      </g>
    </g>
  </g>
</svg>
