<?xml version="1.0" encoding="UTF-8" standalone="no"?>
<!-- Created with Inkscape (http://www.inkscape.org/) -->

<svg
   xmlns:dc="http://purl.org/dc/elements/1.1/"
   xmlns:cc="http://creativecommons.org/ns#"
   xmlns:rdf="http://www.w3.org/1999/02/22-rdf-syntax-ns#"
   xmlns:svg="http://www.w3.org/2000/svg"
   xmlns="http://www.w3.org/2000/svg"
   xmlns:xlink="http://www.w3.org/1999/xlink"
   xmlns:sodipodi="http://sodipodi.sourceforge.net/DTD/sodipodi-0.dtd"
   xmlns:inkscape="http://www.inkscape.org/namespaces/inkscape"
   width="668.14264"
   height="668.14264"
   id="svg2"
   version="1.1"
   inkscape:version="0.48.3.1 r9886"
   sodipodi:docname="New document 1">
  <defs
     id="defs4">
    <linearGradient
       id="linearGradient3755">
      <stop
         style="stop-color:#000000;stop-opacity:0.79464287;"
         offset="0"
         id="stop3757" />
      <stop
         style="stop-color:#000000;stop-opacity:0.73660713;"
         offset="1"
         id="stop3759" />
    </linearGradient>
    <radialGradient
       inkscape:collect="always"
       xlink:href="#linearGradient3755"
       id="radialGradient3761"
       cx="258.01044"
       cy="549.76379"
       fx="258.01044"
       fy="549.76379"
       r="334.07132"
       gradientUnits="userSpaceOnUse" />
  </defs>
  <sodipodi:namedview
     id="base"
     pagecolor="#ffffff"
     bordercolor="#666666"
     borderopacity="1.0"
     inkscape:pageopacity="0.0"
     inkscape:pageshadow="2"
     inkscape:zoom="0.73402663"
     inkscape:cx="392.81767"
     inkscape:cy="380.00403"
     inkscape:document-units="px"
     inkscape:current-layer="layer1"
     showgrid="false"
     showborder="true"
     fit-margin-top="0"
     fit-margin-left="0"
     fit-margin-right="0"
     fit-margin-bottom="0"
     inkscape:window-width="1018"
     inkscape:window-height="738"
     inkscape:window-x="797"
     inkscape:window-y="58"
     inkscape:window-maximized="0" />
  <metadata
     id="metadata7">
    <rdf:RDF>
      <cc:Work
         rdf:about="">
        <dc:format>image/svg+xml</dc:format>
        <dc:type
           rdf:resource="http://purl.org/dc/dcmitype/StillImage" />
        <dc:title></dc:title>
      </cc:Work>
    </rdf:RDF>
  </metadata>
  <g
     inkscape:label="Layer 1"
     inkscape:groupmode="layer"
     id="layer1"
     transform="translate(76.060883,-215.69246)">
    <rect
       style="fill:url(#radialGradient3761);fill-opacity:1;fill-rule:nonzero;stroke:none"
       id="rect2985"
       width="668.14264"
       height="668.14264"
       x="-76.060883"
       y="215.69246"
       ry="43.59515" />
    <path
       sodipodi:type="arc"
       style="fill:#000000;fill-opacity:1;fill-rule:nonzero;stroke:none"
       id="path3763"
       sodipodi:cx="697.5224"
       sodipodi:cy="342.57867"
       sodipodi:rx="19.072878"
       sodipodi:ry="19.072878"
       d="m 716.59528,342.57867 c 0,10.53366 -8.53922,19.07288 -19.07288,19.07288 -10.53366,0 -19.07288,-8.53922 -19.07288,-19.07288 0,-10.53366 8.53922,-19.07287 19.07288,-19.07287 10.53366,0 19.07288,8.53921 19.07288,19.07287 z"
       transform="matrix(1.5,0,0,1.5,-633.492,-129.05653)" />
    <path
       transform="matrix(1.5,0,0,1.5,-956.36857,-134.50592)"
       d="m 716.59528,342.57867 c 0,10.53366 -8.53922,19.07288 -19.07288,19.07288 -10.53366,0 -19.07288,-8.53922 -19.07288,-19.07288 0,-10.53366 8.53922,-19.07287 19.07288,-19.07287 10.53366,0 19.07288,8.53921 19.07288,19.07287 z"
       sodipodi:ry="19.072878"
       sodipodi:rx="19.072878"
       sodipodi:cy="342.57867"
       sodipodi:cx="697.5224"
       id="path3765"
       style="fill:#000000;fill-opacity:1;fill-rule:nonzero;stroke:none"
       sodipodi:type="arc" />
    <path
       style="fill:none;stroke:#000000;stroke-width:32.81721115;stroke-linecap:round;stroke-linejoin:miter;stroke-miterlimit:4;stroke-opacity:1;stroke-dasharray:none"
       d="m 47.953148,567.68093 c 8.030404,225.12136 370.945862,236.99758 376.828592,0"
       id="path3767"
       inkscape:connector-curvature="0"
       sodipodi:nodetypes="cc" />
    <path
       sodipodi:type="arc"
       style="fill:#000000;fill-opacity:1;fill-rule:nonzero;stroke:none"
       id="path3769"
       sodipodi:cx="697.5224"
       sodipodi:cy="342.57867"
       sodipodi:rx="19.072878"
       sodipodi:ry="19.072878"
       d="m 716.59528,342.57867 c 0,10.53366 -8.53922,19.07288 -19.07288,19.07288 -10.53366,0 -19.07288,-8.53922 -19.07288,-19.07288 0,-10.53366 8.53922,-19.07287 19.07288,-19.07287 10.53366,0 19.07288,8.53921 19.07288,19.07287 z"
       transform="matrix(1.5,0,0,1.5,-956.36857,-134.50592)" />
  </g>
</svg>
