<?xml version="1.0" encoding="UTF-8" standalone="no"?>
<!-- Created with Inkscape (http://www.inkscape.org/) -->

<svg
   xmlns:dc="http://purl.org/dc/elements/1.1/"
   xmlns:cc="http://creativecommons.org/ns#"
   xmlns:rdf="http://www.w3.org/1999/02/22-rdf-syntax-ns#"
   xmlns:svg="http://www.w3.org/2000/svg"
   xmlns="http://www.w3.org/2000/svg"
   xmlns:xlink="http://www.w3.org/1999/xlink"
   xmlns:sodipodi="http://sodipodi.sourceforge.net/DTD/sodipodi-0.dtd"
   xmlns:inkscape="http://www.inkscape.org/namespaces/inkscape"
   width="640"
   height="640"
   id="svg2"
   version="1.1"
   inkscape:version="0.49 r12742"
   sodipodi:docname="corebird.svg"
   inkscape:export-filename="/home/rlerch/source/corebird/assets/512x512/corebird.png"
   inkscape:export-xdpi="72"
   inkscape:export-ydpi="72">
  <defs
     id="defs4">
    <linearGradient
       inkscape:collect="always"
       id="linearGradient5954">
      <stop
         style="stop-color:#edd400;stop-opacity:1"
         offset="0"
         id="stop5956" />
      <stop
         style="stop-color:#fce94f;stop-opacity:1"
         offset="1"
         id="stop5958" />
    </linearGradient>
    <linearGradient
       inkscape:collect="always"
       id="linearGradient5813">
      <stop
         style="stop-color:#ea6ba2;stop-opacity:1"
         offset="0"
         id="stop5815" />
      <stop
         style="stop-color:#e5458a;stop-opacity:1"
         offset="1"
         id="stop5817" />
    </linearGradient>
    <linearGradient
       inkscape:collect="always"
       id="linearGradient5751">
      <stop
         style="stop-color:#729fcf;stop-opacity:1"
         offset="0"
         id="stop5753" />
      <stop
         style="stop-color:#3465a4;stop-opacity:1"
         offset="1"
         id="stop5755" />
    </linearGradient>
    <linearGradient
       id="linearGradient3827">
      <stop
         style="stop-color:#ffdcff;stop-opacity:1;"
         offset="0"
         id="stop3829" />
      <stop
         style="stop-color:#ff98ff;stop-opacity:1;"
         offset="1"
         id="stop3831" />
    </linearGradient>
    <linearGradient
       x1="348.28809"
       y1="-137.29201"
       x2="361.62851"
       y2="-137.29201"
       id="path2391_2_"
       gradientUnits="userSpaceOnUse"
       gradientTransform="matrix(0.6415,0,0,-0.7781,-31.1663,11.760301)">
      <stop
         style="stop-color:#fbb045;stop-opacity:1"
         offset="0"
         id="stop323" />
      <stop
         style="stop-color:#c77829;stop-opacity:1"
         offset="1"
         id="stop325" />
    </linearGradient>
    <linearGradient
       x1="348.28809"
       y1="-137.29201"
       x2="361.62851"
       y2="-137.29201"
       id="linearGradient4197"
       gradientUnits="userSpaceOnUse"
       gradientTransform="matrix(0.6415,0,0,-0.7781,-31.1663,4.888)">
      <stop
         style="stop-color:#fbb045;stop-opacity:1"
         offset="0"
         id="stop4199" />
      <stop
         style="stop-color:#c77829;stop-opacity:1"
         offset="1"
         id="stop4201" />
    </linearGradient>
    <linearGradient
       gradientTransform="matrix(0.6415,0,0,-0.7781,-31.1663,4.888)"
       gradientUnits="userSpaceOnUse"
       id="linearGradient4207"
       y2="-137.29201"
       x2="361.62851"
       y1="-137.29201"
       x1="348.28809">
      <stop
         id="stop4209"
         offset="0"
         style="stop-color:#fbb045;stop-opacity:1" />
      <stop
         id="stop4211"
         offset="1"
         style="stop-color:#c77829;stop-opacity:1" />
    </linearGradient>
    <clipPath
       clipPathUnits="userSpaceOnUse"
       id="clipPath5747">
      <path
         sodipodi:nodetypes="ccsssccc"
         id="path5749"
         style="fill:#729fcf;stroke:none"
         d="m -317.14586,654.26767 c -17.00009,19.30163 -31.02633,41.79278 -41.26613,66.58253 -8.04021,23.54776 -12.21493,49.18161 -12.21493,76.02201 0,114.50701 142.26245,207.45349 207.4535,207.45349 67.720759,0 207.451002,-92.94648 207.451002,-207.45349 0,-27.65912 -4.641115,-54.04072 -13.441743,-78.17401 -8.60386,-20.27999 -19.750231,-38.99031 -32.989533,-55.63205 0,0 -215.016776,61.83861 -314.992166,-8.79848 z"
         inkscape:connector-curvature="0" />
    </clipPath>
    <radialGradient
       inkscape:collect="always"
       xlink:href="#linearGradient5751"
       id="radialGradient5757"
       cx="-159.43066"
       cy="691.02435"
       fx="-159.43066"
       fy="691.02435"
       r="207.45225"
       gradientTransform="matrix(-3.3770551e-5,2.592452,-2.6947173,-3.6075293e-7,1702.7366,1122.0672)"
       gradientUnits="userSpaceOnUse" />
    <filter
       inkscape:collect="always"
       style="color-interpolation-filters:sRGB"
       id="filter5771"
       x="-0.037791939"
       width="1.0755839"
       y="-0.047262602"
       height="1.0945252">
      <feGaussianBlur
         inkscape:collect="always"
         stdDeviation="6.3132958"
         id="feGaussianBlur5773" />
    </filter>
    <radialGradient
       inkscape:collect="always"
       xlink:href="#linearGradient5813"
       id="radialGradient5819"
       cx="-157.64696"
       cy="658.03326"
       fx="-157.64696"
       fy="658.03326"
       r="147.5348"
       gradientTransform="matrix(5.8780813e-8,0.94264188,-1.6406413,2.5739882e-7,921.34182,790.80876)"
       gradientUnits="userSpaceOnUse" />
    <filter
       inkscape:collect="always"
       style="color-interpolation-filters:sRGB"
       id="filter5853"
       x="-0.024372036"
       width="1.0487441"
       y="-0.068847169"
       height="1.1376943">
      <feGaussianBlur
         inkscape:collect="always"
         stdDeviation="4.2133592"
         id="feGaussianBlur5855" />
    </filter>
    <clipPath
       clipPathUnits="userSpaceOnUse"
       id="clipPath5894">
      <path
         inkscape:connector-curvature="0"
         d="m -317.14586,654.26767 c -17.00009,19.30163 -31.02633,41.79278 -41.26613,66.58253 -8.04021,23.54776 -12.21493,49.18161 -12.21493,76.02201 0,114.50701 142.26245,207.45349 207.4535,207.45349 67.720759,0 207.451002,-92.94648 207.451002,-207.45349 0,-27.65912 -4.641115,-54.04072 -13.441743,-78.17401 -8.60386,-20.27999 -19.750231,-38.99031 -32.989533,-55.63205 0,0 -215.016776,61.83861 -314.992166,-8.79848 z"
         style="fill:url(#radialGradient5898);fill-opacity:1;stroke:none"
         id="path5896"
         sodipodi:nodetypes="ccsssccc" />
    </clipPath>
    <radialGradient
       inkscape:collect="always"
       xlink:href="#linearGradient5751"
       id="radialGradient5898"
       gradientUnits="userSpaceOnUse"
       gradientTransform="matrix(-3.2261034e-5,2.4765714,-2.5742656,-3.4462756e-7,1619.4445,1107.4769)"
       cx="-159.43066"
       cy="691.02435"
       fx="-159.43066"
       fy="691.02435"
       r="207.45225" />
    <filter
       inkscape:collect="always"
       style="color-interpolation-filters:sRGB"
       id="filter5928"
       x="-0.016079591"
       width="1.0321592"
       y="-0.047297658"
       height="1.0945953">
      <feGaussianBlur
         inkscape:collect="always"
         stdDeviation="1.9755463"
         id="feGaussianBlur5930" />
    </filter>
    <clipPath
       clipPathUnits="userSpaceOnUse"
       id="clipPath5940">
      <path
         sodipodi:nodetypes="ccscsscsscscsscsscsccc"
         style="fill:url(#radialGradient5944);fill-opacity:1;stroke:none"
         d="m -147.99318,571.83543 c -14.66351,0 -27.37954,5.68461 -33.72096,13.98079 -5.73658,-2.11442 -12.27479,-3.31933 -19.2126,-3.31933 -17.95567,0 -33.21547,8.02436 -38.86486,19.21259 -6.22657,-7.25801 -16.77109,-12.02436 -28.73097,-12.02436 -19.13581,0 -34.66622,12.2107 -34.66622,27.28014 0,1.34386 0.13539,2.66497 0.37369,3.95683 -8.14432,7.05312 -13.2334,16.99932 -13.2334,28.02754 0,21.38805 19.09935,38.71098 42.64583,38.71098 6.51942,0 12.26127,3.05094 17.78662,0.67469 21.37577,8.86141 51.75433,9.98675 84.89308,9.98675 40.02986,0 75.372932,8.80372 96.612586,-3.47275 7.494986,7.20693 18.725099,-5.05642 31.280935,-5.05642 22.56538,0 40.8652535,-14.79098 40.8652535,-33.03951 0,-14.3297 -11.2894805,-26.52642 -27.0603185,-31.10507 0.02582,-0.52495 0.04399,-1.05178 0.04399,-1.58272 0,-18.64097 -16.056963,-33.74297 -35.875251,-33.74297 -7.547702,0 -14.554706,2.19139 -20.333703,5.93525 -5.604898,-3.63114 -13.994215,-5.93525 -23.367262,-5.93525 -1.0102,0 -2.00457,0.0355 -2.9896,0.0879 -4.65359,-10.73522 -19.20276,-18.57511 -36.4468,-18.57511 z"
         id="path5942"
         inkscape:connector-curvature="0" />
    </clipPath>
    <radialGradient
       inkscape:collect="always"
       xlink:href="#linearGradient5813"
       id="radialGradient5944"
       gradientUnits="userSpaceOnUse"
       gradientTransform="matrix(5.8780813e-8,0.94264188,-1.6406413,2.5739882e-7,921.34182,790.80876)"
       cx="-157.64696"
       cy="658.03326"
       fx="-157.64696"
       fy="658.03326"
       r="147.5348" />
    <linearGradient
       inkscape:collect="always"
       xlink:href="#linearGradient5954"
       id="linearGradient5960"
       x1="194.68445"
       y1="105.43909"
       x2="194.68445"
       y2="132.01213"
       gradientUnits="userSpaceOnUse" />
    <linearGradient
       inkscape:collect="always"
       xlink:href="#linearGradient5954"
       id="linearGradient5992"
       gradientUnits="userSpaceOnUse"
       x1="194.68445"
       y1="105.43909"
       x2="194.68445"
       y2="132.01213" />
    <filter
       inkscape:collect="always"
       style="color-interpolation-filters:sRGB"
       id="filter6024"
       x="-0.12082061"
       width="1.2416412"
       y="-0.09961861"
       height="1.1992372">
      <feGaussianBlur
         inkscape:collect="always"
         stdDeviation="1.9067309"
         id="feGaussianBlur6026" />
    </filter>
    <filter
       inkscape:collect="always"
       style="color-interpolation-filters:sRGB"
       id="filter6064"
       x="-0.14700331"
       width="1.2940066"
       y="-0.22814828"
       height="1.4562966">
      <feGaussianBlur
         inkscape:collect="always"
         stdDeviation="14.535452"
         id="feGaussianBlur6066" />
    </filter>
    <linearGradient
       inkscape:collect="always"
       xlink:href="#linearGradient5954"
       id="linearGradient6270"
       gradientUnits="userSpaceOnUse"
       x1="194.68445"
       y1="105.43909"
       x2="194.68445"
       y2="132.01213" />
    <filter
       inkscape:collect="always"
       style="color-interpolation-filters:sRGB"
       id="filter6314"
       x="-0.02446795"
       width="1.0489359"
       y="-0.053607752"
       height="1.1072155">
      <feGaussianBlur
         inkscape:collect="always"
         stdDeviation="3.8531445"
         id="feGaussianBlur6316" />
    </filter>
    <clipPath
       clipPathUnits="userSpaceOnUse"
       id="clipPath6330">
      <path
         id="path6332"
         style="fill:#ffffff;stroke:none"
         d="m -221.69556,708.46218 c -43.12933,0 -78.1553,40.49759 -78.1553,90.3966 0,49.899 35.02597,90.39385 78.1553,90.39385 25.34249,0 47.83141,-13.99943 62.10743,-35.66131 14.27604,21.6783 36.81426,35.66131 62.170421,35.66131 43.123863,0 78.152565,-40.49758 78.152565,-90.39385 0,-49.90175 -35.028702,-90.3966 -78.152565,-90.3966 -25.353441,0 -47.894381,13.98849 -62.170421,35.66406 -14.27602,-21.65641 -36.77043,-35.66406 -62.10743,-35.66406 z"
         inkscape:connector-curvature="0" />
    </clipPath>
    <clipPath
       clipPathUnits="userSpaceOnUse"
       id="clipPath5940-8">
      <path
         sodipodi:nodetypes="ccscsscsscscsscsscsccc"
         style="fill:url(#radialGradient5944);fill-opacity:1;stroke:none"
         d="m -147.99318,571.83543 c -14.66351,0 -27.37954,5.68461 -33.72096,13.98079 -5.73658,-2.11442 -12.27479,-3.31933 -19.2126,-3.31933 -17.95567,0 -33.21547,8.02436 -38.86486,19.21259 -6.22657,-7.25801 -16.77109,-12.02436 -28.73097,-12.02436 -19.13581,0 -34.66622,12.2107 -34.66622,27.28014 0,1.34386 0.13539,2.66497 0.37369,3.95683 -8.14432,7.05312 -13.2334,16.99932 -13.2334,28.02754 0,21.38805 19.09935,38.71098 42.64583,38.71098 6.51942,0 12.69804,-1.31679 18.22339,-3.69304 21.37577,8.86141 51.31756,14.35448 84.45631,14.35448 40.02986,0 75.372932,8.80372 96.612586,-3.47275 7.494986,7.20693 18.725099,-5.05642 31.280935,-5.05642 22.56538,0 40.8652535,-14.79098 40.8652535,-33.03951 0,-14.3297 -11.2894805,-26.52642 -27.0603185,-31.10507 0.02582,-0.52495 0.04399,-1.05178 0.04399,-1.58272 0,-18.64097 -16.056963,-33.74297 -35.875251,-33.74297 -7.547702,0 -14.554706,2.19139 -20.333703,5.93525 -5.604898,-3.63114 -13.994215,-5.93525 -23.367262,-5.93525 -1.0102,0 -2.00457,0.0355 -2.9896,0.0879 -4.65359,-10.73522 -19.20276,-18.57511 -36.4468,-18.57511 z"
         id="path5942-0"
         inkscape:connector-curvature="0" />
    </clipPath>
    <clipPath
       clipPathUnits="userSpaceOnUse"
       id="clipPath5747-2">
      <path
         sodipodi:nodetypes="ccsssccc"
         id="path5749-2"
         style="fill:#729fcf;stroke:none"
         d="m -317.14586,654.26767 c -17.00009,19.30163 -31.02633,41.79278 -41.26613,66.58253 -8.04021,23.54776 -12.21493,49.18161 -12.21493,76.02201 0,114.50701 142.26245,207.45349 207.4535,207.45349 67.720759,0 207.451002,-92.94648 207.451002,-207.45349 0,-27.65912 -4.641115,-54.04072 -13.441743,-78.17401 -8.60386,-20.27999 -19.750231,-38.99031 -32.989533,-55.63205 0,0 -215.016776,61.83861 -314.992166,-8.79848 z"
         inkscape:connector-curvature="0" />
    </clipPath>
  </defs>
  <sodipodi:namedview
     id="base"
     pagecolor="#ffffff"
     bordercolor="#666666"
     borderopacity="1.0"
     inkscape:pageopacity="0.0"
     inkscape:pageshadow="2"
     inkscape:zoom="1"
     inkscape:cx="199.48106"
     inkscape:cy="406.59855"
     inkscape:document-units="px"
     inkscape:current-layer="g5823"
     showgrid="true"
     inkscape:window-width="1920"
     inkscape:window-height="1140"
     inkscape:window-x="3520"
     inkscape:window-y="27"
     inkscape:window-maximized="1"
     fit-margin-top="15"
     fit-margin-left="15"
     fit-margin-right="15"
     fit-margin-bottom="15"
     showguides="true"
     inkscape:guide-bbox="true"
     inkscape:snap-bbox="true"
     inkscape:bbox-nodes="false"
     inkscape:object-nodes="true"
     inkscape:snap-bbox-midpoints="true"
     inkscape:snap-global="false">
    <inkscape:grid
       type="xygrid"
       id="grid6366"
       empspacing="8" />
  </sodipodi:namedview>
  <metadata
     id="metadata7">
    <rdf:RDF>
      <cc:Work
         rdf:about="">
        <dc:format>image/svg+xml</dc:format>
        <dc:type
           rdf:resource="http://purl.org/dc/dcmitype/StillImage" />
        <dc:title></dc:title>
      </cc:Work>
    </rdf:RDF>
  </metadata>
  <g
     inkscape:label="Layer 1"
     inkscape:groupmode="layer"
     id="layer1"
     transform="translate(-67.5625,-213.40625)">
    <g
       id="g4299" />
    <g
       id="g328"
       style="display:none"
       transform="matrix(2.534743,0,0,2.534743,-652.21659,607.98988)">
      <path
         id="path3283_1_"
         style="fill:#ffffff;stroke:#010101;stroke-width:5;stroke-linejoin:round;display:inline"
         d="m 201.312,36.735 c 6.693,-16.214 17.981,-18.409 17.981,-18.409 0,0 -6.278,8.458 -0.592,6.105 8.805,-3.644 36.803,7.773 36.803,7.773 0,0 -37.094,-8.633 -54.192,4.531 z"
         inkscape:connector-curvature="0" />
      <path
         id="path3285_1_"
         style="fill:#ffffff;stroke:#010101;stroke-width:5;stroke-linejoin:round;display:inline"
         d="M 185.963,35.223 C 179.27,19.009 167.982,16.814 167.982,16.814 c 0,0 6.279,8.457 0.591,6.105 -8.805,-3.643 -36.802,7.773 -36.802,7.773 0,0 37.094,-8.634 54.192,4.531 z"
         inkscape:connector-curvature="0" />
    </g>
    <g
       id="g5823"
       transform="matrix(1.3669876,0,0,1.3669876,612.25489,-542.13102)">
      <g
         id="g5936"
         clip-path="url(#clipPath5940)"
         transform="matrix(1.0467907,0,0,1.0467907,7.5171566,-37.22935)">
        <path
           sodipodi:nodetypes="ccscsscsscscsscsscsccc"
           style="fill:url(#radialGradient5819);fill-opacity:1;stroke:none"
           d="m -147.99318,571.83543 c -14.66351,0 -27.37954,5.68461 -33.72096,13.98079 -5.73658,-2.11442 -12.27479,-3.31933 -19.2126,-3.31933 -17.95567,0 -33.21547,8.02436 -38.86486,19.21259 -6.22657,-7.25801 -16.77109,-12.02436 -28.73097,-12.02436 -19.13581,0 -34.66622,12.2107 -34.66622,27.28014 0,1.34386 0.13539,2.66497 0.37369,3.95683 -8.14432,7.05312 -13.2334,16.99932 -13.2334,28.02754 0,21.38805 19.09935,38.71098 42.64583,38.71098 6.51942,0 13.06865,2.26581 18.594,-0.11044 21.37577,8.86141 50.94695,10.77188 84.0857,10.77188 40.02986,0 75.372932,8.80372 96.612586,-3.47275 7.494986,7.20693 18.725099,-5.05642 31.280935,-5.05642 22.56538,0 40.8652535,-14.79098 40.8652535,-33.03951 0,-14.3297 -11.2894805,-26.52642 -27.0603185,-31.10507 0.02582,-0.52495 0.04399,-1.05178 0.04399,-1.58272 0,-18.64097 -16.056963,-33.74297 -35.875251,-33.74297 -7.547702,0 -14.554706,2.19139 -20.333703,5.93525 -5.604898,-3.63114 -13.994215,-5.93525 -23.367262,-5.93525 -1.0102,0 -2.00457,0.0355 -2.9896,0.0879 -4.65359,-10.73522 -19.20276,-18.57511 -36.4468,-18.57511 z"
           id="path4229"
           inkscape:connector-curvature="0" />
        <path
           id="path4250"
           d="m -215.56836,368.58984 c -13.77578,0 -25.72218,5.34084 -31.67969,13.13477 -5.38928,-1.98642 -11.53298,-3.11914 -18.05078,-3.11914 -16.86863,0 -31.20435,7.53988 -36.51172,18.05078 -5.84962,-6.81862 -15.7544,-11.29688 -26.99023,-11.29687 -17.97732,0 -32.56836,11.47176 -32.56836,25.6289 0,1.26251 0.12768,2.50315 0.35156,3.7168 -7.65127,6.62613 -12.43359,15.96951 -12.43359,26.33008 0,4.57493 0.93883,8.94852 2.63672,12.98046 -0.0907,-0.99885 -0.14649,-2.00521 -0.14649,-3.02539 0,-10.36057 4.78037,-19.7059 12.43164,-26.33203 -0.22388,-1.21365 -0.35156,-2.45428 -0.35156,-3.71679 0,-14.15714 14.59104,-25.62891 32.56836,-25.62891 11.23583,0 21.14061,4.47824 26.99023,11.29688 5.30737,-10.5109 19.64309,-18.04883 36.51172,-18.04883 6.5178,0 12.6615,1.13076 18.05078,3.11718 5.95751,-7.79393 17.90391,-13.13476 31.67969,-13.13476 16.20008,0 29.86839,7.36586 34.24024,17.45117 0.62294,-0.0331 1.25789,-0.0414 1.89062,-0.0547 l -3.2207,2.13086 c 0.004,0.002 0.009,0.004 0.0137,0.006 0.83405,-0.50035 1.71458,-0.93657 2.64648,-1.28515 1.08499,-0.40585 2.19216,-0.68152 3.31055,-0.84571 3.33519,0.11473 6.49778,0.55777 9.42774,1.24219 6.4006,2.58293 12.16713,8.53348 15.17187,16.56641 2.80813,7.5073 2.59863,15.21665 0,21.21093 -6.26314,-3.75152 -14.63109,-4.81798 -23.12109,-2.8457 l 0.19531,-0.79883 c -0.0337,0.0238 -0.07,0.0464 -0.10352,0.0703 -2.02239,-8.75334 -8.722,-17.31309 -18.67773,-22.52148 -15.92916,-8.33342 -34.17569,-4.93098 -40.73828,7.61328 -0.58524,1.11867 -1.04787,2.27587 -1.41211,3.45508 -0.004,3.8e-4 -0.006,0.003 -0.01,0.004 0.003,0.003 0.14844,0.14062 0.14844,0.14062 l -2.56641,9.83399 c 0.006,-10e-4 0.0131,-0.004 0.0195,-0.006 0.36424,-1.1792 0.82688,-2.33836 1.41211,-3.45704 6.56254,-12.54417 24.80716,-15.94474 40.73632,-7.61132 7.01853,3.67177 12.41096,9.0117 15.69532,14.9082 -1.45447,0.56015 -2.9008,1.20836 -4.32813,1.95508 l 0,-0.002 c -9.95573,5.20839 -16.6573,13.76814 -18.67969,22.52149 -0.0335,-0.0239 -0.0679,-0.0465 -0.10156,-0.0703 l 2.45313,10.00586 c 0.0187,0.0133 0.04,0.0237 0.0586,0.0371 2.02234,-8.75345 8.722,-17.3131 18.67773,-22.52149 15.92916,-8.33342 34.17574,-4.9309 40.73829,7.61328 0.58523,1.11867 1.04786,2.27588 1.4121,3.45508 0.006,0.002 0.0116,0.005 0.0176,0.006 l -2.56445,-9.83203 c 0,0 0.14544,-0.13958 0.14844,-0.14258 -0.004,-10e-4 -0.008,-0.002 -0.0117,-0.002 -0.36424,-1.17921 -0.82492,-2.33836 -1.41016,-3.45703 -1.66527,-3.18315 -4.08618,-5.77496 -7.02734,-7.73829 l 4.9082,-3.35351 c -0.0323,-0.004 -0.0654,-0.01 -0.0977,-0.0137 3.41794,-6.2004 3.98893,-14.74749 0.88671,-23.04102 -1.49561,-3.99841 -3.6818,-7.46982 -6.2832,-10.2793 3.26052,-1.43231 6.80435,-2.3806 10.53125,-2.76562 11.18688,0.25766 22.56517,9.17837 27.66797,22.82031 3.93642,10.52371 3.21216,21.36856 -1.125,29.23633 0.0228,0.002 0.0456,0.009 0.0684,0.0117 l 8.50391,-5.8125 c -0.041,-0.005 -0.0821,-0.011 -0.12305,-0.0156 2.06026,-3.73746 3.2939,-8.1511 3.61133,-12.8789 9.949925,3.20636 16.300748,16.8266 20.126323,24.92983 0.377803,-0.92654 0.635579,3.43952 0.789939,2.50055 3.53353,-21.49436 -9.52731,-32.18653 -21.451422,-36.67062 l -3.03989,-0.89788 c 0.0785,-4.87821 -1.18009,-11.43476 -2.63199,-13.73493 -5.03816,-11.53362 -17.08551,-19.65625 -31.16796,-19.65625 -7.09077,0 -13.67438,2.05896 -19.10352,5.57617 -5.26558,-3.41131 -13.14557,-5.57617 -21.95117,-5.57617 -0.94905,0 -1.88319,0.0348 -2.80859,0.084 -4.37185,-10.08531 -18.04016,-17.45118 -34.24024,-17.45118 z m -74.95703,40.11719 c -4.62896,-0.0126 -9.52411,0.9415 -14.29688,2.9668 l 0.004,0.002 c -4.46028,1.8927 -8.31204,4.51779 -11.41797,7.57813 -12.89963,-2.8227 -25.42742,1.36962 -30.625,11.30468 -0.58524,1.11867 -1.04787,2.27782 -1.41211,3.45703 -0.004,3.8e-4 -0.006,9.6e-4 -0.01,0.002 0.003,0.003 0.14843,0.14258 0.14843,0.14258 l -2.5664,9.83203 c 0.006,-10e-4 0.0131,-0.004 0.0195,-0.006 0.36424,-1.1792 0.82688,-2.33641 1.41211,-3.45508 6.56255,-12.54418 24.80912,-15.94475 40.73828,-7.61133 6.53207,3.41728 11.64904,8.2807 14.97656,13.69141 -0.19274,0.081 -0.39597,0.14782 -0.58593,0.23242 l 2.82031,4.09961 c 0.62051,1.48311 1.11772,2.98518 1.46679,4.49609 0.0186,-0.0134 0.0379,-0.0238 0.0566,-0.0371 l 0.40626,-1.65429 0.60742,0.88476 c 4.78636,-1.25828 10.15098,-1.50633 15.65039,-0.50781 10.2026,1.85246 18.459,7.55288 22.64648,14.70898 0.0123,-0.0171 0.0267,-0.0337 0.0391,-0.0508 l -0.58593,-9.48828 c -0.0234,0.0301 -0.0486,0.06 -0.0723,0.0899 -4.18749,-7.15601 -12.44388,-12.85457 -22.64648,-14.70704 l 0.002,0.002 c -4.83176,-0.87729 -9.55201,-0.77739 -13.875,0.10937 -2.19393,-8.47222 -8.73697,-16.68191 -18.35547,-21.76172 2.08548,-1.45538 4.37763,-2.74098 6.86133,-3.79492 9.54554,-4.0506 19.57415,-3.8169 27.00195,-0.13281 9.2e-4,-0.0211 0.005,-0.0414 0.006,-0.0625 l -5.69726,-7.60938 c -0.003,0.038 -0.006,0.0754 -0.01,0.11329 -3.71388,-1.84201 -8.07807,-2.82136 -12.70703,-2.83399 z"
           style="fill:#b12774;fill-opacity:0.34153849;stroke:none;filter:url(#filter5928)"
           inkscape:connector-curvature="0"
           sodipodi:nodetypes="scscsscscscsscscsccccsccsccccsscccccsscccccccsscccccscccsccsccccccscccscscsscccscccccsscccccccsccccccccsccccscc"
           transform="matrix(1.0644413,0,0,1.0644413,81.467587,179.49319)" />
      </g>
      <g
         id="g5874"
         clip-path="url(#clipPath5894)">
        <g
           style="opacity:0.39599998;fill:#000000;filter:url(#filter6024)"
           transform="matrix(2.9970005,0,0,2.9970005,-743.47523,566.76303)"
           id="g6028">
          <g
             id="g6030"
             style="fill:#000000;fill-opacity:1;stroke:none">
            <linearGradient
               x1="348.28809"
               y1="-137.29201"
               x2="361.62851"
               y2="-137.29201"
               id="linearGradient6032"
               gradientUnits="userSpaceOnUse"
               gradientTransform="matrix(0.6415,0,0,-0.7781,-31.1663,4.888)"
               style="fill:url(#linearGradient5960);fill-opacity:1">
              <stop
                 style="stop-color:#fbb045;stop-opacity:1;fill-opacity:1;fill:url(#linearGradient5960)"
                 offset="0"
                 id="stop6034" />
              <stop
                 style="stop-color:#c77829;stop-opacity:1;fill-opacity:1;fill:url(#linearGradient5960)"
                 offset="1"
                 id="stop6036" />
            </linearGradient>
            <path
               inkscape:connector-curvature="0"
               d="m 194.694,95.631301 c -9.361,0 -19.538,9.381999 -19.13,15.304999 0.406,5.924 16.689,30.611 20.352,30.611 3.665,0 17.911,-24.193 17.503,-31.105 -0.406,-6.911 -12.616,-15.303999 -18.725,-14.810999 z"
               style="fill:#000000;fill-opacity:1;stroke:none"
               id="path6038" />
          </g>
          <path
             style="fill:#000000;fill-opacity:1;stroke:none"
             d="m -180.99609,643.17773 c -5.64343,23.02399 -35.15778,71.6211 -43.42969,71.6211 -8.06462,0 -40.24846,-47.19561 -49.2461,-69.44336 -0.83921,2.37311 -1.2434,4.66728 -1.09765,6.7832 1.0291,15.01582 42.30313,77.58985 51.58789,77.58985 9.28983,0 45.39941,-61.32361 44.36523,-78.84375 -0.1479,-2.5177 -0.93042,-5.11217 -2.17968,-7.70704 z"
             id="path6040"
             inkscape:connector-curvature="0"
             transform="matrix(0.39451731,0,0,0.39451731,283.96531,-146.34338)" />
        </g>
        <path
           inkscape:connector-curvature="0"
           d="m -324.46819,647.65197 c -17.79553,20.20477 -32.47807,43.7483 -43.197,69.69798 -8.41641,24.64957 -12.78647,51.48285 -12.78647,79.57913 0,119.86488 148.91901,217.16042 217.1604,217.16042 70.889457,0 217.157778,-97.29554 217.157778,-217.16042 0,-28.95331 -4.858276,-56.56932 -14.070691,-81.83183 -9.006441,-21.2289 -20.674359,-40.81469 -34.5331373,-58.23511 0,0 -225.0775697,64.73208 -329.7308797,-9.21017 z"
           style="fill:url(#radialGradient5757);fill-opacity:1;stroke:none"
           id="path314"
           sodipodi:nodetypes="ccsssccc" />
        <path
           id="path5962"
           style="opacity:0.44500002;fill:#000000;fill-opacity:1;stroke:none;filter:url(#filter6064)"
           d="m -212.16049,727.83335 c -36.47706,0 -66.10062,34.25124 -66.10062,76.45382 0,42.20258 29.62356,76.4515 66.10062,76.4515 21.43366,0 40.45389,-11.84016 52.52798,-30.16091 12.0741,18.33464 31.13603,30.16091 52.58125,30.16091 36.472438,0 66.098312,-34.25123 66.098312,-76.4515 0,-42.2049 -29.625874,-76.45382 -66.098312,-76.45382 -21.44292,0 -40.50715,11.8309 -52.58125,30.16323 -12.07409,-18.31612 -31.09896,-30.16323 -52.52798,-30.16323 z"
           inkscape:connector-curvature="0"
           transform="matrix(1.171197,0,0,1.171197,27.373267,-137.28755)" />
        <path
           id="path3341_1_"
           style="fill:#ffffff"
           d="m -198.27617,797.05134 c 0,3.24244 -2.62353,5.8687 -5.86596,5.8687 -3.24244,0 -5.8687,-2.62626 -5.8687,-5.8687 0,-3.24243 2.62626,-5.87144 5.8687,-5.87144 3.24243,0 5.86596,2.63174 5.86596,5.87144 z"
           inkscape:connector-curvature="0" />
        <g
           id="g5996"
           style="opacity:0.25200004;fill:#000000;fill-opacity:1;stroke:none;filter:url(#filter6024)"
           transform="matrix(2.9970005,0,0,2.9970005,-743.47523,566.76303)">
          <linearGradient
             x1="348.28809"
             y1="-137.29201"
             x2="361.62851"
             y2="-137.29201"
             id="linearGradient5998"
             gradientUnits="userSpaceOnUse"
             gradientTransform="matrix(0.6415,0,0,-0.7781,-31.1663,4.888)">
            <stop
               style="stop-color:#fbb045;stop-opacity:1;fill-opacity:1;fill:url(#linearGradient5960)"
               offset="0"
               id="stop6000" />
            <stop
               style="stop-color:#c77829;stop-opacity:1;fill-opacity:1;fill:url(#linearGradient5960)"
               offset="1"
               id="stop6002" />
          </linearGradient>
          <path
             inkscape:connector-curvature="0"
             d="m 194.694,95.631301 c -9.361,0 -19.538,9.381999 -19.13,15.304999 0.406,5.924 16.689,30.611 20.352,30.611 3.665,0 17.911,-24.193 17.503,-31.105 -0.406,-6.911 -12.616,-15.303999 -18.725,-14.810999 z"
             style="fill:#000000;fill-opacity:1;stroke:none"
             id="path6004" />
        </g>
        <path
           style="opacity:0.25200004;fill:#000000;fill-opacity:1;stroke:none;filter:url(#filter6024)"
           d="m -180.99609,643.17773 c -5.64343,23.02399 -35.15778,71.6211 -43.42969,71.6211 -8.06462,0 -40.24846,-47.19561 -49.2461,-69.44336 -0.83921,2.37311 -1.2434,4.66728 -1.09765,6.7832 1.0291,15.01582 42.30313,77.58985 51.58789,77.58985 9.28983,0 45.39941,-61.32361 44.36523,-78.84375 -0.1479,-2.5177 -0.93042,-5.11217 -2.17968,-7.70704 z"
           id="path6006"
           inkscape:connector-curvature="0"
           transform="matrix(1.1823685,0,0,1.1823685,107.56893,128.17185)" />
        <g
           id="g6326"
           clip-path="url(#clipPath6330)">
          <path
             id="path2387_1_"
             style="fill:#ffffff;stroke:none"
             d="m -221.69556,708.46218 c -43.12933,0 -78.1553,40.49759 -78.1553,90.3966 0,49.899 35.02597,90.39385 78.1553,90.39385 25.34249,0 47.83141,-13.99943 62.10743,-35.66131 14.27604,21.6783 36.81426,35.66131 62.170421,35.66131 43.123863,0 78.152565,-40.49758 78.152565,-90.39385 0,-49.90175 -35.028702,-90.3966 -78.152565,-90.3966 -25.353441,0 -47.894381,13.98849 -62.170421,35.66406 -14.27602,-21.65641 -36.77043,-35.66406 -62.10743,-35.66406 z"
             inkscape:connector-curvature="0" />
          <path
             sodipodi:type="inkscape:offset"
             inkscape:radius="9.6780052"
             inkscape:original="M 509.63281 287.55664 C 513.27271 299.99113 515.24609 313.3097 515.24609 327.16016 C 515.24609 395.36774 467.3619 450.72852 408.41211 450.72852 C 388.88272 450.72852 370.57625 444.66102 354.82422 434.0625 C 341.0192 420.10175 333.45841 413.73531 327.35742 412.42188 C 346.90771 441.39438 377.31583 460.06055 411.52344 460.06055 C 470.47322 460.06055 518.35742 404.69977 518.35742 336.49219 C 518.35742 319.10953 515.24217 302.56614 509.63281 287.55664 z M 327.35742 412.42188 C 327.09798 412.03739 326.79269 411.69865 326.53711 411.31055 C 326.32895 411.6264 326.07985 411.90138 325.86914 412.21484 C 326.35783 412.25475 326.85111 412.31287 327.35742 412.42188 z M 325.86914 412.21484 C 317.04972 411.49457 310.63958 421.72242 290.71875 434.94141 C 275.29251 444.99269 257.4945 450.72852 238.52734 450.72852 C 194.59212 450.72852 156.81404 419.98327 140.41211 376.08984 C 154.69691 424.89778 194.64831 460.06055 241.63672 460.06055 C 275.91007 460.06055 306.32603 441.2885 325.86914 412.21484 z "
             style="fill:#d3d3d3;fill-opacity:1;stroke:none;filter:url(#filter6314)"
             id="path6334"
             d="m 509.74219,277.90234 a 9.678973,9.678973 0 0 0 -9.39844,12.37305 c 3.38139,11.55139 5.22461,23.95357 5.22461,36.88477 0,63.67804 -44.26565,113.89062 -97.15625,113.89062 -17.28719,0 -33.43227,-5.29839 -47.58399,-14.66992 -11.90214,-12.04043 -19.18246,-19.3742 -28.02148,-22.43555 a 9.678973,9.678973 0 0 0 -11.01562,-1.06836 c -5.97886,0.97132 -10.92354,4.38263 -15.34766,7.89063 -5.56951,4.41621 -11.66273,9.85485 -21.03711,16.08008 -13.97775,9.10046 -29.87426,14.20312 -46.87891,14.20312 -39.42019,0 -73.83382,-27.63056 -89.04882,-68.34766 a 9.678973,9.678973 0 0 0 -18.35547,6.10547 c 15.29923,52.27402 58.69704,90.92969 110.51367,90.92969 33.69992,0 63.83364,-16.58056 84.91211,-42.35937 21.0924,25.79169 51.26566,42.35937 84.97461,42.35937 65.00897,0 116.51172,-60.50897 116.51172,-133.24609 0,-18.53896 -3.32156,-36.23098 -9.33594,-52.32422 a 9.678973,9.678973 0 0 0 -8.95703,-6.26563 z"
             transform="matrix(0.73153553,0,0,0.73153553,-398.46184,552.70236)" />
        </g>
        <g
           transform="matrix(2.9970005,0,0,2.9970005,-743.47523,566.76303)"
           id="g4231">
          <g
             id="g319"
             style="fill:url(#linearGradient6270);fill-opacity:1;stroke:none">
            <linearGradient
               x1="348.28809"
               y1="-137.29201"
               x2="361.62851"
               y2="-137.29201"
               id="linearGradient4266"
               gradientUnits="userSpaceOnUse"
               gradientTransform="matrix(0.6415,0,0,-0.7781,-31.1663,4.888)"
               style="fill:url(#linearGradient5960);fill-opacity:1">
              <stop
                 style="stop-color:#fbb045;stop-opacity:1;fill-opacity:1;fill:url(#linearGradient5960)"
                 offset="0"
                 id="stop4268" />
              <stop
                 style="stop-color:#c77829;stop-opacity:1;fill-opacity:1;fill:url(#linearGradient5960)"
                 offset="1"
                 id="stop4270" />
            </linearGradient>
            <path
               inkscape:connector-curvature="0"
               d="m 194.694,95.631301 c -9.361,0 -19.538,9.381999 -19.13,15.304999 0.406,5.924 16.689,30.611 20.352,30.611 3.665,0 17.911,-24.193 17.503,-31.105 -0.406,-6.911 -12.616,-15.303999 -18.725,-14.810999 z"
               style="fill:url(#linearGradient5992);fill-opacity:1;stroke:none"
               id="path2391_1_" />
          </g>
          <path
             style="fill:#ecc200;fill-opacity:1;stroke:none"
             d="m -180.99609,643.17773 c -5.64343,23.02399 -35.15778,71.6211 -43.42969,71.6211 -8.06462,0 -40.24846,-47.19561 -49.2461,-69.44336 -0.83921,2.37311 -1.2434,4.66728 -1.09765,6.7832 1.0291,15.01582 42.30313,77.58985 51.58789,77.58985 9.28983,0 45.39941,-61.32361 44.36523,-78.84375 -0.1479,-2.5177 -0.93042,-5.11217 -2.17968,-7.70704 z"
             id="path4203"
             inkscape:connector-curvature="0"
             transform="matrix(0.39451731,0,0,0.39451731,283.96531,-146.34338)" />
        </g>
        <path
           inkscape:connector-curvature="0"
           style="opacity:0.17600002;fill:#203e64;fill-opacity:0.91384612;stroke:none;filter:url(#filter5771)"
           d="m -55.035156,470.33008 c 1.16413,2.50486 2.292681,5.03217 3.376953,7.58789 8.800628,24.13329 13.441406,50.51471 13.441406,78.17383 0,114.50701 -139.728473,207.45508 -207.449223,207.45508 -46.84729,0 -133.49547,-47.99852 -178.54882,-117.50391 37.42622,83.9562 140.70248,144.87695 193.47851,144.87695 67.72076,0 207.451174,-92.94611 207.451174,-207.45312 0,-27.65912 -4.640778,-54.04249 -13.441406,-78.17578 -5.204145,-12.26659 -11.343546,-23.95331 -18.308594,-34.96094 z"
           id="path4224"
           transform="matrix(1.0467907,0,0,1.0467907,78.240954,186.16233)" />
        <path
           transform="matrix(1.0467907,0,0,1.0467907,78.240954,186.16233)"
           inkscape:connector-curvature="0"
           style="fill:#12294b;fill-opacity:0.23999999;stroke:none;filter:url(#filter5853)"
           d="m -384.70898,440.86133 c -17.00009,19.30163 -31.02583,41.79228 -41.26563,66.58203 -8.04021,23.54776 -12.21484,49.18304 -12.21484,76.02344 0,1.40727 0.0277,2.81031 0.0703,4.21093 0.55339,-24.75464 4.67983,-48.41706 12.14453,-70.27929 10.2398,-24.78975 24.26554,-47.2804 41.26563,-66.58203 99.97539,70.63709 314.992183,8.79687 314.992183,8.79687 13.239302,16.64174 24.386375,35.35282 32.990235,55.63281 8.195837,22.47482 12.779161,46.90163 13.371093,72.49219 0.04302,-1.4207 0.07031,-2.84394 0.07031,-4.27148 0,-27.65912 -4.640778,-54.04249 -13.441406,-78.17578 -8.60386,-20.27999 -19.750933,-38.98912 -32.990235,-55.63086 0,0 -215.01679,61.83826 -314.99218,-8.79883 z"
           id="path4294" />
        <path
           id="path6283"
           d="m -195.81699,778.01102 c -14.84126,0 -26.9668,12.12411 -26.9668,26.96537 0,14.83904 12.12554,26.96251 26.9668,26.96251 14.83841,0 26.96252,-12.12125 26.96252,-26.96251 0,-14.84126 -12.12348,-26.96537 -26.96252,-26.96537 z m -8.16976,13.16906 c 3.2397,0.003 5.868,2.63116 5.868,5.87086 0,3.24244 -2.62557,5.86943 -5.868,5.86943 -3.24244,0 -5.86943,-2.62699 -5.86943,-5.86943 0,-3.24243 2.62699,-5.87086 5.86943,-5.87086 z"
           style="font-style:normal;font-variant:normal;font-weight:normal;font-stretch:normal;text-indent:0;text-align:start;text-decoration:none;line-height:normal;letter-spacing:normal;word-spacing:normal;text-transform:none;direction:ltr;block-progression:tb;writing-mode:lr-tb;text-anchor:start;baseline-shift:baseline;color:#000000;color-interpolation:sRGB;color-interpolation-filters:linearRGB;fill:#102543;fill-opacity:1;fill-rule:nonzero;stroke:none;stroke-width:8.67926788;marker:none;visibility:visible;display:inline;overflow:visible;enable-background:accumulate;clip-rule:nonzero;color-rendering:auto;image-rendering:auto;shape-rendering:auto;text-rendering:auto;font-family:sans-serif;-inkscape-font-specification:sans-serif"
           inkscape:connector-curvature="0" />
        <path
           style="font-style:normal;font-variant:normal;font-weight:normal;font-stretch:normal;text-indent:0;text-align:start;text-decoration:none;line-height:normal;letter-spacing:normal;word-spacing:normal;text-transform:none;direction:ltr;block-progression:tb;writing-mode:lr-tb;text-anchor:start;baseline-shift:baseline;color:#000000;color-interpolation:sRGB;color-interpolation-filters:linearRGB;fill:#102543;fill-opacity:1;fill-rule:nonzero;stroke:none;stroke-width:8.67926788;marker:none;visibility:visible;display:inline;overflow:visible;enable-background:accumulate;clip-rule:nonzero;color-rendering:auto;image-rendering:auto;shape-rendering:auto;text-rendering:auto;font-family:sans-serif;-inkscape-font-specification:sans-serif"
           d="M 381.27148 307.99414 C 360.98367 307.99414 344.4082 324.56765 344.4082 344.85547 C 344.4082 365.14025 360.98367 381.71289 381.27148 381.71289 C 401.55541 381.71289 418.12891 365.14329 418.12891 344.85547 C 418.12891 324.56765 401.55627 307.99414 381.27148 307.99414 z M 370.10352 325.99609 C 374.53215 326.00019 378.125 329.59285 378.125 334.02148 C 378.125 338.45386 374.53589 342.04492 370.10352 342.04492 C 365.67115 342.04492 362.08008 338.45386 362.08008 334.02148 C 362.08008 329.58912 365.67115 325.99609 370.10352 325.99609 z "
           id="path3301_1_"
           transform="matrix(0.73153553,0,0,0.73153553,-398.46184,552.70236)" />
      </g>
    </g>
    <rect
       style="opacity:0.17600002;color:#000000;color-interpolation:sRGB;color-interpolation-filters:linearRGB;fill:none;fill-opacity:1;fill-rule:nonzero;stroke:none;stroke-width:11.41800022;marker:none;visibility:visible;display:inline;overflow:visible;enable-background:accumulate;clip-rule:nonzero;color-rendering:auto;image-rendering:auto;shape-rendering:auto;text-rendering:auto"
       id="rect4305"
       width="199.08018"
       height="201.5687"
       x="-889.26666"
       y="514.96997"
       rx="22.875278"
       ry="22.875278" />
    <g
       id="g6633"
       transform="translate(-2,-1)" />
  </g>
</svg>
