<?xml version="1.0" encoding="UTF-8" standalone="no"?>
<!-- Created with Inkscape (http://www.inkscape.org/) -->

<svg
   xmlns:dc="http://purl.org/dc/elements/1.1/"
   xmlns:cc="http://creativecommons.org/ns#"
   xmlns:rdf="http://www.w3.org/1999/02/22-rdf-syntax-ns#"
   xmlns:svg="http://www.w3.org/2000/svg"
   xmlns="http://www.w3.org/2000/svg"
   xmlns:sodipodi="http://sodipodi.sourceforge.net/DTD/sodipodi-0.dtd"
   xmlns:inkscape="http://www.inkscape.org/namespaces/inkscape"
   width="64"
   height="64"
   id="svg2"
   version="1.1"
   inkscape:version="0.48.4 r9939"
   sodipodi:docname="corebird-location-symbolic.svg">
  <defs
     id="defs4" />
  <sodipodi:namedview
     id="base"
     pagecolor="#ffffff"
     bordercolor="#666666"
     borderopacity="1.0"
     inkscape:pageopacity="0.0"
     inkscape:pageshadow="2"
     inkscape:zoom="14.868378"
     inkscape:cx="44.469721"
     inkscape:cy="14.381389"
     inkscape:document-units="px"
     inkscape:current-layer="layer1"
     showgrid="false"
     inkscape:window-width="1000"
     inkscape:window-height="874"
     inkscape:window-x="532"
     inkscape:window-y="126"
     inkscape:window-maximized="0" />
  <metadata
     id="metadata7">
    <rdf:RDF>
      <cc:Work
         rdf:about="">
        <dc:format>image/svg+xml</dc:format>
        <dc:type
           rdf:resource="http://purl.org/dc/dcmitype/StillImage" />
        <dc:title />
      </cc:Work>
    </rdf:RDF>
  </metadata>
  <g
     inkscape:label="Layer 1"
     inkscape:groupmode="layer"
     id="layer1"
     transform="translate(0,-988.36218)">
    <g
       style="font-size:74.66666412px;font-style:normal;font-variant:normal;font-weight:normal;font-stretch:normal;line-height:125%;letter-spacing:0px;word-spacing:0px;fill:#bebebe;fill-opacity:1;stroke:none;font-family:'04b20';-inkscape-font-specification:'04b20'"
       id="text2985">
      <path
         d="m 39.541666,1017.2371 c 2.083302,-2.0833 3.124968,-4.5971 3.125,-7.5416 -3.2e-5,-2.9444 -1.041698,-5.4583 -3.125,-7.5417 -2.08336,-2.0833 -4.597246,-3.12494 -7.541666,-3.12499 -2.944463,5e-5 -5.458349,1.04169 -7.541667,3.12499 -2.083345,2.0834 -3.12501,4.5973 -3.125,7.5417 -10e-6,2.9445 1.041655,5.4583 3.125,7.5416 2.083318,2.0834 4.597204,3.1251 7.541667,3.125 2.94442,10e-5 5.458306,-1.0416 7.541666,-3.125 m 13.791666,-7.5416 c -4.2e-5,3.0278 -0.458375,5.5139 -1.375,7.4583 l -15.166666,32.25 c -0.44447,0.9167 -1.111136,1.6389 -2,2.1667 -0.861134,0.5277 -1.791689,0.7916 -2.791666,0.7916 -1.000021,0 -1.944464,-0.2639 -2.833334,-0.7916 -0.861128,-0.5278 -1.500017,-1.25 -1.916666,-2.1667 l -15.208333,-32.25 c -0.916667,-1.9444 -1.375,-4.4305 -1.375,-7.4583 0,-5.8889 2.083331,-10.91664 6.25,-15.08336 4.166656,-4.16661 9.194428,-6.24994 15.083333,-6.25 5.888861,6e-5 10.916634,2.08339 15.083332,6.25 4.166626,4.16672 6.249958,9.19446 6.25,15.08336"
         style=""
         id="path3036" />
    </g>
  </g>
</svg>
