<?xml version="1.0" encoding="UTF-8" standalone="no"?>
<!-- Created with Inkscape (http://www.inkscape.org/) -->

<svg
   xmlns:dc="http://purl.org/dc/elements/1.1/"
   xmlns:cc="http://creativecommons.org/ns#"
   xmlns:rdf="http://www.w3.org/1999/02/22-rdf-syntax-ns#"
   xmlns:svg="http://www.w3.org/2000/svg"
   xmlns="http://www.w3.org/2000/svg"
   xmlns:sodipodi="http://sodipodi.sourceforge.net/DTD/sodipodi-0.dtd"
   xmlns:inkscape="http://www.inkscape.org/namespaces/inkscape"
   width="64"
   height="64"
   id="svg4351"
   version="1.1"
   inkscape:version="0.48.4 r9939"
   sodipodi:docname="New document 6">
  <defs
     id="defs4353" />
  <sodipodi:namedview
     id="base"
     pagecolor="#ffffff"
     bordercolor="#666666"
     borderopacity="1.0"
     inkscape:pageopacity="0.0"
     inkscape:pageshadow="2"
     inkscape:zoom="3.6912627"
     inkscape:cx="11.484636"
     inkscape:cy="37.998381"
     inkscape:document-units="px"
     inkscape:current-layer="layer1"
     showgrid="false"
     inkscape:window-width="909"
     inkscape:window-height="514"
     inkscape:window-x="917"
     inkscape:window-y="397"
     inkscape:window-maximized="0" />
  <metadata
     id="metadata4356">
    <rdf:RDF>
      <cc:Work
         rdf:about="">
        <dc:format>image/svg+xml</dc:format>
        <dc:type
           rdf:resource="http://purl.org/dc/dcmitype/StillImage" />
        <dc:title></dc:title>
      </cc:Work>
    </rdf:RDF>
  </metadata>
  <g
     inkscape:label="Layer 1"
     inkscape:groupmode="layer"
     id="layer1"
     transform="translate(0,-988.36218)">
    <path
       d="m 64.000001,1013.5012 c -6.8e-5,0.5638 -0.333397,1.1786 -1.000003,1.8449 l -13.961517,13.6069 3.307682,19.2185 c 0.02567,0.1795 0.03842,0.4358 0.03842,0.7688 -5.1e-5,0.5381 -0.14112,0.9865 -0.423066,1.3454 -0.256462,0.3843 -0.641069,0.5765 -1.153839,0.5765 -0.487234,0 -1.000055,-0.1533 -1.538464,-0.4613 l -17.269199,-9.0712 -17.269199,9.0712 c -0.564116,0.3075 -1.076939,0.4613 -1.538464,0.4613 -0.538477,0 -0.948724,-0.1922 -1.230774,-0.5765 -0.256411,-0.3589 -0.384625,-0.8073 -0.384607,-1.3454 -1.8e-5,-0.1533 0.02567,-0.41 0.07685,-0.7688 L 14.961503,1028.953 0.9615262,1015.3461 C 0.3205082,1014.6542 0,1014.0393 0,1013.5012 c 0,-0.9481 0.7179525,-1.5375 2.1538417,-1.7681 l 19.3076653,-2.8061 8.653828,-17.48889 c 0.487148,-1.05057 1.115346,-1.57588 1.884612,-1.57593 0.769197,5e-5 1.397396,0.52536 1.884613,1.57593 l 8.653828,17.48889 19.307664,2.8061 c 1.435821,0.2306 2.153774,0.82 2.153843,1.7681"
       style="font-size:40px;font-style:normal;font-variant:normal;font-weight:normal;font-stretch:normal;line-height:125%;letter-spacing:0px;word-spacing:0px;fill:#bebebe;fill-opacity:1;stroke:none;font-family:FontAwesome;-inkscape-font-specification:FontAwesome"
       id="path3002"
       inkscape:connector-curvature="0" />
  </g>
</svg>
