<?xml version="1.0" encoding="UTF-8" standalone="no"?>
<!-- Created with Inkscape (http://www.inkscape.org/) -->

<svg
   xmlns:dc="http://purl.org/dc/elements/1.1/"
   xmlns:cc="http://creativecommons.org/ns#"
   xmlns:rdf="http://www.w3.org/1999/02/22-rdf-syntax-ns#"
   xmlns:svg="http://www.w3.org/2000/svg"
   xmlns="http://www.w3.org/2000/svg"
   xmlns:sodipodi="http://sodipodi.sourceforge.net/DTD/sodipodi-0.dtd"
   xmlns:inkscape="http://www.inkscape.org/namespaces/inkscape"
   width="500"
   height="500"
   id="svg3943"
   version="1.1"
   inkscape:version="0.48.4 r9939"
   sodipodi:docname="stream.svg"
   inkscape:export-filename="/home/baedert/Code/Vala/Corebird/assets/icons/stream.png"
   inkscape:export-xdpi="2.8800001"
   inkscape:export-ydpi="2.8800001">
  <defs
     id="defs3945" />
  <sodipodi:namedview
     id="base"
     pagecolor="#ffffff"
     bordercolor="#666666"
     borderopacity="1.0"
     inkscape:pageopacity="0.0"
     inkscape:pageshadow="2"
     inkscape:zoom="0.46273349"
     inkscape:cx="191.77134"
     inkscape:cy="226.21289"
     inkscape:document-units="px"
     inkscape:current-layer="layer1"
     showgrid="false"
     inkscape:window-width="730"
     inkscape:window-height="447"
     inkscape:window-x="1188"
     inkscape:window-y="124"
     inkscape:window-maximized="0" />
  <metadata
     id="metadata3948">
    <rdf:RDF>
      <cc:Work
         rdf:about="">
        <dc:format>image/svg+xml</dc:format>
        <dc:type
           rdf:resource="http://purl.org/dc/dcmitype/StillImage" />
        <dc:title />
      </cc:Work>
    </rdf:RDF>
  </metadata>
  <g
     inkscape:label="Layer 1"
     inkscape:groupmode="layer"
     id="layer1"
     transform="translate(0,-552.36218)">
    <g
       id="g6245"
       transform="matrix(0.64113607,0,0,0.64113607,81.472806,521.49555)"
       style="fill:#2e3436">
      <path
         id="rect3753"
         d="m -113.11161,137.84182 c -2.51392,0 -4.53125,2.01733 -4.53125,4.53125 l 0,152.78125 c 0,2.51392 2.01733,4.53125 4.53125,4.53125 l 751.9375,0 c 2.51392,0 4.53125,-2.01733 4.53125,-4.53125 l 0,-152.78125 c 0,-2.51392 -2.01733,-4.53125 -4.53125,-4.53125 l -751.9375,0 z m 32.125003,42.53125 171.34375,0 0,76.78125 -171.34375,0 0,-76.78125 z"
         style="fill:#2e3436;fill-opacity:1;fill-rule:nonzero;stroke:none"
         inkscape:connector-curvature="0" />
      <path
         inkscape:connector-curvature="0"
         style="fill:#2e3436;fill-opacity:1;fill-rule:nonzero;stroke:none"
         d="m -113.11161,357.15455 c -2.51392,0 -4.53125,2.01733 -4.53125,4.53125 l 0,152.78125 c 0,2.51392 2.01733,4.53125 4.53125,4.53125 l 751.9375,0 c 2.51392,0 4.53125,-2.01733 4.53125,-4.53125 l 0,-152.78125 c 0,-2.51392 -2.01733,-4.53125 -4.53125,-4.53125 l -751.9375,0 z m 32.125003,42.53125 171.34375,0 0,76.78125 -171.34375,0 0,-76.78125 z"
         id="path3762" />
      <path
         id="path3764"
         d="m -113.11161,576.46735 c -2.51392,0 -4.53125,2.01733 -4.53125,4.53125 l 0,152.78125 c 0,2.51392 2.01733,4.53127 4.53125,4.53127 l 751.9375,0 c 2.51392,0 4.53125,-2.01735 4.53125,-4.53127 l 0,-152.78125 c 0,-2.51392 -2.01733,-4.53125 -4.53125,-4.53125 l -751.9375,0 z m 32.125003,42.53125 171.34375,0 0,76.78125 -171.34375,0 0,-76.78125 z"
         style="fill:#2e3436;fill-opacity:1;fill-rule:nonzero;stroke:none"
         inkscape:connector-curvature="0" />
    </g>
  </g>
</svg>
